<svg width="60" height="60" viewBox="0 0 60 60" fill="none" xmlns="http://www.w3.org/2000/svg">
<g filter="url(#filter0_d_0_1)">
<path d="M30 40C41.0457 40 50 31.0457 50 20C50 8.9543 41.0457 0 30 0C18.9543 0 10 8.9543 10 20C10 31.0457 18.9543 40 30 40Z" fill="url(#paint0_linear_0_1)"/>
</g>
<path d="M31.0789 16.553V14.828C31.0789 13.928 31.1399 13.448 32.3899 13.448H34.7029V10H31.3889C28.1729 10 27.4329 11.711 27.4329 14.522V16.552H24.9929V20H27.4329V30H31.0719V20H34.3719L34.7279 16.554L31.0789 16.553Z" fill="white"/>
<defs>
<filter id="filter0_d_0_1" x="0" y="0" width="60" height="60" filterUnits="userSpaceOnUse" color-interpolation-filters="sRGB">
<feFlood flood-opacity="0" result="BackgroundImageFix"/>
<feColorMatrix in="SourceAlpha" type="matrix" values="0 0 0 0 0 0 0 0 0 0 0 0 0 0 0 0 0 0 127 0" result="hardAlpha"/>
<feOffset dy="10"/>
<feGaussianBlur stdDeviation="5"/>
<feColorMatrix type="matrix" values="0 0 0 0 0.294118 0 0 0 0 0.294118 0 0 0 0 0.294118 0 0 0 0.149 0"/>
<feBlend mode="normal" in2="BackgroundImageFix" result="effect1_dropShadow_0_1"/>
<feBlend mode="normal" in="SourceGraphic" in2="effect1_dropShadow_0_1" result="shape"/>
</filter>
<linearGradient id="paint0_linear_0_1" x1="49.12" y1="20" x2="10" y2="20" gradientUnits="userSpaceOnUse">
<stop stop-color="#34F2C6"/>
<stop offset="1" stop-color="#1ECEF7"/>
</linearGradient>
</defs>
</svg>
