<svg width="233" height="233" viewBox="0 0 233 233" fill="none" xmlns="http://www.w3.org/2000/svg">
<path d="M198.426 94.6321C198.431 94.1066 198.642 93.6042 199.013 93.2321C199.103 93.1386 199.204 93.0554 199.313 92.984C199.424 92.914 199.54 92.8538 199.662 92.8041C199.781 92.7545 199.904 92.7147 200.03 92.6851C200.286 92.632 200.55 92.632 200.806 92.6851C200.935 92.7148 201.061 92.7545 201.184 92.8041C201.302 92.854 201.415 92.9142 201.522 92.984C201.631 93.0581 201.734 93.141 201.83 93.2321C202.185 93.6147 202.382 94.1172 202.382 94.639C202.382 95.1609 202.185 95.6635 201.83 96.0461C201.452 96.415 200.946 96.622 200.418 96.6231C200.288 96.6228 200.158 96.6128 200.03 96.5931C199.904 96.5633 199.781 96.5231 199.662 96.4731C199.54 96.4236 199.424 96.3638 199.313 96.2941C199.206 96.2196 199.106 96.1367 199.013 96.0461C198.639 95.6701 198.428 95.1622 198.426 94.6321V94.6321Z" fill="#E94858"/>
<path d="M200.415 92.6431C200.676 92.6429 200.935 92.6943 201.176 92.7942C201.417 92.8941 201.637 93.0406 201.822 93.2253C202.006 93.41 202.153 93.6294 202.253 93.8707C202.353 94.1121 202.404 94.3708 202.404 94.632V94.632C202.405 94.8935 202.354 95.1526 202.254 95.3943C202.155 95.6361 202.008 95.8557 201.823 96.0406C201.638 96.2254 201.419 96.3719 201.177 96.4715C200.935 96.5712 200.676 96.622 200.415 96.6211V96.6211C200.154 96.6212 199.895 96.5698 199.653 96.4699C199.412 96.37 199.193 96.2235 199.008 96.0388C198.823 95.8541 198.677 95.6347 198.577 95.3934C198.477 95.152 198.426 94.8933 198.426 94.632C198.429 94.1054 198.639 93.6012 199.012 93.2288C199.384 92.8564 199.888 92.646 200.415 92.6431V92.6431Z" fill="#E94858"/>
<path d="M133.33 168.807C133.412 168.799 133.495 168.795 133.579 168.797C134.063 168.793 134.532 168.967 134.896 169.286C135.261 169.605 135.496 170.047 135.557 170.527V170.527C135.592 170.786 135.575 171.049 135.508 171.301C135.441 171.553 135.324 171.79 135.165 171.997C135.006 172.204 134.808 172.377 134.582 172.507C134.355 172.637 134.105 172.721 133.847 172.754V172.754C133.761 172.766 133.674 172.772 133.588 172.774V172.774C133.104 172.773 132.638 172.598 132.274 172.28C131.91 171.962 131.674 171.523 131.609 171.044V171.044C131.6 170.955 131.597 170.865 131.599 170.775C131.6 170.293 131.776 169.828 132.095 169.466C132.413 169.104 132.852 168.87 133.33 168.807V168.807ZM142.936 166.907C143.095 166.868 143.258 166.848 143.423 166.848C143.864 166.842 144.294 166.983 144.646 167.25C144.997 167.517 145.249 167.893 145.362 168.32C145.498 168.829 145.428 169.371 145.165 169.828C144.903 170.284 144.47 170.618 143.962 170.756V170.756C143.797 170.793 143.63 170.817 143.462 170.826V170.826C143.02 170.827 142.591 170.682 142.241 170.414C141.89 170.146 141.638 169.77 141.523 169.344V169.344C141.474 169.176 141.451 169.002 141.453 168.827V168.827C141.454 168.389 141.6 167.963 141.868 167.616C142.136 167.269 142.512 167.02 142.936 166.908V166.907ZM152.204 163.765C152.45 163.667 152.714 163.616 152.98 163.616V163.616C153.371 163.62 153.752 163.74 154.075 163.959C154.399 164.179 154.651 164.488 154.8 164.85V164.85C154.9 165.091 154.952 165.35 154.953 165.611C154.953 165.873 154.902 166.131 154.802 166.373C154.702 166.615 154.556 166.834 154.371 167.019C154.187 167.204 153.967 167.35 153.726 167.45V167.45C153.478 167.547 153.215 167.598 152.95 167.599V167.599C152.558 167.597 152.176 167.479 151.851 167.262C151.526 167.045 151.272 166.737 151.12 166.376C151.022 166.133 150.971 165.873 150.971 165.611V165.611C150.97 165.215 151.087 164.828 151.307 164.499C151.526 164.169 151.839 163.913 152.205 163.761L152.204 163.765ZM160.975 159.439C161.274 159.265 161.613 159.173 161.959 159.17V159.17C162.309 159.169 162.654 159.26 162.957 159.435C163.261 159.61 163.513 159.862 163.689 160.165V160.165C163.821 160.391 163.907 160.64 163.942 160.899C163.977 161.158 163.96 161.422 163.892 161.674C163.825 161.927 163.708 162.163 163.548 162.37C163.389 162.577 163.19 162.751 162.963 162.88V162.88C162.665 163.058 162.324 163.151 161.978 163.148V163.148C161.627 163.152 161.281 163.061 160.977 162.886C160.673 162.711 160.421 162.458 160.248 162.153V162.153C160.072 161.851 159.98 161.508 159.98 161.158C159.98 160.809 160.072 160.467 160.247 160.165C160.421 159.864 160.672 159.613 160.975 159.439V159.439ZM169.11 154C169.449 153.74 169.865 153.597 170.293 153.592C170.603 153.587 170.91 153.654 171.19 153.789C171.47 153.924 171.714 154.122 171.904 154.368V154.368C172.223 154.788 172.364 155.317 172.295 155.841C172.226 156.364 171.953 156.839 171.536 157.162V157.162C171.193 157.418 170.78 157.56 170.353 157.57V157.57C170.042 157.575 169.735 157.508 169.455 157.373C169.175 157.239 168.931 157.04 168.742 156.794C168.476 156.445 168.333 156.019 168.334 155.581V155.581C168.333 155.276 168.403 154.974 168.537 154.7C168.672 154.426 168.868 154.186 169.11 154V154ZM176.479 147.546C176.662 147.362 176.881 147.217 177.121 147.118C177.361 147.019 177.619 146.969 177.879 146.97C178.141 146.967 178.402 147.018 178.645 147.119C178.887 147.219 179.107 147.368 179.291 147.556V147.556C179.475 147.74 179.621 147.959 179.72 148.199C179.819 148.44 179.87 148.698 179.869 148.958C179.868 149.218 179.816 149.476 179.715 149.716C179.614 149.956 179.467 150.173 179.282 150.356V150.356C179.098 150.541 178.88 150.688 178.64 150.789C178.4 150.89 178.142 150.942 177.882 150.943V150.943C177.621 150.942 177.363 150.89 177.123 150.789C176.883 150.688 176.665 150.541 176.482 150.356C176.297 150.173 176.149 149.955 176.049 149.715C175.948 149.474 175.896 149.217 175.895 148.956C175.896 148.427 176.106 147.92 176.481 147.546H176.479ZM182.943 140.197C183.125 139.956 183.361 139.76 183.632 139.625C183.903 139.49 184.202 139.421 184.505 139.421C184.947 139.414 185.378 139.558 185.728 139.829V139.829C186.145 140.152 186.418 140.627 186.487 141.15C186.556 141.674 186.415 142.203 186.096 142.623C185.91 142.861 185.674 143.055 185.404 143.189C185.133 143.323 184.836 143.395 184.535 143.399C184.091 143.404 183.659 143.256 183.312 142.981V142.981C183.068 142.798 182.87 142.561 182.734 142.288C182.598 142.015 182.527 141.715 182.527 141.41V141.41C182.526 140.971 182.673 140.544 182.943 140.197V140.197ZM188.392 132.062C188.569 131.76 188.822 131.51 189.125 131.335C189.429 131.161 189.772 131.068 190.123 131.067V131.067C190.472 131.069 190.814 131.162 191.117 131.336C191.572 131.603 191.903 132.039 192.039 132.549C192.175 133.06 192.104 133.603 191.843 134.061V134.061C191.667 134.363 191.414 134.613 191.11 134.786C190.806 134.959 190.462 135.049 190.113 135.046V135.046C189.763 135.044 189.42 134.951 189.118 134.777C188.815 134.603 188.564 134.352 188.39 134.05C188.215 133.748 188.123 133.406 188.123 133.057V133.057C188.124 132.707 188.216 132.364 188.392 132.061V132.062ZM192.738 123.281C192.891 122.921 193.146 122.614 193.471 122.397C193.796 122.18 194.177 122.062 194.568 122.058V122.058C194.833 122.059 195.096 122.11 195.344 122.207V122.207C195.83 122.412 196.216 122.801 196.418 123.289C196.619 123.777 196.619 124.325 196.418 124.813C196.266 125.174 196.011 125.482 195.686 125.699C195.361 125.916 194.979 126.034 194.588 126.036V126.036C194.322 126.035 194.059 125.984 193.813 125.887V125.887C193.45 125.735 193.14 125.48 192.923 125.152C192.705 124.825 192.589 124.44 192.59 124.047V124.047C192.59 123.785 192.64 123.525 192.738 123.282V123.281ZM195.89 114.013C196.004 113.587 196.256 113.211 196.607 112.945C196.959 112.678 197.389 112.536 197.83 112.541V112.541C197.998 112.541 198.166 112.561 198.33 112.6V112.6C198.839 112.738 199.272 113.071 199.537 113.527C199.801 113.984 199.875 114.526 199.742 115.036V115.036C199.627 115.463 199.375 115.839 199.024 116.107C198.673 116.376 198.243 116.52 197.802 116.518C197.633 116.515 197.465 116.492 197.302 116.448C196.878 116.336 196.503 116.087 196.235 115.74C195.968 115.393 195.822 114.967 195.821 114.529C195.824 114.355 195.847 114.183 195.89 114.014V114.013ZM197.799 104.406V104.416C197.858 103.936 198.091 103.494 198.454 103.174C198.817 102.853 199.284 102.676 199.768 102.676V102.676C199.854 102.678 199.941 102.684 200.027 102.696V102.696C200.548 102.766 201.021 103.039 201.341 103.457C201.662 103.874 201.804 104.401 201.737 104.923V104.923C201.676 105.404 201.441 105.845 201.076 106.164C200.711 106.483 200.242 106.657 199.758 106.653V106.653C199.675 106.655 199.592 106.651 199.51 106.643V106.643C199.033 106.578 198.595 106.343 198.277 105.981C197.959 105.62 197.783 105.156 197.78 104.674C197.776 104.585 197.783 104.495 197.799 104.407V104.406Z" fill="#E94858"/>
<path d="M121.537 171.433C121.54 170.906 121.75 170.402 122.123 170.03C122.495 169.657 122.999 169.447 123.526 169.444C123.656 169.447 123.786 169.461 123.915 169.484C124.044 169.513 124.17 169.553 124.292 169.603C124.41 169.653 124.523 169.712 124.63 169.782C124.739 169.856 124.842 169.939 124.938 170.03C125.166 170.262 125.335 170.547 125.428 170.858C125.522 171.17 125.538 171.501 125.475 171.82C125.454 171.95 125.417 172.077 125.366 172.198C125.318 172.317 125.258 172.43 125.187 172.536C125.11 172.643 125.027 172.746 124.939 172.844C124.841 172.933 124.738 173.016 124.631 173.093C124.524 173.163 124.411 173.222 124.293 173.272C124.172 173.324 124.046 173.36 123.916 173.381C123.788 173.409 123.658 173.423 123.527 173.421C123.267 173.424 123.009 173.374 122.768 173.275C122.528 173.175 122.31 173.029 122.127 172.844C121.94 172.66 121.791 172.44 121.69 172.198C121.589 171.956 121.537 171.696 121.537 171.433V171.433Z" fill="#E94858"/>
<path d="M44.6478 94.6358C44.6478 73.7158 52.9582 53.6526 67.7508 38.86C82.5435 24.0673 102.607 15.7568 123.527 15.7568C144.447 15.7568 164.51 24.0673 179.303 38.86C194.095 53.6526 202.406 73.7158 202.406 94.6358C202.412 94.9007 202.365 95.1641 202.267 95.4106C202.17 95.657 202.025 95.8816 201.839 96.071C201.654 96.2604 201.433 96.411 201.189 96.5137C200.944 96.6165 200.682 96.6694 200.417 96.6694C200.152 96.6694 199.89 96.6165 199.646 96.5137C199.402 96.411 199.18 96.2604 198.995 96.071C198.81 95.8816 198.664 95.657 198.567 95.4106C198.47 95.1641 198.423 94.9007 198.429 94.6358C198.446 79.8182 194.069 65.3283 185.849 52.9994C177.63 40.6705 165.938 31.0565 152.253 25.3738C138.569 19.6912 123.506 18.1952 108.971 21.0752C94.4361 23.9552 81.0819 31.0817 70.598 41.5531C60.1141 52.0245 52.9718 65.3702 50.0745 79.9018C47.1773 94.4334 48.6553 109.498 54.3217 123.189C59.9881 136.881 69.5881 148.584 81.9073 156.818C94.2264 165.052 108.711 169.447 123.529 169.447C124.056 169.447 124.562 169.656 124.935 170.029C125.308 170.402 125.518 170.908 125.518 171.436C125.518 171.963 125.308 172.469 124.935 172.842C124.562 173.215 124.056 173.425 123.529 173.425C102.628 173.414 82.5842 165.112 67.7962 150.341C53.0082 135.571 44.6832 115.537 44.6478 94.6358V94.6358Z" fill="#E94858"/>
<g style="mix-blend-mode:multiply">
<g style="mix-blend-mode:multiply" opacity="0.02">
<path d="M35.6631 149.838C29.6654 135.703 27.494 120.24 29.3672 105C31.2404 89.7607 37.0921 75.2829 46.3342 63.0219V63.0219C55.576 50.761 67.8825 41.1489 82.0166 35.1516C96.1508 29.1544 111.615 26.9834 126.854 28.8568V28.8568C142.093 30.7301 156.57 36.5817 168.831 45.8235C181.092 55.0652 190.704 67.3715 196.701 81.5055V81.5055C202.699 95.6397 204.87 111.104 202.997 126.343C201.124 141.582 195.272 156.06 186.03 168.321V168.321C176.788 180.582 164.482 190.194 150.348 196.192C136.214 202.189 120.75 204.36 105.511 202.486V202.486C90.2717 200.613 75.7943 194.761 63.5335 185.52C51.2726 176.278 41.6605 163.972 35.6631 149.838Z" fill="#FCFCFC"/>
</g>
<g style="mix-blend-mode:multiply" opacity="0.039">
<path d="M36.7487 148.675C30.8222 134.707 28.6767 119.426 30.5279 104.367C32.379 89.3076 38.1617 75.0009 47.2946 62.8849V62.8849C56.4274 50.7688 68.5886 41.2703 82.5559 35.3438C96.5232 29.4174 111.804 27.272 126.864 29.1232V29.1232C141.923 30.9746 156.229 36.7573 168.345 45.8902C180.461 55.0231 189.96 67.1844 195.886 81.1517V81.1517C201.812 95.1189 203.958 110.4 202.107 125.459C200.256 140.519 194.473 154.825 185.34 166.941V166.941C176.207 179.057 164.046 188.556 150.079 194.482C136.112 200.409 120.83 202.554 105.771 200.703V200.703C90.7119 198.852 76.4054 193.069 64.2894 183.936C52.1735 174.803 42.675 162.642 36.7487 148.675V148.675Z" fill="#F8F8F9"/>
</g>
<g style="mix-blend-mode:multiply" opacity="0.059">
<path d="M37.8348 147.512C31.9783 133.712 29.8579 118.612 31.6867 103.732C33.5156 88.8524 39.2292 74.716 48.2533 62.7442V62.7442C57.277 50.7726 69.293 41.3873 83.0936 35.5315C96.8941 29.6756 111.993 27.5557 126.872 29.3847C141.752 31.2137 155.888 36.9272 167.859 45.9508C179.831 54.9745 189.216 66.9903 195.072 80.7907V80.7907C200.928 94.5915 203.049 109.691 201.22 124.571C199.392 139.451 193.678 153.587 184.655 165.56V165.56C175.631 177.531 163.615 186.916 149.814 192.772C136.013 198.628 120.915 200.747 106.035 198.918V198.918C91.1555 197.089 77.0195 191.376 65.0479 182.352C53.0762 173.329 43.6907 161.313 37.8348 147.512V147.512Z" fill="#F5F5F5"/>
</g>
<g style="mix-blend-mode:multiply" opacity="0.078">
<path d="M38.922 146.35C33.1369 132.716 31.0426 117.8 32.8495 103.1C34.6565 88.4005 40.3009 74.4354 49.2156 62.6086V62.6086C58.1305 50.7817 70.0014 41.5098 83.6354 35.7249C97.2693 29.94 112.186 27.8459 126.886 29.6531C141.585 31.46 155.55 37.1044 167.377 46.0192C179.204 54.9339 188.476 66.8047 194.261 80.4385V80.4385C200.045 94.073 202.139 108.99 200.331 123.69C198.523 138.39 192.878 152.355 183.962 164.182V164.182C175.048 176.009 163.177 185.281 149.543 191.066C135.91 196.851 120.993 198.945 106.294 197.138V197.138C91.5943 195.33 77.6298 189.685 65.8036 180.77C53.9774 171.855 44.7063 159.984 38.922 146.35V146.35Z" fill="#F2F2F2"/>
</g>
<g style="mix-blend-mode:multiply" opacity="0.098">
<path d="M40.0079 145.188C34.2938 131.721 32.2252 116.987 34.0102 102.467C35.7951 87.9467 41.3707 74.1524 50.1764 62.4702V62.4702C58.9823 50.7882 70.708 41.63 84.1751 35.9159C97.6421 30.2019 112.376 28.1334 126.896 29.9183V29.9183C141.416 31.7033 155.21 37.2788 166.892 46.0846C178.574 54.8903 187.732 66.616 193.447 80.083V80.083C199.161 93.55 201.229 108.284 199.445 122.804C197.66 137.324 192.085 151.118 183.279 162.8V162.8C174.473 174.482 162.748 183.641 149.281 189.355C135.814 195.069 121.08 197.138 106.56 195.353V195.353C92.0397 193.568 78.2452 187.993 66.5629 179.187C54.8806 170.381 45.7221 158.655 40.0079 145.188Z" fill="#EFEFEF"/>
</g>
<g style="mix-blend-mode:multiply" opacity="0.118">
<path d="M41.0934 144.025C35.4502 130.724 33.4074 116.173 35.1703 101.833C36.9331 87.4931 42.4396 73.8698 51.1363 62.3324V62.3324C59.8329 50.7947 71.4134 41.7496 84.7137 36.1062C98.0141 30.4627 112.566 28.4198 126.906 30.1827C141.246 31.9455 154.869 37.4519 166.407 46.1487C177.944 54.8454 186.99 66.4259 192.633 79.7263V79.7263C198.276 93.0265 200.319 107.578 198.556 121.918C196.793 136.258 191.287 149.881 182.59 161.419V161.419C173.894 172.956 162.313 182.001 149.013 187.644C135.713 193.288 121.161 195.331 106.821 193.568V193.568C92.4812 191.805 78.8575 186.299 67.3198 177.602C55.7821 168.906 46.7369 157.325 41.0934 144.025V144.025Z" fill="#EBEBEC"/>
</g>
<g style="mix-blend-mode:multiply" opacity="0.137">
<path d="M42.1794 142.862C36.6068 129.729 34.5894 115.36 36.3302 101.2C38.0709 87.0395 43.5085 73.587 52.0962 62.1943V62.1943C60.6838 50.8015 72.119 41.8698 85.2525 36.2972C98.386 30.7246 112.755 28.7073 126.915 30.4481V30.4481C141.075 32.189 154.528 37.6266 165.92 46.2142C177.313 54.8019 186.244 66.2371 191.817 79.3704V79.3704C197.389 92.5039 199.407 106.873 197.666 121.033C195.925 135.193 190.488 148.646 181.9 160.039C173.312 171.431 161.877 180.363 148.744 185.936C135.61 191.508 121.241 193.525 107.081 191.785V191.785C92.9208 190.044 79.4685 184.606 68.0759 176.019C56.6834 167.431 47.752 155.996 42.1794 142.862V142.862Z" fill="#E8E8E8"/>
</g>
<g style="mix-blend-mode:multiply" opacity="0.157">
<path d="M43.2649 141.699C37.763 128.732 35.7712 114.546 37.4898 100.565C39.2083 86.5847 44.5767 73.3028 53.0552 62.0545V62.0545C61.534 50.8062 72.8242 41.9879 85.7912 36.486C98.7582 30.9841 112.945 28.9923 126.926 30.711V30.711C140.906 32.4297 154.188 37.7981 165.436 46.2767C176.684 54.7552 185.502 66.0452 191.005 79.0119V79.0119C196.506 91.9787 198.498 106.165 196.78 120.146C195.061 134.127 189.693 147.408 181.214 158.657V158.657C172.735 169.905 161.445 178.723 148.478 184.225C135.511 189.727 121.324 191.719 107.344 190V190C93.3633 188.282 80.0815 182.913 68.8334 174.435C57.5852 165.956 48.7669 154.666 43.2649 141.699V141.699Z" fill="#E5E5E5"/>
</g>
<g style="mix-blend-mode:multiply" opacity="0.176">
<path d="M44.3517 140.538C38.9207 127.738 36.9548 113.733 38.6518 99.9321C40.3487 86.1311 45.6485 73.0199 54.0187 61.9163V61.9163C62.3882 50.8127 73.5331 42.1077 86.3331 36.6765C99.1332 31.2452 113.137 29.279 126.938 30.9754V30.9754C140.739 32.6719 153.85 37.9712 164.953 46.3406C176.056 54.7101 184.761 65.8548 190.192 78.6547V78.6547C195.623 91.455 197.589 105.459 195.892 119.26C194.195 133.061 188.895 146.172 180.525 157.276C172.155 168.379 161.01 177.084 148.21 182.515C135.41 187.946 121.406 189.912 107.605 188.216C93.8047 186.519 80.6942 181.22 69.5909 172.851C58.4877 164.482 49.783 153.337 44.3517 140.538V140.538Z" fill="#E2E2E2"/>
</g>
<g style="mix-blend-mode:multiply" opacity="0.196">
<path d="M45.4379 139.375C40.0774 126.741 38.1368 112.92 39.8112 99.299C41.4855 85.6781 46.7158 72.7379 54.9764 61.7791C63.2368 50.8201 74.2364 42.2287 86.8697 36.8682C99.5029 31.5078 113.325 29.5673 126.946 31.2417V31.2417C140.566 32.9159 153.507 38.146 164.466 46.4065C175.424 54.6669 184.016 65.6666 189.376 78.2999V78.2999C194.737 90.9331 196.677 104.755 195.003 118.376C193.328 131.996 188.098 144.937 179.838 155.895V155.895C171.577 166.854 160.577 175.445 147.944 180.806C135.311 186.166 121.489 188.106 107.868 186.432V186.432C94.2473 184.758 81.3072 179.528 70.3484 171.267C59.3896 163.007 50.7982 152.008 45.4379 139.375V139.375Z" fill="#DEDEDF"/>
</g>
<g style="mix-blend-mode:multiply" opacity="0.216">
<path d="M46.5261 138.212C41.236 125.745 39.3209 112.106 40.9733 98.6646C42.6257 85.2233 47.7874 72.4539 55.9395 61.64V61.64C64.0904 50.8264 74.9442 42.3489 87.41 37.0596C99.8757 31.7703 113.514 29.8555 126.954 31.5077V31.5077C140.395 33.1591 153.164 38.3194 163.978 46.47C174.792 54.6205 183.271 65.4741 188.56 77.9398V77.9398C193.851 90.4061 195.766 104.045 194.114 117.487C192.461 130.928 187.3 143.697 179.148 154.511C170.997 165.324 160.143 173.801 147.677 179.091C135.212 184.38 121.573 186.295 108.133 184.643V184.643C94.6925 182.992 81.9235 177.831 71.1093 169.681C60.2951 161.53 51.8167 150.677 46.5261 138.212V138.212Z" fill="#DBDBDC"/>
</g>
<g style="mix-blend-mode:multiply" opacity="0.235">
<path d="M47.6094 137.049C42.3906 124.75 40.5014 111.293 42.1317 98.0314C43.762 84.77 48.8542 72.1714 56.8967 61.5018V61.5018C64.9392 50.8324 75.6484 42.4679 87.9481 37.249C100.248 32.0302 113.705 30.1409 126.966 31.7711V31.7711C140.228 33.4007 152.827 38.4925 163.497 46.5348C174.167 54.5771 182.532 65.2864 187.751 77.5864V77.5864C192.97 89.886 194.86 103.343 193.23 116.604C191.599 129.865 186.507 142.464 178.465 153.133V153.133C170.423 163.804 159.714 172.17 147.413 177.39C135.113 182.61 121.656 184.5 108.394 182.869V182.869C95.1316 181.239 82.5324 176.147 71.8625 168.103C61.1925 160.06 52.8279 149.35 47.6094 137.049V137.049Z" fill="#D8D8D8"/>
</g>
<g style="mix-blend-mode:multiply" opacity="0.255">
<path d="M48.6931 135.889C43.5449 123.756 41.6811 110.482 43.2891 97.4006C44.8971 84.3191 49.9201 71.8913 57.8534 61.3664C65.7868 50.8415 76.351 42.5904 88.484 37.4423C100.617 32.2943 113.891 30.4307 126.973 32.0388C140.055 33.647 152.484 38.6708 163.009 46.605C173.534 54.5391 181.785 65.1042 186.933 77.2382C192.081 89.3712 193.945 102.646 192.336 115.727C190.728 128.809 185.705 141.237 177.772 151.761C169.838 162.286 159.274 170.538 147.141 175.686C135.008 180.834 121.734 182.697 108.652 181.089C95.5699 179.481 83.1416 174.457 72.6165 166.523C62.0915 158.588 53.8405 148.023 48.6931 135.889Z" fill="#D4D5D5"/>
</g>
<g style="mix-blend-mode:multiply" opacity="0.275">
<path d="M49.7817 134.725C44.7044 122.759 42.8663 109.667 44.4523 96.765C46.0383 83.8633 50.9925 71.6063 58.8169 61.226V61.226C66.6412 50.8458 77.0599 42.708 89.026 37.6306C100.992 32.5532 114.084 30.715 126.986 32.3009V32.3009C139.887 33.887 152.143 38.841 162.523 46.665C172.903 54.4891 181.041 64.9074 186.118 76.8732V76.8732C191.196 88.8393 193.034 101.931 191.448 114.833C189.862 127.735 184.908 139.992 177.084 150.372C169.26 160.752 158.841 168.89 146.875 173.967C134.909 179.044 121.817 180.883 108.915 179.297V179.297C96.0141 177.711 83.7575 172.757 73.3774 164.933C62.9973 157.109 54.8595 146.691 49.7817 134.725V134.725Z" fill="#D1D1D2"/>
</g>
<g style="mix-blend-mode:multiply" opacity="0.294">
<path d="M50.8664 133.558C45.8598 121.759 44.0472 108.85 45.6108 96.1279C47.1744 83.4062 52.0592 71.3203 59.7741 61.0847V61.0847C67.4894 50.8491 77.763 42.8248 89.5625 37.8181C101.362 32.8115 114.271 30.999 126.993 32.5628V32.5628C139.715 34.1267 151.801 39.0118 162.036 46.727C172.272 54.4421 180.296 64.7156 185.303 76.5149V76.5149C190.31 88.3141 192.122 101.223 190.559 113.945C188.995 126.667 184.11 138.753 176.396 148.989V148.989C168.68 159.225 158.407 167.249 146.607 172.256C134.808 177.262 121.898 179.075 109.176 177.511C96.4545 175.947 84.3683 171.062 74.1328 163.347C63.8972 155.631 55.8729 145.357 50.8664 133.558V133.558Z" fill="#CECECF"/>
</g>
<g style="mix-blend-mode:multiply" opacity="0.314">
<path d="M51.9541 132.399C47.0186 120.767 45.232 108.04 46.7739 95.4982C48.3158 82.9564 53.1318 71.0413 60.7379 60.9506C68.3441 50.8598 78.4725 42.9489 90.105 38.0131C101.738 33.0773 114.464 31.2904 127.007 32.8322C139.549 34.3737 151.464 39.1896 161.555 46.7958C171.646 54.402 179.557 64.5305 184.493 76.1632C189.428 87.7957 191.215 100.522 189.673 113.064C188.131 125.606 183.315 137.521 175.709 147.612C168.103 157.703 157.974 165.614 146.341 170.55C134.709 175.486 121.981 177.273 109.439 175.731C96.8973 174.189 84.9821 169.373 74.8914 161.767C64.8006 154.16 56.8898 144.032 51.9541 132.399Z" fill="#CBCBCC"/>
</g>
<g style="mix-blend-mode:multiply" opacity="0.333">
<path d="M53.0401 131.236C48.1751 119.77 46.414 107.226 47.9337 94.8637C49.4534 82.5014 54.2003 70.757 61.6974 60.8108V60.8108C69.1948 50.8645 79.1782 43.0669 90.6443 38.2017C102.11 33.3366 114.655 31.5754 127.017 33.0951V33.0951C139.38 34.6149 151.125 39.3623 161.072 46.86C171.018 54.3578 178.816 64.3416 183.68 75.8082C188.545 87.274 190.307 99.8185 188.787 112.181C187.267 124.543 182.52 136.288 175.023 146.234C167.526 156.18 157.542 163.977 146.077 168.842C134.611 173.707 122.066 175.469 109.704 173.949V173.949C97.341 172.429 85.596 167.682 75.6493 160.185C65.7027 152.687 57.905 142.703 53.0401 131.236Z" fill="#C7C8C8"/>
</g>
<g style="mix-blend-mode:multiply" opacity="0.353">
<path d="M54.1254 130.073C49.331 118.774 47.5954 106.412 49.0929 94.2295C50.5905 82.0471 55.2685 70.4734 62.6567 60.6719V60.6719C70.0448 50.8702 79.8828 43.1858 91.1819 38.3914C102.481 33.5969 114.843 31.8613 127.026 33.3589C139.208 34.8566 150.782 39.5346 160.583 46.9229C170.385 54.3111 178.069 64.1493 182.863 75.4484V75.4484C187.657 86.7476 189.393 99.1096 187.895 111.292C186.398 123.474 181.72 135.048 174.332 144.85C166.944 154.652 157.106 162.336 145.807 167.13C134.508 171.925 122.145 173.66 109.963 172.163V172.163C97.7803 170.665 86.2066 165.987 76.4051 158.599C66.6036 151.211 58.9196 141.372 54.1254 130.073V130.073Z" fill="#C4C4C5"/>
</g>
<g style="mix-blend-mode:multiply" opacity="0.373">
<path d="M55.2118 128.912C50.4883 117.78 48.7783 105.6 50.2537 93.5972C51.7292 81.5946 56.338 70.1917 63.617 60.5347V60.5347C70.8961 50.8779 80.5889 43.3072 91.7212 38.5836C102.853 33.86 115.033 32.1499 127.036 33.6252V33.6252C139.039 35.1006 150.441 39.7096 160.098 46.9889C169.755 54.2681 177.326 63.9611 182.05 75.0937V75.0937C186.773 86.226 188.483 98.4056 187.008 110.408C185.532 122.411 180.923 133.814 173.644 143.471C166.365 153.128 156.673 160.699 145.54 165.422C134.408 170.146 122.228 171.856 110.226 170.38V170.38C98.2228 168.905 86.8198 164.296 77.1628 157.017C67.5059 149.737 59.9352 140.044 55.2118 128.912V128.912Z" fill="#C1C1C2"/>
</g>
<g style="mix-blend-mode:multiply" opacity="0.392">
<path d="M56.298 127.75C51.6452 116.784 49.9609 104.787 51.4143 92.9639C52.8678 81.1409 57.4078 69.9088 64.578 60.3965V60.3965C71.7481 50.8842 81.2957 43.4269 92.2614 38.774C103.227 34.1212 115.224 32.4368 127.047 33.8901V33.8901C138.87 35.3434 150.102 39.8832 159.615 47.0532C169.127 54.2233 176.584 63.771 181.237 74.7366V74.7366C185.89 85.7022 187.574 97.6993 186.121 109.522C184.668 121.345 180.128 132.577 172.958 142.089V142.089C165.788 151.602 156.24 159.059 145.275 163.712C134.309 168.365 122.312 170.049 110.489 168.596V168.596C98.6658 167.143 87.4335 162.603 77.921 155.433C68.4085 148.263 60.951 138.716 56.298 127.75V127.75Z" fill="#BEBEBF"/>
</g>
<g style="mix-blend-mode:multiply" opacity="0.412">
<path d="M57.384 126.588C52.802 115.789 51.1431 103.974 52.5743 92.331C54.0055 80.6879 58.4762 69.6266 65.5371 60.2589V60.2589C72.5982 50.8912 82.0008 43.5473 92.7997 38.9652C103.599 34.3831 115.413 32.7244 127.057 34.1556V34.1556C138.699 35.5875 149.76 40.0587 159.127 47.1198C168.494 54.1809 175.837 63.5832 180.419 74.3817V74.3817C185.002 85.1797 186.661 96.9937 185.231 108.636C183.801 120.279 179.331 131.34 172.272 140.708V140.708C165.211 150.076 155.808 157.419 145.009 162.001C134.211 166.583 122.396 168.242 110.753 166.811V166.811C99.1095 165.381 88.0477 160.91 78.6794 153.85C69.3112 146.789 61.9666 137.387 57.384 126.588V126.588Z" fill="#BABBBB"/>
</g>
<g style="mix-blend-mode:multiply" opacity="0.431">
<path d="M58.4696 125.424C53.9583 114.792 52.3252 103.16 53.7344 91.6964C55.1436 80.233 59.5454 69.3426 66.4975 60.1196V60.1196C73.4495 50.8966 82.7068 43.6662 93.3389 39.1549C103.971 34.6437 115.603 33.0106 127.067 34.4198C138.53 35.8289 149.42 40.2306 158.643 47.1826C167.866 54.1346 175.096 63.3918 179.607 74.0239V74.0239C184.119 84.6562 185.752 96.2887 184.343 107.752C182.933 119.216 178.531 130.106 171.579 139.329C164.627 148.552 155.369 155.783 144.737 160.294C134.105 164.805 122.473 166.438 111.01 165.029V165.029C99.5464 163.62 88.6563 159.218 79.4336 152.266C70.211 145.314 62.9807 136.056 58.4696 125.424V125.424Z" fill="#B7B7B8"/>
</g>
<g style="mix-blend-mode:multiply" opacity="0.451">
<path d="M59.5567 124.262C55.1161 113.797 53.5085 102.347 54.8953 91.0641C56.2821 79.7808 60.6145 69.0613 67.4571 59.983C74.3002 50.9047 83.4124 43.7877 93.8778 39.3472C104.343 34.9067 115.793 33.2992 127.077 34.6863V34.6863C138.36 36.0734 149.08 40.4062 158.158 47.2491C167.236 54.0921 174.353 63.2041 178.794 73.6694V73.6694C183.235 84.1348 184.842 95.5847 183.455 106.868C182.068 118.152 177.735 128.872 170.892 137.95V137.95C164.049 147.028 154.937 154.146 144.472 158.586C134.006 163.027 122.556 164.634 111.273 163.247C99.9892 161.859 89.2697 157.526 80.1917 150.683C71.1136 143.84 63.9969 134.727 59.5567 124.262V124.262Z" fill="#B4B4B5"/>
</g>
<g style="mix-blend-mode:multiply" opacity="0.471">
<path d="M60.6439 123.103C56.2743 112.804 54.6925 101.536 56.0575 90.4326C57.4224 79.3289 61.6859 68.78 68.4196 59.8461V59.8461C75.154 50.912 84.1215 43.908 94.4208 39.5381C104.72 35.1682 115.988 33.5862 127.092 34.9514C138.196 36.3168 148.745 40.5807 157.678 47.3147C166.612 54.0486 173.615 63.0154 177.985 73.3138V73.3138C182.355 83.6124 183.936 94.8797 182.571 105.983C181.206 117.087 176.943 127.636 170.209 136.569V136.569C163.475 145.503 154.507 152.507 144.208 156.877C133.909 161.247 122.641 162.829 111.536 161.464V161.464C100.433 160.099 89.8845 155.835 80.9511 149.101C72.0177 142.367 65.014 133.401 60.6439 123.103V123.103Z" fill="#B0B1B2"/>
</g>
<g style="mix-blend-mode:multiply" opacity="0.49">
<path d="M61.7281 121.937C57.4292 111.805 55.8729 100.72 57.2158 89.7962C58.5586 78.8723 62.7533 68.4943 69.3782 59.7054V59.7054C76.0031 50.9164 84.8247 44.0261 94.9566 39.727C105.088 35.428 116.173 33.8716 127.097 35.2144V35.2144C138.021 36.5572 148.399 40.7519 157.188 47.3767C165.977 54.0015 172.867 62.8231 177.166 72.9548V72.9548C181.465 83.0866 183.022 94.1715 181.679 105.095C180.336 116.019 176.141 126.397 169.516 135.186V135.186C162.891 143.975 154.07 150.865 143.938 155.165C133.806 159.464 122.721 161.02 111.797 159.677V159.677C100.873 158.334 90.4954 154.14 81.7064 147.515C72.9175 140.89 66.0272 132.068 61.7281 121.937V121.937Z" fill="#ADAEAF"/>
</g>
<g style="mix-blend-mode:multiply" opacity="0.51">
<path d="M62.8141 120.775C58.5857 110.81 57.055 99.9071 58.3757 89.1629C59.6964 78.4188 63.8222 68.2117 70.3381 59.5675C76.8541 50.9232 85.5307 44.1463 95.4958 39.918C105.461 35.6897 116.363 34.1589 127.108 35.4796V35.4796C137.852 36.8004 148.059 40.926 156.703 47.4419C165.347 53.9578 172.124 62.6343 176.352 72.5993V72.5993C180.581 82.5643 182.111 93.4668 180.791 104.211C179.47 114.955 175.344 125.162 168.828 133.806V133.806C162.312 142.451 153.636 149.228 143.671 153.456C133.706 157.684 122.803 159.215 112.059 157.894V157.894C101.315 156.573 91.1076 152.448 82.4634 145.932C73.8191 139.416 67.0423 130.74 62.8141 120.775V120.775Z" fill="#AAAAAB"/>
</g>
<g style="mix-blend-mode:multiply" opacity="0.529">
<path d="M63.9001 119.612C59.7424 109.814 58.2372 99.0941 59.5358 88.5298C60.8344 77.9654 64.8911 67.9291 71.298 59.4295V59.4295C77.7047 50.9301 86.2357 44.2669 96.0337 40.1096C105.832 35.9523 116.551 34.4473 127.115 35.746C137.68 37.0444 147.716 41.1009 156.216 47.5078C164.716 53.9146 171.379 62.446 175.537 72.2445V72.2445C179.694 82.0427 181.199 92.7628 179.901 103.327C178.602 113.891 174.546 123.928 168.139 132.427C161.732 140.927 153.201 147.59 143.403 151.747C133.605 155.905 122.885 157.41 112.321 156.111V156.111C101.757 154.813 91.7203 150.756 83.2206 144.349C74.7209 137.942 68.0574 129.411 63.9001 119.612V119.612Z" fill="#A7A7A8"/>
</g>
<g style="mix-blend-mode:multiply" opacity="0.549">
<path d="M64.9864 118.45C60.8999 108.818 59.4209 98.2799 60.6982 87.895C61.9755 77.5101 65.964 67.6444 72.2628 59.2896C78.5606 50.9345 86.9468 44.3844 96.5785 40.2977C106.21 36.211 116.748 34.7316 127.132 36.0083C137.518 37.285 147.384 41.2731 155.739 47.5716C164.095 53.8702 170.645 62.2574 174.731 71.8899V71.8899C178.817 81.5221 180.296 92.0603 179.019 102.445C177.742 112.83 173.753 122.696 167.454 131.051V131.051C161.156 139.406 152.77 145.956 143.139 150.042C133.507 154.129 122.969 155.608 112.585 154.332V154.332C102.199 153.055 92.3333 149.067 83.978 142.768C75.6227 136.47 69.0727 128.083 64.9864 118.45V118.45Z" fill="#A3A4A5"/>
</g>
<g style="mix-blend-mode:multiply" opacity="0.569">
<path d="M66.0727 117.287C62.0568 107.822 60.603 97.4666 61.8575 87.2618C63.1121 77.057 67.0306 67.3622 73.2194 59.1519V59.1519C79.4083 50.9417 87.6493 44.5053 97.114 40.4894C106.579 36.4735 116.934 35.0197 127.139 36.2742V36.2742C137.343 37.5286 147.037 41.4468 155.248 47.6352C163.458 53.8235 169.894 62.064 173.911 71.5282C177.927 80.9931 179.38 91.3483 178.126 101.553C176.871 111.758 172.953 121.453 166.764 129.663V129.663C160.575 137.873 152.334 144.31 142.87 148.326C133.405 152.342 123.05 153.795 112.845 152.541V152.541C102.64 151.287 92.9459 147.368 84.7357 141.18C76.5255 134.992 70.0889 126.751 66.0727 117.287V117.287Z" fill="#A0A1A2"/>
</g>
<g style="mix-blend-mode:multiply" opacity="0.588">
<path d="M67.1584 116.124C63.2127 106.825 61.7842 96.6523 63.0164 86.6269C64.2486 76.6015 68.0983 67.0772 74.1783 59.0112C80.258 50.9454 88.3537 44.6222 97.6517 40.6769C106.95 36.7316 117.122 35.3033 127.147 36.5357C137.172 37.768 146.696 41.6174 154.762 47.6972C162.828 53.777 169.151 61.8728 173.096 71.1709C177.042 80.4692 178.47 90.6423 177.238 100.668C176.006 110.693 172.156 120.217 166.076 128.283C159.996 136.349 151.901 142.672 142.602 146.617C133.304 150.562 123.132 151.991 113.107 150.758V150.758C103.082 149.526 93.5581 145.676 85.4925 139.597C77.4269 133.517 71.1037 125.421 67.1584 116.124V116.124Z" fill="#9D9D9F"/>
</g>
<g style="mix-blend-mode:multiply" opacity="0.608">
<path d="M68.2442 114.961C64.3708 105.831 62.969 95.841 64.1795 85.9967C65.3901 76.1523 69.1704 66.8 75.1407 58.8796C81.1113 50.9587 89.0617 44.7489 98.1929 40.8744C107.324 37 117.314 35.5974 127.159 36.8076V36.8076C137.004 38.0173 146.357 41.7969 154.278 47.7667C162.199 53.7364 168.409 61.686 172.284 70.8163V70.8163C176.158 79.9472 177.56 89.9368 176.349 99.7811C175.138 109.625 171.358 118.978 165.388 126.898V126.898C159.417 134.819 151.467 141.029 142.335 144.903C133.204 148.778 123.214 150.18 113.369 148.97V148.97C103.524 147.76 94.1717 143.981 86.2507 138.011C78.3296 132.041 72.1194 124.092 68.2442 114.961V114.961Z" fill="#999A9B"/>
</g>
<g style="mix-blend-mode:multiply" opacity="0.627">
<path d="M69.3322 113.799C65.5287 104.834 64.1518 95.0263 65.34 85.361C66.5282 75.6958 70.2395 66.5135 76.101 58.7372C81.9628 50.961 89.7682 44.8648 98.7327 41.0611C107.697 37.2574 117.505 35.8804 127.17 37.0683C136.836 38.2565 146.018 41.968 153.794 47.8298C161.571 53.6916 167.667 61.4971 171.471 70.4618C175.275 79.4262 176.652 89.234 175.463 98.8993C174.275 108.565 170.564 117.747 164.702 125.523V125.523C158.84 133.299 151.035 139.396 142.071 143.2C133.106 147.003 123.298 148.38 113.633 147.192V147.192C103.967 146.004 94.7849 142.292 87.0085 136.431C79.2321 130.569 73.1357 122.763 69.3322 113.799V113.799Z" fill="#969798"/>
</g>
<g style="mix-blend-mode:multiply" opacity="0.647">
<path d="M70.4166 112.637C66.6838 103.839 65.3325 94.2141 66.4985 84.7286C67.6646 75.2432 71.3069 66.2317 77.0594 58.6V58.6C82.812 50.9682 90.4721 44.9851 99.2698 41.252C108.068 37.5189 117.693 36.1674 127.179 37.3334V37.3334C136.665 38.4989 145.676 42.1409 153.309 47.8934C160.941 53.6459 166.924 61.306 170.657 70.104V70.104C174.39 78.9017 175.741 88.527 174.575 98.0125C173.409 107.498 169.767 116.509 164.014 124.141C158.262 131.773 150.602 137.756 141.804 141.489C133.006 145.222 123.38 146.573 113.895 145.407C104.409 144.241 95.3975 140.599 87.7654 134.847C80.1334 129.095 74.15 121.435 70.4166 112.637V112.637Z" fill="#939495"/>
</g>
<g style="mix-blend-mode:multiply" opacity="0.667">
<path d="M71.5002 111.475C67.8389 102.844 66.5138 93.4021 67.658 84.0971C68.8021 74.7921 72.3753 65.9522 78.0185 58.4657V58.4657C83.6619 50.9786 91.1767 45.1089 99.8077 41.4466C108.439 37.7844 117.881 36.4586 127.187 37.6026V37.6026C136.493 38.7465 145.334 42.3198 152.821 47.9635C160.308 53.6071 166.177 61.1221 169.84 69.7532V69.7532C173.502 78.3842 174.827 87.8271 173.683 97.1328C172.54 106.438 168.966 115.279 163.323 122.766V122.766C157.679 130.253 150.164 136.123 141.533 139.785C132.902 143.447 123.459 144.773 114.154 143.628V143.628C104.847 142.484 96.0062 138.911 88.5188 133.267C81.0315 127.623 75.1619 120.107 71.5002 111.475V111.475Z" fill="#909092"/>
</g>
<g style="mix-blend-mode:multiply" opacity="0.686">
<path d="M72.5888 110.312C68.9973 101.847 67.6972 92.5869 68.819 83.4609C69.9408 74.335 73.445 65.6652 78.9794 58.3228V58.3228C84.5139 50.9803 91.8836 45.2241 100.348 41.6326C108.812 38.0411 118.073 36.741 127.199 37.8628V37.8628C136.324 38.9848 144.994 42.4892 152.336 48.0236C159.679 53.5581 165.435 60.9277 169.026 69.3918V69.3918C172.618 77.856 173.918 87.1164 172.796 96.2423C171.674 105.368 168.17 114.038 162.636 121.381C157.101 128.723 149.731 134.479 141.267 138.071C132.803 141.662 123.542 142.962 114.416 141.841C105.291 140.719 96.6208 137.214 89.2785 131.68C81.9363 126.145 76.1802 118.776 72.5888 110.312Z" fill="#8C8D8E"/>
</g>
<g style="mix-blend-mode:multiply" opacity="0.706">
<path d="M73.6748 109.149C70.1541 100.852 68.8796 91.7737 69.9794 82.8274C71.0792 73.8812 74.5146 65.3821 79.9403 58.1844C85.3657 50.9867 92.5902 45.344 100.888 41.8234C109.185 38.3027 118.263 37.0282 127.209 38.1279V38.1279C136.155 39.2276 144.654 42.6629 151.852 48.0884C159.05 53.5139 164.693 60.7384 168.213 69.0359V69.0359C171.734 77.3334 173.008 86.4113 171.909 95.3574C170.809 104.304 167.374 112.803 161.949 120C156.523 127.198 149.299 132.841 141.001 136.361C132.704 139.882 123.626 141.157 114.68 140.057V140.057C105.734 138.957 97.2343 135.522 90.0364 130.097C82.8385 124.671 77.1956 117.447 73.6748 109.149V109.149Z" fill="#898A8B"/>
</g>
<g style="mix-blend-mode:multiply" opacity="0.725">
<path d="M74.7609 107.987C71.3109 99.8564 70.062 90.9607 71.1397 82.1943C72.2174 73.4279 75.5837 65.0995 80.9003 58.0465V58.0465C86.2167 50.9934 93.2961 45.4641 101.427 42.0142C109.558 38.5643 118.453 37.3154 127.219 38.3931C135.986 39.4706 144.314 42.8368 151.368 48.1533C158.421 53.4698 163.95 60.5492 167.4 68.68V68.68C170.85 76.8108 172.099 85.7064 171.021 94.4728C169.943 103.239 166.577 111.567 161.261 118.621C155.944 125.674 148.865 131.203 140.734 134.653C132.603 138.103 123.708 139.352 114.942 138.274V138.274C106.175 137.197 97.8467 133.83 90.7935 128.514C83.7403 123.197 78.2108 116.118 74.7609 107.987V107.987Z" fill="#868788"/>
</g>
<g style="mix-blend-mode:multiply" opacity="0.745">
<path d="M75.8468 106.824C72.4681 98.8602 71.2451 90.1473 72.3008 81.561C73.3565 72.9748 76.6536 64.8176 81.8609 57.9094V57.9094C87.0683 51.001 94.0025 45.585 101.966 42.2057C109.93 38.8264 118.644 37.6029 127.23 38.6583V38.6583C135.817 39.7138 143.974 43.0111 150.883 48.2186C157.791 53.4261 163.207 60.3603 166.586 68.3244V68.3244C169.965 76.2883 171.189 85.0014 170.133 93.5879C169.077 102.174 165.78 110.332 160.573 117.24V117.24C155.365 124.148 148.431 129.564 140.467 132.944C132.503 136.323 123.79 137.546 115.203 136.49C106.616 135.435 98.4587 132.138 91.5503 126.93C84.6418 121.723 79.2258 114.788 75.8468 106.824V106.824Z" fill="#838385"/>
</g>
<g style="mix-blend-mode:multiply" opacity="0.765">
<path d="M76.9322 105.661C73.6239 97.8638 72.4263 89.3332 73.4598 80.9265C74.4933 72.5199 77.7215 64.5333 82.8199 57.7696V57.7696C87.9183 51.006 94.7072 45.7035 102.504 42.3951C110.301 39.0866 118.832 37.8888 127.239 38.922C135.645 39.9562 143.631 43.1849 150.394 48.2836C157.157 53.3822 162.459 60.1711 165.766 67.9681V67.9681C169.075 75.7653 170.272 84.2959 169.239 92.7026C168.205 101.109 164.977 109.096 159.879 115.859V115.859C154.78 122.623 147.992 127.926 140.194 131.234C132.397 134.543 123.867 135.74 115.46 134.707C107.054 133.673 99.0679 130.444 92.3049 125.345C85.5419 120.247 80.2401 113.458 76.9322 105.661V105.661Z" fill="#7F8082"/>
</g>
<g style="mix-blend-mode:multiply" opacity="0.784">
<path d="M78.0183 104.499C74.7803 96.869 73.6076 88.5212 74.618 80.2946C75.6285 72.0679 78.7866 64.2521 83.7749 57.6327V57.6327C88.7642 51.0136 95.4079 45.8244 103.038 42.5867C110.669 39.349 119.017 38.1768 127.244 39.1881V39.1881C135.471 40.1995 143.287 43.3586 149.906 48.3479C156.525 53.3373 161.714 59.9812 164.952 67.6117V67.6117C168.19 75.2414 169.363 83.5889 168.352 91.8155C167.341 100.042 164.183 107.858 159.195 114.477V114.477C154.206 121.096 147.562 126.285 139.932 129.523C132.301 132.761 123.953 133.933 115.726 132.921V132.921C107.499 131.91 99.6832 128.751 93.0642 123.762C86.4451 118.773 81.256 112.129 78.0183 104.499V104.499Z" fill="#7C7D7E"/>
</g>
<g style="mix-blend-mode:multiply" opacity="0.804">
<path d="M79.1045 103.338C75.9377 95.874 74.7912 87.7082 75.7805 79.6611C76.7697 71.6139 79.8598 63.969 84.7401 57.4946V57.4946C89.6203 51.02 96.119 45.9442 103.583 42.7772C111.047 39.6103 119.212 38.4638 127.26 39.4532C135.307 40.4425 142.952 43.5326 149.426 48.4128C155.9 53.2931 160.976 59.7916 164.143 67.2551C167.31 74.7194 168.455 82.8857 167.465 90.9332C166.475 98.9807 163.384 106.626 158.503 113.1C153.622 119.574 147.124 124.65 139.66 127.817C132.196 130.984 124.03 132.131 115.983 131.141V131.141C107.937 130.151 100.292 127.061 93.819 122.18C87.3454 117.299 82.2706 110.801 79.1045 103.338V103.338Z" fill="#797A7B"/>
</g>
<g style="mix-blend-mode:multiply" opacity="0.824">
<path d="M80.1911 102.174C77.095 94.8766 75.9745 86.8926 76.9424 79.0246C77.9102 71.1567 80.9323 63.6822 85.7048 57.3526V57.3526C90.4759 51.0227 96.8292 46.0603 104.126 42.964C111.423 39.8677 119.406 38.7468 127.274 39.7137V39.7137C135.141 40.6818 142.615 43.7037 148.944 48.4758C155.273 53.2478 160.235 59.6018 163.33 66.8992C166.426 74.1961 167.547 82.1794 166.58 90.0467C165.613 97.9141 162.592 105.388 157.82 111.718V111.718C153.049 118.048 146.696 123.01 139.399 126.106C132.102 129.202 124.119 130.323 116.251 129.356C108.384 128.389 100.909 125.368 94.5793 120.596C88.2494 115.825 83.2871 109.471 80.1911 102.174V102.174Z" fill="#757678"/>
</g>
<g style="mix-blend-mode:multiply" opacity="0.843">
<path d="M81.2768 101.011C78.2515 93.8809 77.1563 86.08 78.1012 78.3925C79.0462 70.705 81.9981 63.4016 86.6602 57.2165V57.2165C91.3223 51.0312 97.5305 46.1822 104.661 43.1567C111.791 40.1312 119.592 39.0358 127.279 39.9808V39.9808C134.968 40.926 142.272 43.8784 148.457 48.5414C154.642 53.2043 159.491 59.4135 162.516 66.5445V66.5445C165.542 73.6747 166.637 81.4755 165.692 89.163C164.747 96.8506 161.795 104.154 157.133 110.339V110.339C152.471 116.524 146.262 121.373 139.132 124.398C132.002 127.424 124.201 128.519 116.513 127.574C108.825 126.629 101.521 123.676 95.3361 119.014C89.1507 114.351 84.3019 108.142 81.2768 101.011Z" fill="#727375"/>
</g>
<g style="mix-blend-mode:multiply" opacity="0.863">
<path d="M82.3628 99.8488C79.4082 92.8853 78.3387 85.2669 79.2617 77.759C80.1848 70.2512 83.0678 63.1187 87.621 57.0782V57.0782C92.1741 51.0378 98.237 46.3023 105.2 43.3476C112.164 40.3929 119.782 39.3232 127.29 40.246V40.246C134.797 41.169 141.929 44.0517 147.969 48.6045C154.009 53.1573 158.745 59.2198 161.699 66.1826V66.1826C164.654 73.1459 165.724 80.7643 164.801 88.272C163.878 95.7798 160.995 102.912 156.442 108.953V108.953C151.889 114.993 145.826 119.729 138.863 122.683C131.899 125.638 124.281 126.707 116.773 125.784V125.784C109.266 124.861 102.134 121.979 96.0933 117.426C90.0531 112.874 85.3176 106.812 82.3628 99.8488V99.8488Z" fill="#6F7072"/>
</g>
<g style="mix-blend-mode:multiply" opacity="0.882">
<path d="M83.4489 98.6866C80.5652 91.89 79.5214 84.4541 80.4223 77.1262C81.3233 69.7983 84.1373 62.8368 88.5815 56.9411V56.9411C93.0257 51.0453 98.9435 46.4232 105.74 43.5393C112.537 40.6554 119.973 39.6113 127.301 40.512V40.512C134.629 41.4132 141.591 44.2276 147.487 48.6725C153.383 53.1174 158.005 59.036 160.888 65.8334V65.8334C163.772 72.6299 164.816 80.0657 163.915 87.3935C163.014 94.7213 160.201 101.683 155.757 107.579V107.579C151.313 113.474 145.395 118.097 138.598 120.981C131.802 123.864 124.366 124.909 117.038 124.008V124.008C109.709 123.107 102.747 120.293 96.8504 115.848C90.9543 111.403 86.3322 105.484 83.4489 98.6866V98.6866Z" fill="#6C6D6E"/>
</g>
<g style="mix-blend-mode:multiply" opacity="0.902">
<path d="M84.535 97.5245C81.7219 90.8946 80.7035 83.6409 81.5823 76.4927C82.461 69.3444 85.2059 62.5534 89.541 56.8022V56.8022C93.8761 51.0512 99.6486 46.5425 106.278 43.7294C112.908 40.9163 120.162 39.898 127.31 40.7767V40.7767C134.459 41.6546 141.25 44.3989 147.002 48.7338C152.754 53.0686 157.263 58.8413 160.077 65.4714V65.4714C162.891 72.1011 163.91 79.3547 163.031 86.503C162.152 93.6513 159.407 100.442 155.072 106.193C150.737 111.945 144.965 116.454 138.335 119.267C131.705 122.08 124.451 123.098 117.303 122.219V122.219C110.154 121.342 103.362 118.598 97.6099 114.263C91.8577 109.928 87.3483 104.155 84.535 97.5245Z" fill="#68696B"/>
</g>
<g style="mix-blend-mode:multiply" opacity="0.922">
<path d="M85.6205 96.3613C82.8782 89.8981 81.8854 82.8269 82.742 75.8585C83.5986 68.89 86.2744 62.2698 90.5005 56.6632V56.6632C94.7266 51.0568 100.354 46.6616 106.817 43.9193C113.28 41.177 120.351 40.1842 127.32 41.0408V41.0408C134.288 41.8973 140.908 44.5732 146.515 48.7993C152.121 53.0255 156.517 58.6531 159.259 65.1163V65.1163C162.001 71.5795 162.994 78.6507 162.137 85.6192C161.281 92.5876 158.605 99.2079 154.379 104.814V104.814C150.153 110.421 144.525 114.816 138.062 117.559C131.599 120.301 124.528 121.294 117.56 120.437V120.437C110.591 119.58 103.971 116.904 98.3645 112.678C92.758 108.452 88.3627 102.825 85.6205 96.3613V96.3613Z" fill="#656668"/>
</g>
<g style="mix-blend-mode:multiply" opacity="0.941">
<path d="M86.7075 95.199C84.0359 88.9026 83.0687 82.0138 83.9032 75.2251C84.7377 68.4364 87.3444 61.987 91.4615 56.5251C95.5786 51.0633 101.061 46.7815 107.357 44.11C113.654 41.4384 120.542 40.4713 127.331 41.3058V41.3058C134.12 42.1403 140.569 44.7472 146.031 48.8642C151.492 52.9813 155.774 58.4634 158.446 64.7598V64.7598C161.117 71.0561 162.084 77.9446 161.249 84.7331C160.415 91.5216 157.808 97.9709 153.691 103.433V103.433C149.574 108.894 144.091 113.175 137.794 115.846C131.497 118.517 124.609 119.484 117.82 118.648V118.648C111.032 117.814 104.584 115.208 99.1225 111.091C93.6612 106.975 89.3795 101.494 86.7075 95.199V95.199Z" fill="#626365"/>
</g>
<g style="mix-blend-mode:multiply" opacity="0.961">
<path d="M87.7929 94.0357C85.1922 87.9061 84.2507 81.2 85.0631 74.5912C85.8755 67.9825 88.4132 61.704 92.4212 56.3869V56.3869C96.4291 51.0698 101.766 46.9013 107.896 44.3004C114.025 41.6995 120.731 40.7579 127.34 41.5701V41.5701C133.949 42.3827 140.227 44.9205 145.544 48.9285C150.862 52.9365 155.03 58.2734 157.631 64.403V64.403C160.232 70.5326 161.173 77.2387 160.361 83.8474C159.548 90.4562 157.01 96.7346 153.003 102.052V102.052C148.995 107.369 143.658 111.537 137.528 114.138C131.398 116.739 124.692 117.68 118.083 116.868V116.868C111.475 116.055 105.196 113.518 99.8793 109.51C94.5622 105.502 90.3938 100.165 87.7929 94.0357V94.0357Z" fill="#5F6061"/>
</g>
<g style="mix-blend-mode:multiply" opacity="0.98">
<path d="M88.8791 92.8736C86.349 86.9107 85.4332 80.3869 86.2236 73.9578C87.0141 67.5288 89.483 61.4211 93.3822 56.2487V56.2487C97.2811 51.0761 102.473 47.021 108.436 44.4909C114.399 41.9608 120.922 41.0448 127.351 41.8351V41.8351C133.78 42.6256 139.888 45.0943 145.06 48.9932C150.232 52.8921 154.287 58.0837 156.817 64.0463V64.0463C159.347 70.0093 160.263 76.5331 159.473 82.9621C158.682 89.3911 156.213 95.4987 152.314 100.671C148.415 105.844 143.224 109.899 137.261 112.429C131.298 114.959 124.774 115.875 118.345 115.084C111.916 114.294 105.809 111.825 100.636 107.926C95.4642 104.028 91.4092 98.8361 88.8791 92.8736V92.8736Z" fill="#5B5C5E"/>
</g>
<g style="mix-blend-mode:multiply">
<path d="M89.965 91.7114C87.5058 85.9153 86.6157 79.5739 87.384 73.3247C88.1523 67.0755 90.5521 61.1386 94.3421 56.1107V56.1107C98.132 51.083 103.178 47.1414 108.974 44.6821C114.77 42.2229 121.112 41.3325 127.361 42.1006V42.1006C133.61 42.8688 139.547 45.2684 144.575 49.0583C149.603 52.8482 153.544 57.8947 156.003 63.6908V63.6908C158.463 69.4869 159.353 75.8283 158.584 82.0775C157.816 88.3268 155.416 94.2637 151.626 99.2915V99.2915C147.836 104.319 142.79 108.261 136.994 110.72C131.198 113.179 124.856 114.069 118.607 113.301V113.301C112.358 112.533 106.421 110.133 101.394 106.344C96.3658 102.554 92.4242 97.5074 89.965 91.7114V91.7114Z" fill="#58595B"/>
</g>
</g>
<path d="M58.1954 94.6361C58.1954 130.675 87.4451 159.89 123.526 159.89C159.608 159.89 188.857 130.675 188.857 94.6361C188.857 58.5973 159.608 29.3821 123.526 29.3821C87.4451 29.3821 58.1954 58.5973 58.1954 94.6361Z" fill="url(#paint0_linear_386_4)"/>
<path d="M61.0427 94.6361C61.0427 129.104 89.0178 157.046 123.527 157.046C158.036 157.046 186.011 129.104 186.011 94.6361C186.011 60.168 158.036 32.2261 123.527 32.2261C89.0178 32.2261 61.0427 60.168 61.0427 94.6361Z" fill="#F1F2F2"/>
<path d="M103.089 97.6491H137.013C138.345 97.6491 138.484 97.7891 138.484 99.1271C138.484 105.98 138.484 112.834 138.484 119.687C138.539 120.844 138.174 121.982 137.456 122.89C136.738 123.799 135.716 124.418 134.578 124.632C134.165 124.7 133.747 124.727 133.329 124.714C123.729 124.714 114.121 124.671 104.518 124.746C103.827 124.768 103.139 124.647 102.497 124.392C101.854 124.137 101.271 123.752 100.784 123.262C100.297 122.771 99.916 122.186 99.6647 121.542C99.4135 120.898 99.2973 120.21 99.3236 119.519C99.4136 113.284 99.3506 107.047 99.3506 100.811V99.8511C98.6226 100.313 98.0046 100.702 97.3886 101.095C95.9026 102.043 95.8746 102.037 94.9456 100.572C94.1556 99.3271 93.3566 98.0871 92.5736 96.8361C92.1924 96.2923 91.9286 95.675 91.7991 95.0235C91.6697 94.3721 91.6775 93.7009 91.8219 93.0526C91.9663 92.4044 92.2443 91.7933 92.638 91.2584C93.0317 90.7236 93.5325 90.2766 94.1086 89.9461C95.5266 89.0281 96.9576 88.1301 98.4466 87.1821L97.8976 86.8381C96.9984 86.2838 96.3217 85.432 95.9852 84.4307C95.6487 83.4294 95.6736 82.3419 96.0556 81.3571C96.4162 80.3754 97.1128 79.5533 98.0219 79.0363C98.9309 78.5194 99.9936 78.3411 101.022 78.5331C103.353 78.9831 105.665 79.5331 107.985 80.0421C108.194 80.0881 108.405 80.1221 108.666 80.1721C109.066 78.4011 109.443 76.6871 109.826 74.9721C110.176 73.4051 110.512 71.8341 110.881 70.2721C111.132 69.1051 111.835 68.0848 112.835 67.4335C113.835 66.7822 115.053 66.5527 116.222 66.7951C117.377 67.0373 118.393 67.7215 119.052 68.7016C119.71 69.6818 119.96 70.8804 119.748 72.0421C119.667 72.5631 119.557 73.0801 119.465 73.5991C119.458 73.6361 119.488 73.6791 119.519 73.7771C120.755 72.9931 121.98 72.2201 123.201 71.4411C126.021 69.6411 128.714 70.2291 130.509 73.0411C131.349 74.3584 132.188 75.6774 133.026 76.9981C133.555 77.8341 133.49 78.1291 132.659 78.6581L103.744 97.0581C103.512 97.2061 103.285 97.3631 103.056 97.5161L103.089 97.6491ZM123.449 123.13H124.166C127.227 123.13 130.288 123.13 133.35 123.13C133.83 123.179 134.316 123.12 134.771 122.957C135.226 122.794 135.639 122.531 135.979 122.187C136.319 121.844 136.578 121.429 136.736 120.972C136.895 120.516 136.95 120.029 136.896 119.549C136.896 113.027 136.896 106.505 136.896 99.9831V99.2831H123.448L123.449 123.13ZM100.979 99.2701C100.961 99.4531 100.936 99.5831 100.936 99.7121C100.936 106.43 100.936 113.148 100.936 119.866C100.917 120.303 100.99 120.739 101.15 121.146C101.311 121.553 101.554 121.922 101.866 122.229C102.177 122.537 102.549 122.775 102.959 122.93C103.368 123.084 103.805 123.152 104.242 123.127C106.356 123.138 108.469 123.127 110.583 123.127H111.701V99.2701H100.979ZM121.804 99.2771H113.382V123.092H121.804V99.2771ZM109.075 91.7771L104.784 85.0321C101.384 87.1991 98.0306 89.3091 94.7066 91.4621C94.0662 91.8544 93.5962 92.4728 93.3895 93.1949C93.1829 93.917 93.2547 94.6903 93.5907 95.3621C94.4147 96.9091 95.4176 98.3621 96.3546 99.8731L109.075 91.7771ZM131.475 77.5261C130.65 76.2261 129.875 74.9991 129.097 73.7781C128.881 73.3455 128.572 72.9666 128.191 72.6693C127.81 72.372 127.367 72.1639 126.895 72.0602C126.423 71.9565 125.934 71.9599 125.464 72.0701C124.993 72.1803 124.553 72.3945 124.177 72.6971C121.872 74.1577 119.57 75.6227 117.271 77.0921C116.421 77.6331 115.571 78.1711 114.697 78.7231L118.987 85.4701L131.475 77.5261ZM110.412 90.9261L117.647 86.3211L113.359 79.5771L106.124 84.1831L110.412 90.9261ZM110.44 79.5101C110.704 79.3621 110.875 79.2781 111.04 79.1761C112.8 78.0541 114.531 76.8831 116.329 75.8261C116.752 75.6298 117.114 75.3235 117.378 74.939C117.642 74.5546 117.798 74.1063 117.829 73.6411C117.876 72.9891 118.129 72.3541 118.19 71.7011C118.238 71.224 118.192 70.742 118.053 70.2831C117.856 69.6815 117.463 69.1632 116.938 68.8107C116.412 68.4581 115.784 68.2918 115.153 68.3381C114.531 68.353 113.932 68.5717 113.447 68.9605C112.963 69.3494 112.619 69.8868 112.47 70.4901C112.104 71.9371 111.803 73.4011 111.478 74.8581C111.138 76.3721 110.803 77.8901 110.448 79.5081L110.44 79.5101ZM107.299 81.5171C105.014 81.0171 102.915 80.5321 100.805 80.1071C100.073 79.9603 99.3122 80.1015 98.6817 80.5012C98.0512 80.9009 97.5992 81.5284 97.4196 82.2531C97.2328 82.9988 97.3423 83.7879 97.7252 84.4546C98.108 85.1213 98.7344 85.6136 99.4726 85.8281C99.6865 85.9077 99.9165 85.9342 100.143 85.9055C100.369 85.8768 100.585 85.7936 100.773 85.6631C102.656 84.4441 104.567 83.2691 106.467 82.0751C106.702 81.9261 106.929 81.7661 107.303 81.5161L107.299 81.5171Z" fill="#2F455C"/>
<path d="M146.937 88.186C146.837 88.76 146.695 89.363 146.646 89.975C146.634 90.261 146.723 90.5419 146.899 90.768C147.248 91.19 147.714 91.515 148.055 91.942C148.154 92.061 148.228 92.1995 148.272 92.3486C148.315 92.4977 148.327 92.6541 148.307 92.8081C148.243 92.9488 148.146 93.0718 148.024 93.1666C147.902 93.2614 147.759 93.325 147.607 93.352C146.909 93.2802 146.209 93.4693 145.642 93.883C145.075 94.2966 144.682 94.9054 144.538 95.5921C144.465 95.7304 144.36 95.8489 144.232 95.9372C144.103 96.0254 143.955 96.0806 143.8 96.0981C143.645 96.0817 143.496 96.0275 143.368 95.9403C143.239 95.8531 143.133 95.7356 143.061 95.5981C142.916 94.9114 142.523 94.3023 141.957 93.8884C141.39 93.4744 140.691 93.2848 139.993 93.356C139.839 93.3309 139.694 93.2686 139.57 93.1747C139.446 93.0807 139.347 92.958 139.282 92.817C139.249 92.6649 139.255 92.5072 139.299 92.3579C139.342 92.2086 139.422 92.0723 139.531 91.9611C140.145 91.6019 140.604 91.0271 140.818 90.3485C141.032 89.6699 140.986 88.9358 140.69 88.289C140.468 87.605 141.174 87.1251 141.85 87.4331C142.369 87.6691 142.85 87.9931 143.379 88.2061C143.646 88.3054 143.939 88.3079 144.208 88.2131C144.756 87.9931 145.257 87.6571 145.799 87.4131C145.924 87.3506 146.064 87.3226 146.203 87.332C146.343 87.3415 146.478 87.3879 146.594 87.4666C146.71 87.5453 146.802 87.6534 146.863 87.7799C146.923 87.9063 146.948 88.0465 146.937 88.186V88.186ZM145.807 92.0081C145.421 91.7609 145.131 91.3888 144.987 90.9539C144.843 90.5191 144.852 90.0478 145.014 89.619C144.671 89.9191 144.231 90.0845 143.776 90.0845C143.32 90.0845 142.88 89.9191 142.538 89.619C142.713 90.0471 142.73 90.5237 142.587 90.9635C142.443 91.4032 142.147 91.7774 141.753 92.0191C142.213 91.9737 142.673 92.0963 143.05 92.3643C143.427 92.6323 143.694 93.0276 143.802 93.477C143.897 93.0286 144.154 92.6309 144.523 92.3594C144.893 92.0878 145.349 91.9614 145.806 92.0041L145.807 92.0081Z" fill="#2F455C"/>
<path d="M151.531 65.2561C151.431 65.3931 151.317 65.7011 151.099 65.8221C150.478 66.0975 149.982 66.5942 149.707 67.2153C149.433 67.8364 149.399 68.5375 149.613 69.1821C149.631 69.3464 149.608 69.5126 149.545 69.6656C149.483 69.8186 149.383 69.9535 149.255 70.0581C149.091 70.1196 148.915 70.141 148.741 70.1207C148.567 70.1003 148.4 70.0388 148.255 69.9411C147.808 69.4618 147.201 69.1626 146.549 69.0998C145.897 69.037 145.245 69.2149 144.715 69.6001C144.557 69.675 144.383 69.7094 144.208 69.7002C144.033 69.6909 143.864 69.6383 143.715 69.5471C143.603 69.4004 143.528 69.2294 143.496 69.0481C143.463 68.8668 143.474 68.6803 143.528 68.5041C143.834 67.9465 143.927 67.2965 143.789 66.6754C143.651 66.0544 143.292 65.5047 142.779 65.1291C142.651 64.9962 142.557 64.8341 142.506 64.6569C142.455 64.4797 142.448 64.2927 142.485 64.1121C142.589 63.9605 142.728 63.8364 142.89 63.7505C143.052 63.6647 143.233 63.6195 143.417 63.6191C144.041 63.7337 144.685 63.619 145.231 63.2961C145.777 62.9733 146.188 62.464 146.388 61.8621C146.475 61.6989 146.601 61.5594 146.755 61.4559C146.908 61.3524 147.085 61.2879 147.269 61.2681C147.446 61.3194 147.607 61.4133 147.739 61.5414C147.871 61.6695 147.97 61.828 148.027 62.0031C148.099 62.6338 148.403 63.2151 148.88 63.6337C149.357 64.0523 149.973 64.2781 150.608 64.2671C150.736 64.2632 150.863 64.2866 150.981 64.3358C151.1 64.3851 151.206 64.459 151.293 64.5526C151.381 64.6462 151.447 64.7574 151.488 64.8787C151.529 65 151.543 65.1287 151.531 65.2561V65.2561ZM145.431 67.5771C145.8 67.312 146.254 67.1914 146.707 67.238C147.159 67.2846 147.579 67.4952 147.887 67.8301C147.919 66.5641 147.919 66.5641 148.928 65.4481C148.461 65.4683 148.003 65.3125 147.645 65.0117C147.287 64.7108 147.055 64.2867 146.995 63.8231C146.876 64.2715 146.589 64.6573 146.195 64.9014C145.8 65.1456 145.327 65.2295 144.873 65.1361C145.243 65.4083 145.503 65.8047 145.606 66.2528C145.708 66.7009 145.646 67.1709 145.431 67.5771V67.5771Z" fill="#2F455C"/>
<path d="M156.247 80.4751C156.164 80.5851 156.046 80.8841 155.825 81.0071C155.214 81.2776 154.724 81.7655 154.452 82.3762C154.179 82.987 154.143 83.6772 154.351 84.3131C154.37 84.4873 154.345 84.6635 154.28 84.8261C154.214 84.9886 154.11 85.1326 153.976 85.2451C153.811 85.3063 153.633 85.3262 153.459 85.3032C153.285 85.2802 153.119 85.2149 152.976 85.1131C152.537 84.637 151.94 84.3382 151.296 84.2731C150.652 84.2081 150.007 84.3813 149.483 84.7601C149.314 84.8379 149.13 84.8729 148.945 84.8619C148.76 84.8509 148.58 84.7943 148.423 84.6971C148.316 84.5454 148.246 84.3703 148.221 84.1865C148.195 84.0026 148.213 83.8153 148.275 83.6401C148.569 83.0896 148.655 82.4517 148.518 81.8429C148.38 81.2341 148.028 80.695 147.527 80.3241C147.396 80.1921 147.299 80.0306 147.244 79.8531C147.19 79.6757 147.179 79.4876 147.213 79.3051C147.315 79.152 147.453 79.0264 147.615 78.9392C147.777 78.852 147.958 78.8059 148.143 78.8051C148.777 78.9209 149.433 78.8023 149.986 78.4712C150.54 78.1401 150.955 77.6191 151.154 77.0051C151.239 76.8519 151.361 76.722 151.508 76.6265C151.655 76.531 151.824 76.4729 151.999 76.4571C152.168 76.4972 152.325 76.579 152.455 76.6951C152.585 76.8112 152.684 76.958 152.744 77.1221C152.826 77.7852 153.15 78.3944 153.655 78.8324C154.16 79.2704 154.808 79.506 155.476 79.4941C156.041 79.5431 156.264 79.8741 156.247 80.4751ZM150.147 82.7821C150.516 82.5048 150.975 82.3726 151.435 82.4104C151.896 82.4482 152.327 82.6533 152.647 82.9871C152.521 82.5449 152.553 82.0727 152.738 81.6519C152.923 81.2311 153.25 80.8881 153.661 80.6821C153.198 80.6832 152.751 80.5169 152.402 80.214C152.053 79.911 151.825 79.4919 151.76 79.0341C151.618 79.473 151.321 79.8451 150.925 80.081C150.528 80.3169 150.059 80.4005 149.606 80.3161C149.982 80.5901 150.244 80.9923 150.344 81.4468C150.444 81.9013 150.374 82.3766 150.148 82.7831L150.147 82.7821Z" fill="#2F455C"/>
<path d="M140.046 79.5711C141.788 79.5952 143.509 79.9558 145.114 80.6331C145.606 80.8331 145.909 81.1561 145.691 81.7011C145.653 81.8124 145.591 81.9138 145.509 81.9977C145.427 82.0816 145.327 82.1456 145.216 82.1851C145.106 82.2246 144.988 82.2385 144.871 82.2256C144.754 82.2128 144.642 82.1736 144.543 82.1111C142.642 81.2623 140.538 80.975 138.479 81.2831C134.999 81.8931 132.624 84.0381 130.804 86.9241C130.675 87.1241 130.587 87.4241 130.404 87.5111C130.265 87.5929 130.112 87.6464 129.953 87.6688C129.794 87.6911 129.632 87.6817 129.477 87.6411C129.257 87.5131 129.209 87.0781 129.108 86.7701C129.087 86.7071 129.16 86.6071 129.208 86.5321C131.183 83.1321 133.89 80.6761 137.824 79.7881C138.146 79.7147 138.472 79.6626 138.801 79.6321C139.21 79.5931 139.629 79.5891 140.046 79.5711Z" fill="#2F455C"/>
<path d="M139.378 77.8191C138.56 77.6831 137.561 77.5421 136.578 77.3451C135.909 77.2111 135.598 76.7901 135.761 76.3091C135.961 75.7181 136.422 75.6781 136.945 75.8091C138.432 76.2325 140.001 76.2806 141.511 75.9491C142.556 75.6947 143.503 75.1389 144.234 74.3507C144.965 73.5625 145.449 72.5768 145.624 71.5161C145.668 71.3461 145.697 71.1721 145.747 71.0041C145.763 70.8998 145.801 70.8001 145.858 70.7117C145.916 70.6233 145.991 70.5482 146.08 70.4914C146.169 70.4345 146.269 70.3974 146.373 70.3823C146.478 70.3673 146.584 70.3747 146.685 70.4041C146.79 70.4229 146.889 70.4637 146.977 70.5239C147.064 70.584 147.138 70.6621 147.193 70.7529C147.248 70.8437 147.283 70.9452 147.295 71.0505C147.308 71.1559 147.298 71.2628 147.266 71.3641C146.751 74.1871 145.151 76.9021 141.41 77.6021C140.804 77.7191 140.185 77.7381 139.378 77.8191Z" fill="#2F455C"/>
<path d="M135.329 89.0631C135.767 89.1231 136.599 89.2081 137.418 89.3571C138.237 89.5061 138.553 89.8451 138.44 90.3661C138.327 90.8871 137.909 91.0551 137.105 90.8941C135.227 90.4461 133.255 90.6108 131.477 91.3641C130.242 91.9085 129.165 92.7565 128.346 93.8291C127.946 94.3441 127.505 94.4551 127.113 94.1611C126.721 93.8671 126.681 93.3961 127.085 92.8821C128.055 91.6341 129.309 90.6363 130.743 89.9719C132.177 89.3076 133.75 88.9959 135.329 89.0631V89.0631Z" fill="#2F455C"/>
<path d="M137.94 69.4651C137.925 69.8425 137.764 70.1993 137.491 70.4605C137.218 70.7216 136.854 70.8667 136.477 70.8651C136.099 70.8491 135.743 70.6877 135.482 70.4148C135.221 70.1419 135.076 69.7787 135.077 69.4011C135.092 69.0244 135.253 68.6685 135.525 68.4075C135.797 68.1466 136.16 68.001 136.537 68.0011C136.914 68.0178 137.27 68.1793 137.532 68.4519C137.793 68.7246 137.939 69.0874 137.94 69.4651V69.4651Z" fill="#2F455C"/>
<path d="M125.251 96.782C124.874 96.7695 124.517 96.6113 124.254 96.3406C123.992 96.07 123.845 95.708 123.844 95.3309C123.855 94.9543 124.013 94.5968 124.282 94.3335C124.552 94.0702 124.913 93.9216 125.29 93.9189C125.667 93.9333 126.024 94.0925 126.286 94.3633C126.549 94.6341 126.697 94.9957 126.7 95.373C126.688 95.7497 126.53 96.107 126.26 96.3698C125.989 96.6326 125.628 96.7803 125.251 96.782Z" fill="#2F455C"/>
<path d="M124.667 88.7469C124.664 89.1235 124.512 89.4834 124.245 89.7491C123.978 90.0148 123.618 90.1649 123.241 90.1669C122.865 90.1591 122.506 90.0027 122.244 89.7319C121.982 89.4612 121.837 89.0978 121.841 88.7209C121.845 88.3444 121.996 87.9843 122.263 87.7189C122.531 87.4536 122.892 87.3045 123.268 87.304C123.645 87.3105 124.004 87.4661 124.266 87.7365C124.528 88.007 124.672 88.3703 124.667 88.7469V88.7469Z" fill="#2F455C"/>
<path d="M156.626 72.6121C156.44 72.6123 156.255 72.5757 156.083 72.5042C155.911 72.4328 155.754 72.3279 155.623 72.1957C155.491 72.0636 155.387 71.9066 155.317 71.734C155.246 71.5614 155.21 71.3765 155.211 71.1901C155.213 71.0034 155.252 70.819 155.325 70.6473C155.398 70.4757 155.505 70.3203 155.638 70.1901C155.772 70.0599 155.93 69.9575 156.104 69.8889C156.277 69.8202 156.463 69.7866 156.65 69.7901C156.836 69.7901 157.02 69.8269 157.192 69.8983C157.364 69.9698 157.521 70.0746 157.652 70.2066C157.784 70.3387 157.888 70.4954 157.959 70.6677C158.029 70.8401 158.065 71.0247 158.064 71.2111C158.062 71.3976 158.024 71.5818 157.95 71.7533C157.877 71.9247 157.77 72.08 157.636 72.2102C157.503 72.3403 157.345 72.4428 157.172 72.5118C156.998 72.5808 156.813 72.6148 156.626 72.6121V72.6121Z" fill="#2F455C"/>
<path d="M154.256 89.6471C154.442 89.6408 154.627 89.6717 154.802 89.7381C154.976 89.8045 155.135 89.9049 155.269 90.0335C155.404 90.1621 155.512 90.3163 155.586 90.4871C155.661 90.6579 155.7 90.8418 155.703 91.0281C155.71 91.2143 155.68 91.4 155.614 91.5743C155.548 91.7487 155.448 91.908 155.319 92.0428C155.191 92.1776 155.036 92.2851 154.865 92.359C154.694 92.433 154.51 92.4717 154.324 92.4731C154.137 92.4813 153.951 92.4518 153.777 92.3863C153.602 92.3208 153.443 92.2207 153.308 92.0919C153.173 91.9632 153.066 91.8086 152.992 91.6373C152.918 91.4659 152.88 91.2815 152.88 91.0951C152.872 90.9088 152.901 90.7229 152.967 90.5483C153.032 90.3737 153.132 90.214 153.26 90.0789C153.389 89.9438 153.543 89.8359 153.714 89.7617C153.885 89.6875 154.069 89.6485 154.256 89.6471V89.6471Z" fill="#2F455C"/>
<defs>
<linearGradient id="paint0_linear_386_4" x1="170.042" y1="141.097" x2="77.3816" y2="48.1965" gradientUnits="userSpaceOnUse">
<stop stop-color="white"/>
<stop offset="1" stop-color="#E6E7E8"/>
</linearGradient>
</defs>
</svg>
