<svg width="24" height="25" viewBox="0 0 24 25" fill="none" xmlns="http://www.w3.org/2000/svg">
<path d="M11.998 24.249C18.4465 24.249 23.674 19.0215 23.674 12.573C23.674 6.1245 18.4465 0.896973 11.998 0.896973C5.54954 0.896973 0.322021 6.1245 0.322021 12.573C0.322021 19.0215 5.54954 24.249 11.998 24.249Z" fill="#1ECFF5"/>
<path d="M14.6619 9.271H14.6339C14.1333 9.27361 13.6412 9.40086 13.2022 9.64127C12.7631 9.88168 12.3908 10.2277 12.1189 10.648C11.8468 10.2274 11.4742 9.88122 11.0347 9.6408C10.5953 9.40037 10.1028 9.27328 9.60189 9.271H9.57589C8.78718 9.27967 8.03362 9.59861 7.47832 10.1588C6.92303 10.7189 6.61068 11.4752 6.60889 12.264C6.67476 13.5349 7.11526 14.7579 7.87489 15.779C9.10154 17.3243 10.5288 18.6991 12.1189 19.867C13.709 18.6991 15.1362 17.3243 16.3629 15.779C17.1243 14.7585 17.5666 13.5355 17.6339 12.264C17.6321 11.4744 17.319 10.7173 16.7627 10.157C16.2063 9.59673 15.4515 9.27836 14.6619 9.271Z" fill="white"/>
</svg>
