<svg width="201" height="102" viewBox="0 0 201 102" fill="none" xmlns="http://www.w3.org/2000/svg">
<g filter="url(#filter0_d_1_2536)">
<path d="M12.5909 3.818L16.0549 11.729L19.6009 3.818H25.3839L18.7019 16.776V23.186H13.4099V16.721L6.83594 3.821L12.5909 3.818ZM31.0039 23.459C29.7313 23.459 28.6036 23.2623 27.6209 22.869C26.6383 22.4757 25.8146 21.9347 25.1499 21.246C24.4833 20.5573 23.9833 19.775 23.6499 18.899C23.3166 18.023 23.1499 17.102 23.1499 16.136C23.1499 15.17 23.3166 14.2443 23.6499 13.359C23.9833 12.4737 24.4833 11.6893 25.1499 11.006C25.8166 10.3267 26.6396 9.79 27.6189 9.396C28.5983 9.002 29.7259 8.80533 31.0019 8.806C32.2933 8.806 33.4266 9.00267 34.4019 9.396C35.3773 9.78933 36.1953 10.326 36.8559 11.006C37.5226 11.6853 38.0226 12.4677 38.3559 13.353C38.6893 14.2383 38.8559 15.164 38.8559 16.13C38.8559 17.096 38.6893 18.017 38.3559 18.893C38.0226 19.769 37.5226 20.5513 36.8559 21.24C36.1893 21.9287 35.3709 22.4697 34.4009 22.863C33.4309 23.2563 32.2986 23.455 31.0039 23.459ZM28.4669 16.135C28.4669 16.7463 28.5759 17.2747 28.7939 17.72C29.0119 18.1653 29.3119 18.5057 29.6939 18.741C30.0759 18.977 30.5123 19.095 31.0029 19.095C31.4936 19.095 31.9299 18.977 32.3119 18.741C32.6939 18.505 32.9939 18.1647 33.2119 17.72C33.4299 17.2753 33.5389 16.747 33.5389 16.135C33.5389 15.5237 33.4299 14.9953 33.2119 14.55C32.9939 14.1047 32.6939 13.7643 32.3119 13.529C31.9299 13.293 31.4936 13.175 31.0029 13.175C30.5123 13.175 30.0759 13.293 29.6939 13.529C29.3119 13.765 29.0119 14.1053 28.7939 14.55C28.5759 14.9947 28.4669 15.523 28.4669 16.135ZM40.5499 18.344V9.029H45.7329V17.141C45.7329 17.7477 45.8739 18.225 46.1559 18.573C46.4379 18.921 46.8243 19.095 47.3149 19.095C47.5876 19.095 47.8603 19.0617 48.1329 18.995C48.4056 18.9283 48.6829 18.7903 48.9649 18.581C49.2469 18.3737 49.5243 18.0803 49.7969 17.701V9.029H54.9799V17.484C54.9799 17.9653 55.0526 18.2987 55.1979 18.484C55.3433 18.6693 55.5979 18.781 55.9619 18.819V23.186C55.5073 23.2767 55.0979 23.3433 54.7339 23.386C54.3699 23.4287 54.0516 23.4513 53.7789 23.454C52.9063 23.454 52.2153 23.292 51.7059 22.968C51.1966 22.644 50.8693 22.1507 50.7239 21.488L50.6149 20.977C49.9423 21.8563 49.1376 22.4897 48.2009 22.877C47.2643 23.2643 46.2049 23.4573 45.0229 23.456C43.5863 23.456 42.4816 23.0163 41.7089 22.137C40.9363 21.2577 40.5499 19.9933 40.5499 18.344ZM67.8299 13.257C66.8299 13.257 65.9206 13.366 65.1019 13.584C64.2833 13.802 63.6739 14.1657 63.2739 14.675V23.186H58.0919V9.029H62.8379V11.566C63.3473 10.602 63.9836 9.861 64.7469 9.343C65.5103 8.825 66.3196 8.566 67.1749 8.566C67.3749 8.566 67.5159 8.566 67.5979 8.566C67.6799 8.566 67.7573 8.575 67.8299 8.593V13.257ZM76.0409 23.186V14.406H74.2679V10.506H76.0409V8.947C76.0409 7.747 76.2593 6.70133 76.6959 5.81C77.1326 4.91867 77.7463 4.22767 78.5369 3.737C79.3283 3.24567 80.2513 3 81.3059 3C81.9239 3 82.5606 3.06667 83.2159 3.2C83.8713 3.33333 84.5623 3.538 85.2889 3.814L84.4159 7.742C84.1253 7.63267 83.7979 7.54167 83.4339 7.469C83.0699 7.39633 82.7516 7.36 82.4789 7.36C82.0609 7.36 81.7473 7.47367 81.5379 7.701C81.3286 7.92833 81.2239 8.27833 81.2239 8.751V10.506H84.3609V14.406H81.2239V23.186H76.0409ZM85.8609 18.344V9.029H91.0439V17.141C91.0439 17.7477 91.1849 18.225 91.4669 18.573C91.7489 18.921 92.1353 19.095 92.6259 19.095C92.8986 19.095 93.1713 19.0617 93.4439 18.995C93.7166 18.9283 93.9939 18.7903 94.2759 18.581C94.5579 18.3737 94.8353 18.0803 95.1079 17.701V9.029H100.291V17.484C100.291 17.9653 100.364 18.2987 100.509 18.484C100.654 18.6693 100.909 18.781 101.273 18.819V23.186C100.818 23.2767 100.409 23.3433 100.045 23.386C99.6809 23.4287 99.3626 23.4513 99.0899 23.454C98.2173 23.454 97.5263 23.292 97.0169 22.968C96.5076 22.644 96.1803 22.1507 96.0349 21.488L95.9259 20.977C95.2533 21.8563 94.4486 22.4897 93.5119 22.877C92.5753 23.2643 91.5159 23.4573 90.3339 23.456C88.8973 23.456 87.7926 23.0163 87.0199 22.137C86.2473 21.2577 85.8609 19.9933 85.8609 18.344ZM103.292 3.273H108.475V17.485C108.475 18.0123 108.589 18.417 108.816 18.699C109.043 18.981 109.377 19.122 109.816 19.122C110.034 19.122 110.27 19.0857 110.525 19.013C110.78 18.9403 111.016 18.8403 111.234 18.713L111.889 22.532C111.271 22.8227 110.575 23.05 109.802 23.214C109.029 23.378 108.295 23.46 107.602 23.46C106.22 23.46 105.156 23.1007 104.41 22.382C103.664 21.6633 103.291 20.6403 103.292 19.313V3.273ZM112.976 3.273H118.159V17.485C118.159 18.0123 118.273 18.417 118.5 18.699C118.727 18.981 119.061 19.122 119.5 19.122C119.718 19.122 119.954 19.0857 120.209 19.013C120.464 18.9403 120.7 18.8403 120.918 18.713L121.573 22.532C120.955 22.8227 120.259 23.05 119.486 23.214C118.713 23.378 117.979 23.46 117.286 23.46C115.904 23.46 114.84 23.1007 114.094 22.382C113.348 21.6633 112.975 20.6403 112.976 19.313V3.273ZM121.732 24.632C122.15 24.7773 122.536 24.891 122.891 24.973C123.246 25.055 123.568 25.096 123.859 25.096C124.241 25.096 124.559 25.0293 124.814 24.896C125.069 24.7627 125.269 24.5543 125.414 24.271C125.559 23.9903 125.65 23.649 125.687 23.247L120.477 9.034H125.796L128.524 17.978L130.734 9.034H135.562L130.706 24.949C130.433 25.8677 129.988 26.6737 129.369 27.367C128.75 28.0603 128.014 28.6017 127.159 28.991C126.304 29.3797 125.386 29.574 124.404 29.574C123.949 29.574 123.499 29.533 123.054 29.451C122.609 29.369 122.168 29.2357 121.731 29.051L121.732 24.632ZM7.54494 47.583C7.54494 46.1877 7.8116 44.94 8.34494 43.84C8.87827 42.74 9.61927 41.8733 10.5679 41.24C11.5133 40.6053 12.5953 40.288 13.8139 40.288C14.7413 40.288 15.5959 40.5017 16.3779 40.929C17.1599 41.3563 17.7509 41.9427 18.1509 42.688V34.748H23.3339V48.933C23.3339 49.4243 23.4066 49.7653 23.5519 49.956C23.6973 50.1467 23.9519 50.2603 24.3159 50.297V54.662C23.4246 54.844 22.6973 54.935 22.1339 54.935C21.2613 54.935 20.5703 54.7713 20.0609 54.444C19.5516 54.1167 19.2243 53.6167 19.0789 52.944L18.9699 52.426C18.4786 53.2987 17.8149 53.935 16.9789 54.335C16.1429 54.735 15.2519 54.935 14.3059 54.935C13.3239 54.935 12.4193 54.756 11.5919 54.398C10.7646 54.04 10.0463 53.5347 9.43694 52.882C8.8276 52.2293 8.36094 51.4513 8.03694 50.548C7.71294 49.6447 7.54894 48.6563 7.54494 47.583ZM18.1839 49.155V46.693C18.0199 46.293 17.7973 45.9393 17.5159 45.632C17.2346 45.3247 16.9209 45.0847 16.5749 44.912C16.2296 44.7373 15.8749 44.65 15.5109 44.65C15.1289 44.65 14.7789 44.7287 14.4609 44.886C14.1429 45.0433 13.8656 45.2617 13.6289 45.541C13.3923 45.8203 13.2103 46.1433 13.0829 46.51C12.9556 46.8767 12.8919 47.2693 12.8919 47.688C12.8919 48.1247 12.9586 48.5177 13.0919 48.867C13.2253 49.2163 13.4206 49.5163 13.6779 49.767C13.9326 50.0203 14.2326 50.2167 14.5779 50.356C14.9233 50.4953 15.3053 50.565 15.7239 50.565C15.9786 50.565 16.2149 50.5343 16.4329 50.473C16.6509 50.4117 16.8599 50.3243 17.0599 50.211C17.2599 50.0977 17.4553 49.9493 17.6459 49.766C17.8366 49.5827 18.0166 49.379 18.1839 49.155ZM33.5149 54.934C32.2603 54.934 31.1419 54.7413 30.1599 54.356C29.1779 53.9707 28.3546 53.447 27.6899 52.785C27.0233 52.1223 26.5186 51.361 26.1759 50.501C25.8333 49.641 25.6606 48.7363 25.6579 47.787C25.6579 46.4297 25.9579 45.184 26.5579 44.05C27.1579 42.916 28.0399 42.005 29.2039 41.317C30.3679 40.6297 31.8046 40.286 33.5139 40.286C35.2233 40.286 36.6599 40.6263 37.8239 41.307C38.9879 41.9877 39.8699 42.8833 40.4699 43.994C41.0699 45.1047 41.3699 46.3137 41.3699 47.621C41.3699 47.8877 41.3563 48.161 41.3289 48.441C41.3016 48.721 41.2683 48.9673 41.2289 49.18H31.1679C31.2046 49.6633 31.3456 50.056 31.5909 50.358C31.8363 50.66 32.1453 50.88 32.5179 51.018C32.8906 51.156 33.2769 51.225 33.6769 51.225C34.2409 51.225 34.7743 51.0977 35.2769 50.843C35.7796 50.5883 36.1129 50.2337 36.2769 49.779L40.6689 51.034C40.2869 51.798 39.7536 52.471 39.0689 53.053C38.3843 53.635 37.5779 54.094 36.6499 54.43C35.7233 54.766 34.6789 54.934 33.5149 54.934ZM31.0599 46.068H35.8059C35.7513 45.624 35.6179 45.2483 35.4059 44.941C35.1939 44.6337 34.9213 44.3947 34.5879 44.224C34.2546 44.0533 33.8683 43.968 33.4289 43.968C32.9896 43.968 32.6033 44.0533 32.2699 44.224C31.9366 44.3947 31.6639 44.6337 31.4519 44.941C31.2399 45.2483 31.1089 45.6243 31.0589 46.069L31.0599 46.068ZM50.1499 54.934C48.8766 54.934 47.7536 54.7373 46.7809 54.344C45.8083 53.9507 44.9853 53.4097 44.3119 52.721C43.6393 52.0323 43.1299 51.25 42.7839 50.374C42.4379 49.498 42.2666 48.5753 42.2699 47.606C42.2699 46.318 42.5746 45.1153 43.1839 43.998C43.7933 42.8807 44.6843 41.9807 45.8569 41.298C47.0296 40.618 48.4629 40.278 50.1569 40.278C51.8843 40.278 53.3393 40.6417 54.5219 41.369C55.7046 42.0963 56.5866 43.033 57.1679 44.179L52.1209 45.707C51.8843 45.3617 51.5979 45.098 51.2619 44.916C50.9259 44.734 50.5486 44.643 50.1299 44.643C49.6573 44.643 49.2299 44.761 48.8479 44.997C48.4659 45.233 48.1613 45.569 47.9339 46.005C47.7066 46.4417 47.5929 46.975 47.5929 47.605C47.5929 48.2163 47.7066 48.7447 47.9339 49.19C48.1613 49.6353 48.4659 49.9757 48.8479 50.211C49.2299 50.447 49.6573 50.565 50.1299 50.565C50.4206 50.565 50.6843 50.524 50.9209 50.442C51.1576 50.36 51.3803 50.2373 51.5889 50.074C51.7983 49.91 51.9756 49.719 52.1209 49.501L57.1679 51.029C56.7859 51.793 56.2629 52.466 55.5989 53.048C54.9349 53.63 54.1519 54.0907 53.2499 54.43C52.3499 54.766 51.3166 54.934 50.1499 54.934ZM65.7259 54.934C64.4713 54.934 63.3529 54.7413 62.3709 54.356C61.3889 53.9707 60.5659 53.4467 59.9019 52.784C59.2353 52.1213 58.7306 51.36 58.3879 50.5C58.0453 49.64 57.8726 48.7353 57.8699 47.786C57.8699 46.4287 58.1699 45.183 58.7699 44.049C59.3699 42.915 60.2519 42.004 61.4159 41.316C62.5799 40.6287 64.0166 40.285 65.7259 40.285C67.4353 40.285 68.8733 40.6253 70.0399 41.306C71.2039 41.9867 72.0859 42.8823 72.6859 43.993C73.2859 45.1037 73.5859 46.3127 73.5859 47.62C73.5859 47.8867 73.5723 48.16 73.5449 48.44C73.5176 48.72 73.4843 48.9663 73.4449 49.179H63.3839C63.4206 49.6623 63.5616 50.055 63.8069 50.357C64.0523 50.659 64.3613 50.879 64.7339 51.017C65.1066 51.155 65.4929 51.224 65.8929 51.224C66.4569 51.224 66.9903 51.0967 67.4929 50.842C67.9956 50.5873 68.3289 50.2327 68.4929 49.778L72.8849 51.033C72.5029 51.797 71.9696 52.47 71.2849 53.052C70.6003 53.634 69.7956 54.0933 68.8709 54.43C67.9409 54.766 66.8939 54.934 65.7299 54.934H65.7259ZM63.2709 46.068H68.0169C67.9623 45.624 67.8289 45.2483 67.6169 44.941C67.4049 44.6337 67.1323 44.3947 66.7989 44.224C66.4656 44.0533 66.0793 43.968 65.6399 43.968C65.2006 43.968 64.8143 44.0533 64.4809 44.224C64.1476 44.3947 63.8749 44.6337 63.6629 44.941C63.4509 45.2483 63.3216 45.6243 63.2749 46.069L63.2709 46.068ZM89.7039 54.661H84.5249V46.783C84.5249 46.091 84.3659 45.591 84.0479 45.283C83.7299 44.975 83.3633 44.8197 82.9479 44.817C82.6573 44.817 82.3483 44.8987 82.0209 45.062C81.6936 45.2253 81.3936 45.4533 81.1209 45.746C80.8483 46.0387 80.6299 46.3743 80.4659 46.753V54.665H75.2769V40.506H79.9419V42.646C80.2873 42.1273 80.7236 41.694 81.2509 41.346C81.7783 40.998 82.3876 40.7343 83.0789 40.555C83.7703 40.3763 84.5249 40.287 85.3429 40.287C86.3249 40.287 87.1069 40.457 87.6889 40.797C88.2709 41.137 88.7073 41.5733 88.9979 42.106C89.2886 42.6393 89.4796 43.198 89.5709 43.782C89.6623 44.366 89.7076 44.8993 89.7069 45.382L89.7039 54.661ZM102.279 53.843C101.806 54.043 101.302 54.2293 100.765 54.402C100.632 54.4453 100.498 54.486 100.365 54.524C100.232 54.562 100.096 54.5977 99.9579 54.631C99.8246 54.6637 99.6876 54.694 99.5469 54.722C99.4063 54.75 99.2683 54.7753 99.1329 54.798C98.5783 54.8887 98.0373 54.934 97.5099 54.934C96.7279 54.934 96.0096 54.805 95.3549 54.547C94.7003 54.289 94.1773 53.8613 93.7859 53.264C93.3953 52.664 93.1999 51.8577 93.1999 50.845V44.406H91.4259V40.506H93.1989V36.006H98.3819V40.506H101.192V44.406H98.3819V48.981C98.3819 49.437 98.4819 49.757 98.6819 49.941C98.8819 50.125 99.1546 50.217 99.4999 50.217C99.7546 50.217 100.046 50.1717 100.373 50.081C100.7 49.9903 101.028 49.8813 101.355 49.754L102.279 53.843ZM113.49 44.732C112.49 44.732 111.581 44.841 110.762 45.059C109.943 45.277 109.334 45.6407 108.934 46.15V54.661H103.751V40.506H108.497V43.043C109.006 42.079 109.643 41.338 110.407 40.82C111.171 40.302 111.98 40.043 112.835 40.043C113.035 40.043 113.176 40.043 113.258 40.043C113.34 40.043 113.417 40.052 113.49 40.07V44.732ZM114.15 50.406C114.15 49.4587 114.414 48.623 114.941 47.899C115.468 47.175 116.202 46.6083 117.141 46.199C118.074 45.7877 119.143 45.582 120.346 45.582C120.91 45.582 121.443 45.6273 121.946 45.718C122.449 45.8087 122.882 45.945 123.246 46.127V45.691C123.246 45.0443 123.051 44.5643 122.66 44.251C122.269 43.9377 121.636 43.781 120.76 43.781C119.96 43.781 119.21 43.9143 118.51 44.181C117.81 44.4477 117.077 44.834 116.31 45.34L114.81 42.121C115.774 41.503 116.788 41.0437 117.852 40.743C118.916 40.4423 120.057 40.2923 121.275 40.293C123.548 40.293 125.308 40.793 126.553 41.793C127.798 42.793 128.421 44.2797 128.422 46.253V48.966C128.422 49.4453 128.495 49.7787 128.64 49.966C128.785 50.1533 129.04 50.2643 129.404 50.299V54.664C128.986 54.7547 128.59 54.8213 128.217 54.864C127.844 54.9067 127.51 54.9293 127.217 54.932C126.29 54.932 125.585 54.7653 125.103 54.432C124.621 54.0987 124.307 53.603 124.162 52.945L124.053 52.427C123.416 53.2457 122.68 53.8687 121.843 54.296C121.006 54.7233 120.115 54.937 119.17 54.937C118.225 54.937 117.37 54.7403 116.606 54.347C115.842 53.9537 115.242 53.413 114.806 52.725C114.369 52.035 114.15 51.262 114.15 50.406ZM122.55 50.711C122.75 50.5737 122.914 50.4233 123.041 50.26C123.168 50.0967 123.232 49.93 123.232 49.76V48.748C122.941 48.6447 122.608 48.5587 122.232 48.49C121.856 48.4213 121.523 48.388 121.232 48.39C120.614 48.39 120.091 48.536 119.663 48.828C119.235 49.12 119.021 49.4897 119.022 49.937C119.022 50.1777 119.095 50.3967 119.24 50.594C119.385 50.7913 119.585 50.946 119.84 51.058C120.095 51.17 120.386 51.226 120.713 51.226C121.022 51.226 121.345 51.1787 121.681 51.084C122.017 50.9893 122.307 50.8633 122.55 50.706V50.711ZM131.17 34.75H136.35V48.96C136.35 49.4873 136.464 49.892 136.691 50.174C136.918 50.456 137.252 50.597 137.691 50.597C137.909 50.597 138.145 50.5607 138.4 50.488C138.655 50.4153 138.891 50.3153 139.109 50.188L139.764 54.006C139.146 54.2967 138.45 54.524 137.677 54.688C136.904 54.852 136.17 54.934 135.477 54.934C134.095 54.934 133.031 54.575 132.285 53.857C131.539 53.139 131.166 52.116 131.167 50.788L131.17 34.75ZM140.963 54.663V40.313H146.15V54.661L140.963 54.663ZM140.963 39.114V34.748H146.15V39.113L140.963 39.114ZM148.057 51.606L154.604 44.05H148.466V40.506H160.005V43.561L153.485 51.117H160.25V54.663H148.057V51.606ZM169.116 54.934C167.861 54.934 166.743 54.7413 165.761 54.356C164.779 53.9707 163.956 53.4467 163.292 52.784C162.625 52.1213 162.121 51.36 161.778 50.5C161.435 49.64 161.263 48.7353 161.26 47.786C161.26 46.4287 161.56 45.183 162.16 44.049C162.76 42.915 163.642 42.004 164.806 41.316C165.97 40.6287 167.407 40.285 169.116 40.285C170.825 40.285 172.262 40.6253 173.426 41.306C174.59 41.9867 175.472 42.8823 176.072 43.993C176.672 45.1037 176.972 46.3127 176.972 47.62C176.972 47.8867 176.958 48.16 176.931 48.44C176.904 48.72 176.87 48.9663 176.831 49.179H166.77C166.807 49.6623 166.948 50.055 167.193 50.357C167.438 50.659 167.747 50.879 168.12 51.017C168.493 51.155 168.879 51.224 169.279 51.224C169.843 51.224 170.376 51.0967 170.879 50.842C171.382 50.5873 171.715 50.2327 171.879 49.778L176.271 51.033C175.889 51.797 175.356 52.47 174.671 53.052C173.986 53.634 173.179 54.0933 172.25 54.43C171.324 54.766 170.279 54.934 169.116 54.934ZM166.661 46.068H171.407C171.352 45.624 171.219 45.2483 171.007 44.941C170.795 44.6337 170.522 44.3947 170.189 44.224C169.856 44.0533 169.469 43.968 169.03 43.968C168.591 43.968 168.204 44.0533 167.871 44.224C167.538 44.3947 167.265 44.6337 167.053 44.941C166.841 45.2483 166.71 45.6233 166.661 46.068ZM177.9 47.582C177.9 46.1867 178.167 44.939 178.7 43.839C179.233 42.739 179.974 41.8723 180.923 41.239C181.868 40.6043 182.95 40.287 184.169 40.287C185.096 40.287 185.951 40.5007 186.733 40.928C187.515 41.3553 188.106 41.9417 188.506 42.687V34.748H193.689V48.933C193.689 49.4243 193.762 49.7653 193.907 49.956C194.052 50.1467 194.307 50.2603 194.671 50.297V54.662C193.78 54.844 193.052 54.935 192.489 54.935C191.616 54.935 190.925 54.7713 190.416 54.444C189.907 54.1167 189.579 53.6167 189.434 52.944L189.325 52.426C188.834 53.2987 188.17 53.935 187.334 54.335C186.498 54.735 185.607 54.935 184.661 54.935C183.679 54.935 182.774 54.756 181.947 54.398C181.12 54.04 180.401 53.5347 179.792 52.882C179.183 52.2293 178.716 51.4513 178.392 50.548C178.068 49.6447 177.904 48.6563 177.899 47.583L177.9 47.582ZM188.539 49.154V46.693C188.375 46.293 188.152 45.9393 187.871 45.632C187.59 45.3247 187.276 45.0847 186.93 44.912C186.585 44.7373 186.23 44.65 185.866 44.65C185.484 44.65 185.134 44.7287 184.816 44.886C184.498 45.0433 184.221 45.2617 183.984 45.541C183.747 45.8203 183.565 46.1433 183.438 46.51C183.311 46.8767 183.247 47.2693 183.247 47.688C183.247 48.1247 183.314 48.5177 183.447 48.867C183.58 49.2163 183.776 49.5163 184.033 49.767C184.288 50.0203 184.588 50.2167 184.933 50.356C185.278 50.4953 185.66 50.565 186.079 50.565C186.334 50.565 186.57 50.5343 186.788 50.473C187.006 50.4117 187.215 50.3243 187.415 50.211C187.615 50.0977 187.811 49.9493 188.002 49.766C188.193 49.5827 188.372 49.379 188.538 49.155L188.539 49.154ZM31.4409 86.137H26.2579V78.259C26.2579 77.567 26.1169 77.067 25.8349 76.759C25.5529 76.451 25.2119 76.2957 24.8119 76.293C24.4119 76.293 23.9756 76.4793 23.5029 76.852C23.0303 77.2247 22.6846 77.7037 22.4659 78.289V86.141H17.2829V78.259C17.2829 77.567 17.1419 77.067 16.8599 76.759C16.5779 76.451 16.2369 76.2957 15.8369 76.293C15.4369 76.293 15.0006 76.4737 14.5279 76.835C14.0553 77.1963 13.7096 77.661 13.4909 78.229V86.141H8.30894V71.979H12.9739V74.121C13.4833 73.3523 14.1833 72.7667 15.0739 72.364C15.9646 71.9613 17.0193 71.7613 18.2379 71.764C19.4199 71.764 20.3109 72.0143 20.9109 72.515C21.5109 73.0157 21.9109 73.579 22.1109 74.205C22.6203 73.4363 23.3203 72.8363 24.2109 72.405C25.1016 71.9737 26.1016 71.759 27.2109 71.761C28.1563 71.761 28.9109 71.931 29.4749 72.271C30.0389 72.611 30.4639 73.049 30.7499 73.585C31.0319 74.1183 31.2183 74.677 31.3089 75.261C31.3996 75.845 31.4449 76.3783 31.4449 76.861L31.4409 86.137ZM41.0159 86.41C39.7433 86.41 38.6156 86.2133 37.6329 85.82C36.6503 85.4267 35.8273 84.8853 35.1639 84.196C34.4973 83.5073 33.9973 82.725 33.6639 81.849C33.3306 80.973 33.1639 80.052 33.1639 79.086C33.1639 78.12 33.3306 77.1943 33.6639 76.309C33.9973 75.4237 34.4973 74.6413 35.1639 73.962C35.8306 73.2827 36.6536 72.746 37.6329 72.352C38.6123 71.958 39.7399 71.7613 41.0159 71.762C42.3073 71.762 43.4406 71.9587 44.4159 72.352C45.3913 72.7453 46.2096 73.282 46.8709 73.962C47.5376 74.6413 48.0376 75.4237 48.3709 76.309C48.7043 77.1943 48.8709 78.12 48.8709 79.086C48.8709 80.052 48.7043 80.973 48.3709 81.849C48.0376 82.725 47.5376 83.5073 46.8709 84.196C46.2043 84.8847 45.3859 85.4257 44.4159 85.819C43.4459 86.2123 42.3126 86.408 41.0159 86.406V86.41ZM38.4789 79.086C38.4789 79.6973 38.5879 80.2257 38.8059 80.671C39.0239 81.1163 39.3239 81.4567 39.7059 81.692C40.0879 81.928 40.5243 82.046 41.0149 82.046C41.5056 82.046 41.9419 81.928 42.3239 81.692C42.7059 81.456 43.0059 81.1157 43.2239 80.671C43.4419 80.2263 43.5509 79.698 43.5509 79.086C43.5509 78.4747 43.4419 77.9463 43.2239 77.501C43.0059 77.0557 42.7059 76.7153 42.3239 76.48C41.9419 76.244 41.5056 76.126 41.0149 76.126C40.5243 76.126 40.0879 76.244 39.7059 76.48C39.3239 76.716 39.0239 77.0563 38.8059 77.501C38.5879 77.9457 38.4789 78.4747 38.4789 79.086ZM65.1299 86.137H59.9499V78.259C59.9499 77.567 59.7909 77.067 59.4729 76.759C59.1549 76.451 58.7883 76.2957 58.3729 76.293C58.0823 76.293 57.7733 76.3747 57.4459 76.538C57.1186 76.7013 56.8186 76.9293 56.5459 77.222C56.2733 77.5147 56.0549 77.8503 55.8909 78.229V86.141H50.6989V71.979H55.3639V74.121C55.7093 73.6023 56.1456 73.169 56.6729 72.821C57.2003 72.473 57.8096 72.2093 58.5009 72.03C59.1923 71.8513 59.9469 71.762 60.7649 71.762C61.7469 71.762 62.5289 71.932 63.1109 72.272C63.6929 72.612 64.1293 73.05 64.4199 73.586C64.7106 74.1193 64.9016 74.678 64.9929 75.262C65.0843 75.846 65.1296 76.3793 65.1289 76.862L65.1299 86.137ZM74.7049 86.41C73.4503 86.41 72.3319 86.2173 71.3499 85.832C70.3679 85.4467 69.5449 84.9227 68.8809 84.26C68.2143 83.5973 67.7096 82.836 67.3669 81.976C67.0243 81.116 66.8519 80.2113 66.8499 79.262C66.8499 77.9047 67.1499 76.659 67.7499 75.525C68.3499 74.391 69.2319 73.48 70.3959 72.792C71.5599 72.1047 72.9966 71.761 74.7059 71.761C76.4153 71.761 77.8519 72.1013 79.0159 72.782C80.1799 73.4627 81.0619 74.3583 81.6619 75.469C82.2619 76.5797 82.5619 77.7887 82.5619 79.096C82.5619 79.3627 82.5483 79.636 82.5209 79.916C82.4936 80.196 82.4603 80.4423 82.4209 80.655H72.3589C72.3956 81.1383 72.5366 81.531 72.7819 81.833C73.0273 82.135 73.3363 82.355 73.7089 82.493C74.0816 82.631 74.4679 82.7 74.8679 82.7C75.4319 82.7 75.9653 82.5727 76.4679 82.318C76.9706 82.0633 77.3039 81.7087 77.4679 81.254L81.8499 82.506C81.4679 83.27 80.9346 83.943 80.2499 84.525C79.5653 85.107 78.7626 85.5673 77.8419 85.906C76.9139 86.2393 75.8683 86.406 74.7049 86.406V86.41ZM72.2499 77.544H76.9959C76.9413 77.1 76.8079 76.7243 76.5959 76.417C76.3839 76.1097 76.1113 75.8707 75.7779 75.7C75.4446 75.5293 75.0583 75.444 74.6189 75.444C74.1796 75.444 73.7933 75.5293 73.4599 75.7C73.1266 75.8707 72.8539 76.1097 72.6419 76.417C72.4299 76.7243 72.2993 77.1 72.2499 77.544ZM83.6249 87.582C84.0429 87.7273 84.4293 87.841 84.7839 87.923C85.1386 88.005 85.4613 88.046 85.7519 88.046C86.1339 88.046 86.4523 87.9793 86.7069 87.846C86.9616 87.7127 87.1616 87.5043 87.3069 87.221C87.4523 86.9403 87.5433 86.599 87.5799 86.197L82.3699 71.979H87.6889L90.4169 80.923L92.6269 71.979H97.4499L92.5989 87.894C92.3263 88.8127 91.8806 89.6187 91.2619 90.312C90.6433 91.0053 89.9059 91.5467 89.0499 91.936C88.1953 92.3247 87.2769 92.519 86.2949 92.519C85.8403 92.519 85.3903 92.478 84.9449 92.396C84.4996 92.314 84.0586 92.1807 83.6219 91.996L83.6249 87.582ZM114.04 86.406C113.003 86.406 112.103 86.206 111.34 85.806C110.577 85.406 109.986 84.8203 109.567 84.049V91.949H104.384V71.979H108.884V74.149C109.393 73.3797 110.027 72.7893 110.784 72.378C111.541 71.9667 112.455 71.761 113.525 71.761C114.489 71.761 115.371 71.94 116.171 72.298C116.971 72.656 117.671 73.1657 118.271 73.827C118.871 74.489 119.335 75.258 119.662 76.134C119.989 77.01 120.153 77.9767 120.153 79.034C120.153 80.4473 119.889 81.7083 119.362 82.817C118.835 83.9257 118.112 84.802 117.193 85.446C116.273 86.086 115.222 86.406 114.04 86.406ZM112.24 82.041C112.622 82.041 112.972 81.9623 113.29 81.805C113.608 81.6477 113.885 81.4293 114.122 81.15C114.359 80.8707 114.541 80.5477 114.668 80.181C114.795 79.8143 114.859 79.4227 114.859 79.006C114.859 78.5693 114.792 78.1763 114.659 77.827C114.526 77.4777 114.33 77.1777 114.073 76.927C113.818 76.6737 113.518 76.4773 113.173 76.338C112.828 76.1987 112.446 76.129 112.027 76.129C111.79 76.129 111.557 76.1587 111.327 76.218C111.097 76.2773 110.883 76.3623 110.686 76.473C110.486 76.5837 110.291 76.724 110.1 76.894C109.909 77.064 109.732 77.268 109.568 77.506V79.947C109.731 80.347 109.954 80.706 110.236 81.024C110.518 81.342 110.832 81.5927 111.177 81.776C111.522 81.9553 111.876 82.045 112.24 82.045V82.041ZM129.098 86.406C127.825 86.406 126.697 86.2093 125.715 85.816C124.733 85.4227 123.911 84.8827 123.25 84.196C122.583 83.5073 122.083 82.725 121.75 81.849C121.417 80.973 121.25 80.052 121.25 79.086C121.25 78.12 121.417 77.1943 121.75 76.309C122.083 75.4237 122.583 74.6413 123.25 73.962C123.917 73.2827 124.74 72.746 125.719 72.352C126.698 71.958 127.826 71.7613 129.102 71.762C130.393 71.762 131.527 71.9587 132.502 72.352C133.477 72.7453 134.293 73.2817 134.95 73.961C135.617 74.6403 136.117 75.4227 136.45 76.308C136.783 77.1933 136.95 78.119 136.95 79.085C136.95 80.051 136.783 80.972 136.45 81.848C136.117 82.724 135.617 83.5067 134.95 84.196C134.283 84.8847 133.465 85.4257 132.495 85.819C131.525 86.2123 130.393 86.408 129.098 86.406ZM126.561 79.082C126.561 79.6933 126.67 80.2217 126.888 80.667C127.106 81.1123 127.406 81.4527 127.788 81.688C128.17 81.924 128.606 82.042 129.097 82.042C129.588 82.042 130.024 81.924 130.406 81.688C130.788 81.452 131.088 81.1117 131.306 80.667C131.524 80.2223 131.633 79.694 131.633 79.082C131.633 78.4707 131.524 77.9423 131.306 77.497C131.088 77.0517 130.788 76.7113 130.406 76.476C130.024 76.24 129.588 76.122 129.097 76.122C128.606 76.122 128.17 76.24 127.788 76.476C127.406 76.712 127.106 77.0523 126.888 77.497C126.67 77.9417 126.561 78.471 126.561 79.085V79.082ZM148.629 85.315C148.156 85.515 147.652 85.7013 147.115 85.874C146.982 85.9173 146.848 85.958 146.715 85.996C146.582 86.034 146.446 86.0697 146.308 86.103C146.175 86.1357 146.038 86.166 145.897 86.194C145.756 86.222 145.618 86.2473 145.483 86.27C144.928 86.3607 144.387 86.406 143.86 86.406C143.078 86.406 142.36 86.277 141.705 86.019C141.05 85.761 140.527 85.3333 140.136 84.736C139.745 84.136 139.55 83.3297 139.55 82.317V75.88H137.777V71.98H139.55V67.48H144.733V71.98H147.543V75.88H144.733V80.455C144.733 80.911 144.833 81.231 145.033 81.415C145.233 81.599 145.506 81.691 145.851 81.691C146.106 81.691 146.397 81.6457 146.724 81.555C147.051 81.4643 147.379 81.3553 147.706 81.228L148.629 85.315Z" fill="white"/>
</g>
<defs>
<filter id="filter0_d_1_2536" x="0.835938" y="0" width="199.835" height="101.519" filterUnits="userSpaceOnUse" color-interpolation-filters="sRGB">
<feFlood flood-opacity="0" result="BackgroundImageFix"/>
<feColorMatrix in="SourceAlpha" type="matrix" values="0 0 0 0 0 0 0 0 0 0 0 0 0 0 0 0 0 0 127 0" result="hardAlpha"/>
<feOffset dy="3"/>
<feGaussianBlur stdDeviation="3"/>
<feColorMatrix type="matrix" values="0 0 0 0 0 0 0 0 0 0 0 0 0 0 0 0 0 0 0.161 0"/>
<feBlend mode="normal" in2="BackgroundImageFix" result="effect1_dropShadow_1_2536"/>
<feBlend mode="normal" in="SourceGraphic" in2="effect1_dropShadow_1_2536" result="shape"/>
</filter>
</defs>
</svg>
