<svg width="239" height="370" viewBox="0 0 239 370" fill="none" xmlns="http://www.w3.org/2000/svg">
<path d="M105.978 281.832L108.303 279.667L118.958 291.132L129.614 279.669L131.939 281.834L118.957 295.795L105.978 281.832Z" fill="#48DBFB"/>
<path d="M0.000114441 118.962C-0.0293205 103.062 3.15292 87.3191 9.35607 72.6784C15.3332 58.5429 23.9952 45.7008 34.8622 34.8635C45.6995 23.9965 58.5415 15.3346 72.6771 9.35751C87.3193 3.15363 103.064 -0.0287574 118.966 0.00143352V3.17648C103.757 3.13919 88.6905 6.11901 74.6402 11.9434C60.59 17.7679 47.8346 26.3213 37.1122 37.1085C26.3251 47.831 17.7718 60.5864 11.9474 74.6367C6.12295 88.6869 3.14316 103.753 3.18029 118.962C3.15103 146.063 12.6391 172.314 29.9891 193.133C47.3391 213.952 71.4491 228.018 98.1112 232.875C104.427 234.04 110.134 237.385 114.236 242.327C118.337 247.269 120.573 253.495 120.553 259.917V292.349H117.379V259.917C117.399 254.238 115.424 248.733 111.798 244.361C108.173 239.99 103.128 237.03 97.5431 235.999C70.3669 231.006 45.7712 216.722 27.9662 195.592C19.1506 185.153 12.2064 173.268 7.4403 160.462C2.50042 147.185 -0.0196122 133.129 0.000114441 118.962V118.962Z" fill="#48DBFB"/>
<path d="M14.8079 118.963C14.8079 176.484 61.4375 223.113 118.958 223.113C176.478 223.113 223.108 176.484 223.108 118.963C223.108 61.4428 176.478 14.8132 118.958 14.8132C61.4375 14.8132 14.8079 61.4428 14.8079 118.963Z" fill="#F7F7F7"/>
<path d="M129.178 207.583L132.336 207.261L134.952 232.893C135.939 238.435 138.415 243.603 142.116 247.844C145.816 252.086 150.601 255.24 155.958 256.969C167.77 260.803 178.911 266.459 188.977 273.731C198.945 280.923 207.752 289.6 215.091 299.46C230.306 319.822 238.591 344.526 238.729 369.944L235.554 369.969C235.387 345.495 227.512 321.695 213.047 301.951C198.582 282.208 178.264 267.524 154.978 259.987C149.064 258.078 143.782 254.592 139.701 249.905C135.62 245.218 132.893 239.508 131.815 233.387L131.799 233.271L129.178 207.583Z" fill="#33F1C6"/>
<path d="M118.96 3.17527V0.000222324C134.867 -0.0306265 150.617 3.14918 165.266 9.34922C179.401 15.32 192.242 23.9779 203.078 34.8423C213.942 45.678 222.6 58.5199 228.571 72.6553C234.771 87.304 237.951 103.053 237.92 118.96C237.937 132.655 235.583 146.25 230.963 159.142C226.501 171.576 219.992 183.177 211.705 193.465C203.491 203.687 193.648 212.484 182.572 219.503C171.326 226.643 158.954 231.829 145.978 234.84L145.26 231.748C170.765 225.901 193.521 211.548 209.784 191.05C226.048 170.551 234.851 145.128 234.746 118.961C234.711 88.2636 222.501 58.833 200.794 37.1264C179.088 15.4199 149.657 3.20994 118.96 3.17527V3.17527Z" fill="#20D1F3"/>
</svg>
