<svg width="239" height="489" viewBox="0 0 239 489" fill="none" xmlns="http://www.w3.org/2000/svg">
<path d="M0.000244141 369.1C0.00328936 341.203 9.80762 314.193 27.7004 292.789C45.5933 271.385 70.4372 256.948 97.8923 252L98.4514 255.125C71.71 259.901 47.5045 273.942 30.0823 294.783C12.66 315.625 3.13379 341.937 3.17529 369.101C3.17529 433.038 55.5322 485.055 119.886 485.055V488.229C103.932 488.25 88.1356 485.062 73.4382 478.854C44.7443 466.752 21.8357 444.031 9.49731 415.438C3.2086 400.8 -0.0232183 385.032 0.000244141 369.1V369.1Z" fill="#1FD0F4"/>
<path d="M-0.000350952 116.544C-0.00314586 89.1524 9.44592 62.5987 26.7514 41.3661C44.0568 20.1335 68.1585 5.52253 94.9877 0L95.6237 3.10999C42.0547 14.072 3.1747 61.778 3.1747 116.544C3.14605 143.642 12.6328 169.89 29.9796 190.709C47.3265 211.527 71.432 225.594 98.0907 230.455C104.409 231.618 110.118 234.963 114.223 239.905C118.327 244.848 120.565 251.075 120.548 257.499V288.004H117.374V257.499C117.391 251.818 115.414 246.311 111.786 241.939C108.158 237.567 103.11 234.607 97.5226 233.577C70.1336 228.58 45.3681 214.128 27.5453 192.739C9.72252 171.351 -0.0262713 144.384 -0.000350952 116.543V116.544Z" fill="#1FCFF7"/>
<path d="M105.978 277.487L108.303 275.322L118.958 286.787L129.614 275.324L131.939 277.489L118.957 291.45L105.978 277.487Z" fill="#1FCFF7"/>
<path d="M223.109 114.512C223.108 92.5354 216.158 71.1218 203.254 53.3332C190.349 35.5445 172.15 22.2918 151.259 15.47C149.882 15.0206 148.417 14.9128 146.989 15.1557C145.562 15.3987 144.215 15.9853 143.064 16.8648C141.913 17.7443 140.994 18.8904 140.385 20.2043C139.776 21.5183 139.495 22.9606 139.568 24.407C139.58 24.6603 139.587 24.9146 139.59 25.17C139.616 27.8861 139.106 30.5807 138.088 33.0991C137.071 35.6176 135.566 37.9103 133.66 39.8458C131.754 41.7812 129.485 43.3213 126.982 44.3777C124.48 45.4341 121.794 45.9861 119.077 46.0018C116.361 46.0175 113.669 45.4968 111.154 44.4694C108.64 43.4421 106.353 41.9283 104.425 40.0151C102.496 38.1018 100.965 35.8267 99.9185 33.3202C98.8717 30.8137 98.3302 28.1252 98.325 25.4089C98.325 25.0403 98.3347 24.6736 98.354 24.3089C98.4155 22.8661 98.1254 21.4299 97.5085 20.124C96.8917 18.8182 95.9665 17.6818 94.813 16.8129C93.6595 15.9439 92.3121 15.3683 90.8867 15.1358C89.4614 14.9032 88.0008 15.0207 86.6309 15.478C68.3752 21.436 52.1221 32.3247 39.667 46.9411C27.2119 61.5575 19.04 79.3326 16.054 98.3023C13.0679 117.272 15.3841 136.698 22.7466 154.434C30.1091 172.17 42.2314 187.525 57.7739 198.803C73.3165 210.081 91.6741 216.843 110.819 218.342C129.964 219.841 149.15 216.018 166.258 207.296C183.366 198.573 197.73 185.291 207.763 168.917C217.796 152.543 223.107 133.714 223.109 114.511V114.512Z" fill="#F7F7F7"/>
<path d="M223.108 368.615C223.154 346.606 216.229 325.147 203.326 307.317C190.424 289.486 172.206 276.2 151.286 269.362C149.941 268.921 148.511 268.807 147.113 269.028C145.715 269.25 144.39 269.801 143.247 270.636C142.104 271.471 141.177 272.566 140.541 273.83C139.905 275.095 139.58 276.493 139.591 277.908V278.253C139.572 283.725 137.379 288.966 133.496 292.821C129.613 296.677 124.358 298.833 118.885 298.813C113.413 298.794 108.173 296.602 104.317 292.719C100.461 288.836 98.3057 283.58 98.325 278.108V277.966C98.3408 276.547 98.0186 275.145 97.385 273.875C96.7514 272.605 95.8245 271.505 94.6812 270.664C93.5378 269.824 92.2107 269.268 90.8098 269.042C89.4089 268.816 87.9745 268.927 86.625 269.366C68.3788 275.322 52.133 286.204 39.6812 300.811C27.2293 315.417 19.0556 333.18 16.062 352.139C13.0684 371.098 15.3715 390.515 22.717 408.248C30.0626 425.98 42.165 441.338 57.6882 452.627C73.2115 463.915 91.5518 470.695 110.685 472.217C129.818 473.74 149 469.946 166.114 461.255C183.227 452.564 197.606 439.313 207.664 422.966C217.721 406.618 223.066 387.81 223.109 368.616L223.108 368.615Z" fill="#F7F7F7"/>
<path d="M119.804 485.262C147.496 485.058 174.212 475.005 195.17 456.904C216.127 438.803 229.96 413.835 234.192 386.467C238.424 359.1 232.778 331.12 218.266 307.534C203.754 283.948 181.323 266.296 154.986 257.737C149.072 255.828 143.79 252.342 139.709 247.655C135.627 242.968 132.901 237.258 131.822 231.137L131.806 231.021L129.181 205.284L132.339 204.962L134.958 230.641C135.945 236.184 138.421 241.353 142.122 245.595C145.822 249.838 150.608 252.993 155.965 254.722C183.02 263.514 206.063 281.646 220.971 305.874C235.879 330.102 241.678 358.844 237.331 386.957C232.984 415.07 218.774 440.719 197.245 459.313C175.716 477.907 148.273 488.232 119.826 488.441L119.804 485.262Z" fill="#34F2C7"/>
<path d="M128.562 209.584C130.897 210.809 133.783 209.91 135.008 207.575C136.233 205.241 135.334 202.355 132.999 201.13C130.665 199.904 127.779 200.804 126.554 203.138C125.328 205.473 126.228 208.359 128.562 209.584Z" fill="#34F2C7"/>
<path d="M235.533 116.622C235.556 115.508 235.564 114.379 235.554 113.266L238.729 113.241C238.738 114.384 238.729 115.541 238.707 116.688L235.533 116.622Z" fill="#727272"/>
<path d="M161.376 222.827C163.361 222.049 165.352 221.203 167.294 220.314L168.615 223.201C166.615 224.114 164.573 224.983 162.534 225.782L161.376 222.827ZM176.823 215.41C178.674 214.347 180.523 213.218 182.31 212.054L184.04 214.715C182.201 215.915 180.305 217.071 178.404 218.163L176.823 215.41ZM191.023 205.81C192.699 204.487 194.362 203.101 195.964 201.688L198.064 204.069C196.418 205.52 194.711 206.944 192.99 208.302L191.023 205.81ZM203.675 194.236C205.142 192.683 206.586 191.069 207.966 189.436L210.389 191.487C208.972 193.161 207.489 194.819 205.983 196.413L203.675 194.236ZM214.513 180.946C215.739 179.196 216.933 177.388 218.06 175.575L220.76 177.251C219.602 179.114 218.377 180.97 217.117 182.768L214.513 180.946ZM223.298 166.217C224.255 164.305 225.171 162.343 226.02 160.383L228.933 161.645C228.061 163.658 227.12 165.675 226.133 167.639L223.298 166.217ZM229.823 150.355C230.488 148.323 231.104 146.246 231.654 144.182L234.721 145C234.155 147.121 233.521 149.255 232.839 151.343L229.823 150.355ZM233.932 133.699C234.288 131.599 234.59 129.452 234.832 127.328L237.986 127.684C237.74 129.865 237.43 132.067 237.064 134.229L233.932 133.699Z" fill="#727272"/>
<path d="M147.969 227.161C149.05 226.883 150.138 226.586 151.206 226.278L152.085 229.328C150.985 229.644 149.869 229.949 148.76 230.235L147.969 227.161Z" fill="#727272"/>
</svg>
