<svg width="16" height="15" viewBox="0 0 16 15" fill="none" xmlns="http://www.w3.org/2000/svg">
<path d="M11.4861 0.234863H4.9681C3.90393 0.236186 2.88372 0.659514 2.13124 1.412C1.37875 2.16448 0.955425 3.18469 0.954102 4.24886L0.954102 10.7669C0.955425 11.831 1.37875 12.8512 2.13124 13.6037C2.88372 14.3562 3.90393 14.7795 4.9681 14.7809H11.4861C12.5503 14.7795 13.5705 14.3562 14.323 13.6037C15.0755 12.8512 15.4988 11.831 15.5001 10.7669V4.24886C15.4988 3.18469 15.0755 2.16448 14.323 1.412C13.5705 0.659514 12.5503 0.236186 11.4861 0.234863V0.234863ZM14.2101 10.7669C14.2093 11.4891 13.9221 12.1815 13.4114 12.6921C12.9007 13.2028 12.2083 13.4901 11.4861 13.4909H4.9681C4.2459 13.4901 3.5535 13.2028 3.04282 12.6921C2.53214 12.1815 2.2449 11.4891 2.2441 10.7669V4.24886C2.24516 3.52683 2.53252 2.83469 3.04317 2.32423C3.55382 1.81377 4.24607 1.52666 4.9681 1.52586H11.4861C12.2083 1.52666 12.9007 1.8139 13.4114 2.32458C13.9221 2.83526 14.2093 3.52766 14.2101 4.24986V10.7679V10.7669Z" fill="#102F35"/>
<path d="M8.22694 3.7627C7.48625 3.7627 6.76219 3.98233 6.14632 4.39384C5.53046 4.80535 5.05046 5.39023 4.76701 6.07454C4.48356 6.75885 4.40939 7.51185 4.55389 8.23831C4.6984 8.96477 5.05507 9.63206 5.57882 10.1558C6.10257 10.6796 6.76986 11.0362 7.49632 11.1807C8.22278 11.3252 8.97577 11.2511 9.66008 10.9676C10.3444 10.6842 10.9293 10.2042 11.3408 9.58831C11.7523 8.97244 11.9719 8.24839 11.9719 7.50769C11.9709 6.51478 11.576 5.56284 10.8739 4.86075C10.1718 4.15865 9.21985 3.76375 8.22694 3.7627ZM8.22694 9.96269C7.74138 9.96269 7.26673 9.81871 6.86301 9.54895C6.45929 9.27919 6.14463 8.89577 5.95881 8.44718C5.773 7.99859 5.72438 7.50497 5.81911 7.02875C5.91383 6.55252 6.14765 6.11509 6.49099 5.77175C6.83433 5.42841 7.27177 5.19459 7.74799 5.09986C8.22421 5.00514 8.71783 5.05376 9.16642 5.23957C9.61502 5.42538 9.99843 5.74005 10.2682 6.14377C10.538 6.54749 10.6819 7.02214 10.6819 7.50769C10.6811 8.15856 10.4222 8.78253 9.96201 9.24276C9.50178 9.70299 8.8778 9.9619 8.22694 9.96269Z" fill="#102F35"/>
<path d="M12.1323 2.66504C11.9132 2.66521 11.701 2.74134 11.5317 2.88045C11.3625 3.01956 11.2467 3.21306 11.2041 3.42796C11.1615 3.64287 11.1948 3.86589 11.2982 4.05903C11.4016 4.25218 11.5688 4.40349 11.7712 4.48719C11.9737 4.5709 12.1989 4.58182 12.4085 4.51809C12.6181 4.45436 12.7992 4.31992 12.9208 4.13768C13.0424 3.95545 13.097 3.73669 13.0754 3.51867C13.0538 3.30065 12.9573 3.09687 12.8023 2.94204C12.6243 2.76486 12.3834 2.66528 12.1323 2.66504Z" fill="#102F35"/>
</svg>
