<svg
  width="60"
  height="60"
  viewBox="0 0 60 60"
  fill="none"
  xmlns="http://www.w3.org/2000/svg"
>
  <g filter="url(#filter0_d_0_1)">
    <path
      d="M30 40C41.0457 40 50 31.0457 50 20C50 8.9543 41.0457 0 30 0C18.9543 0 10 8.9543 10 20C10 31.0457 18.9543 40 30 40Z"
      fill="url(#paint0_linear_0_1)"
    />
  </g>
  <path
    d="M34.481 10H25.519C24.0558 10.0019 22.6531 10.5839 21.6185 11.6185C20.5839 12.6531 20.0019 14.0558 20 15.519V24.48C20.0013 25.9434 20.5832 27.3465 21.6179 28.3814C22.6526 29.4163 24.0556 29.9984 25.519 30H34.48C35.9433 29.9984 37.3463 29.4165 38.3811 28.3818C39.416 27.3472 39.9981 25.9443 40 24.481V15.519C39.9984 14.0558 39.4164 12.6529 38.3818 11.6182C37.3471 10.5836 35.9442 10.0016 34.481 10V10ZM38.226 24.481C38.2249 25.4739 37.83 26.4258 37.1279 27.1279C36.4258 27.83 35.4739 28.2249 34.481 28.226H25.519C24.5261 28.2249 23.5741 27.83 22.8721 27.1279C22.17 26.4258 21.7751 25.4739 21.774 24.481V15.519C21.7751 14.5261 22.17 13.5741 22.8721 12.8721C23.5741 12.17 24.5261 11.7751 25.519 11.774H34.48C35.4729 11.7751 36.4249 12.17 37.1269 12.8721C37.829 13.5741 38.2239 14.5261 38.225 15.519V24.48L38.226 24.481Z"
    fill="white"
  />
  <path
    d="M30.0001 14.851C28.9817 14.851 27.9862 15.1529 27.1394 15.7187C26.2927 16.2845 25.6327 17.0887 25.243 18.0295C24.8533 18.9704 24.7513 20.0057 24.95 21.0045C25.1487 22.0033 25.6391 22.9207 26.3592 23.6408C27.0793 24.3609 27.9967 24.8513 28.9956 25.05C29.9944 25.2487 31.0297 25.1467 31.9705 24.757C32.9114 24.3673 33.7155 23.7073 34.2813 22.8606C34.8471 22.0138 35.1491 21.0183 35.1491 20C35.1475 18.6348 34.6045 17.3261 33.6392 16.3608C32.6739 15.3955 31.3652 14.8525 30.0001 14.851ZM30.0001 23.3759C29.3324 23.3759 28.6797 23.178 28.1245 22.807C27.5693 22.436 27.1366 21.9088 26.8811 21.2919C26.6255 20.675 26.5587 19.9962 26.6889 19.3413C26.8192 18.6864 27.1407 18.0849 27.6129 17.6128C28.085 17.1406 28.6866 16.8191 29.3415 16.6888C29.9963 16.5586 30.6751 16.6254 31.292 16.8809C31.9089 17.1365 32.4362 17.5692 32.8071 18.1243C33.1781 18.6795 33.3761 19.3322 33.3761 20C33.375 20.895 33.019 21.7531 32.3861 22.386C31.7532 23.0189 30.8951 23.3749 30.0001 23.3759Z"
    fill="white"
  />
  <path
    d="M35.369 13.342C35.0684 13.3424 34.7771 13.447 34.5448 13.6379C34.3126 13.8289 34.1538 14.0945 34.0953 14.3895C34.0369 14.6844 34.0825 14.9905 34.2245 15.2556C34.3664 15.5207 34.5958 15.7284 34.8736 15.8433C35.1515 15.9582 35.4606 15.9733 35.7483 15.886C36.036 15.7986 36.2845 15.6142 36.4515 15.3642C36.6186 15.1142 36.6938 14.814 36.6643 14.5147C36.6349 14.2155 36.5026 13.9357 36.29 13.723C36.0453 13.4795 35.7143 13.3425 35.369 13.342Z"
    fill="white"
  />
  <defs>
    <filter
      id="filter0_d_0_1"
      x="0"
      y="0"
      width="60"
      height="60"
      filterUnits="userSpaceOnUse"
      color-interpolation-filters="sRGB"
    >
      <feFlood flood-opacity="0" result="BackgroundImageFix" />
      <feColorMatrix
        in="SourceAlpha"
        type="matrix"
        values="0 0 0 0 0 0 0 0 0 0 0 0 0 0 0 0 0 0 127 0"
        result="hardAlpha"
      />
      <feOffset dy="10" />
      <feGaussianBlur stdDeviation="5" />
      <feColorMatrix
        type="matrix"
        values="0 0 0 0 0.294118 0 0 0 0 0.294118 0 0 0 0 0.294118 0 0 0 0.149 0"
      />
      <feBlend
        mode="normal"
        in2="BackgroundImageFix"
        result="effect1_dropShadow_0_1"
      />
      <feBlend
        mode="normal"
        in="SourceGraphic"
        in2="effect1_dropShadow_0_1"
        result="shape"
      />
    </filter>
    <linearGradient
      id="paint0_linear_0_1"
      x1="49.12"
      y1="20"
      x2="10"
      y2="20"
      gradientUnits="userSpaceOnUse"
    >
      <stop stop-color="#34F2C6" />
      <stop offset="1" stop-color="#1ECEF7" />
    </linearGradient>
  </defs>
</svg>
