<svg width="26" height="38" viewBox="0 0 26 38" fill="none" xmlns="http://www.w3.org/2000/svg">
<path d="M13 0.428959C11.2924 0.427644 9.60139 0.763001 8.02356 1.41585C6.44574 2.06869 5.01211 3.02621 3.80468 4.23364C2.59726 5.44106 1.63974 6.87469 0.986892 8.45252C0.334046 10.0303 -0.00131117 11.7214 3.85243e-06 13.429C3.85243e-06 23.179 13 37.572 13 37.572C13 37.572 26 23.179 26 13.429C26.0013 11.7214 25.666 10.0303 25.0131 8.45252C24.3603 6.87469 23.4027 5.44106 22.1953 4.23364C20.9879 3.02621 19.5543 2.06869 17.9764 1.41585C16.3986 0.763001 14.7076 0.427644 13 0.428959ZM13 18.072C12.0817 18.072 11.184 17.7997 10.4205 17.2895C9.65695 16.7793 9.06185 16.0542 8.71043 15.2058C8.35901 14.3574 8.26707 13.4238 8.44622 12.5232C8.62537 11.6225 9.06757 10.7952 9.71691 10.1459C10.3662 9.49653 11.1935 9.05432 12.0942 8.87517C12.9949 8.69602 13.9284 8.78797 14.7768 9.13939C15.6252 9.4908 16.3503 10.0859 16.8605 10.8494C17.3707 11.613 17.643 12.5107 17.643 13.429C17.6425 14.6602 17.1531 15.8409 16.2825 16.7115C15.4119 17.5821 14.2312 18.0714 13 18.072Z" fill="#21D2F0"/>
</svg>
