<svg width="60" height="54" viewBox="0 0 60 54" fill="none" xmlns="http://www.w3.org/2000/svg">
<path d="M42.2739 39.801L28.9369 53.135L15.4819 39.676L5.52591 29.72L3.00391 27.198V0.97998L28.7359 26.413L28.8579 26.534L42.2739 39.801Z" fill="url(#paint0_linear_1_2195)"/>
<path d="M54.7578 0.97998V27.199L28.8248 53.135L15.4878 39.801L28.9498 26.493L54.7578 0.97998Z" fill="url(#paint1_linear_1_2195)"/>
<g filter="url(#filter0_d_1_2195)">
<path d="M54.7602 0.980957V20.952C51.1802 25.152 43.6602 27.941 28.9482 26.494C28.9012 26.494 28.8532 26.488 28.8062 26.482L54.7602 0.980957Z" fill="url(#paint2_linear_1_2195)"/>
</g>
<g filter="url(#filter1_d_1_2195)">
<path d="M28.9598 26.4359L28.8598 26.5359L15.4838 39.6779L5.52783 29.7219C9.73383 26.8559 16.9028 25.2609 28.7378 26.4139L28.8178 26.4229C28.8598 26.4279 28.9108 26.4309 28.9598 26.4359Z" fill="url(#paint3_linear_1_2195)"/>
</g>
<defs>
<filter id="filter0_d_1_2195" x="23.8062" y="0.980957" width="35.9541" height="36.8992" filterUnits="userSpaceOnUse" color-interpolation-filters="sRGB">
<feFlood flood-opacity="0" result="BackgroundImageFix"/>
<feColorMatrix in="SourceAlpha" type="matrix" values="0 0 0 0 0 0 0 0 0 0 0 0 0 0 0 0 0 0 127 0" result="hardAlpha"/>
<feOffset dy="6"/>
<feGaussianBlur stdDeviation="2.5"/>
<feColorMatrix type="matrix" values="0 0 0 0 0 0 0 0 0 0 0 0 0 0 0 0 0 0 0.102 0"/>
<feBlend mode="normal" in2="BackgroundImageFix" result="effect1_dropShadow_1_2195"/>
<feBlend mode="normal" in="SourceGraphic" in2="effect1_dropShadow_1_2195" result="shape"/>
</filter>
<filter id="filter1_d_1_2195" x="0.527832" y="10.0361" width="33.4321" height="29.6418" filterUnits="userSpaceOnUse" color-interpolation-filters="sRGB">
<feFlood flood-opacity="0" result="BackgroundImageFix"/>
<feColorMatrix in="SourceAlpha" type="matrix" values="0 0 0 0 0 0 0 0 0 0 0 0 0 0 0 0 0 0 127 0" result="hardAlpha"/>
<feOffset dy="-11"/>
<feGaussianBlur stdDeviation="2.5"/>
<feColorMatrix type="matrix" values="0 0 0 0 0 0 0 0 0 0 0 0 0 0 0 0 0 0 0.102 0"/>
<feBlend mode="normal" in2="BackgroundImageFix" result="effect1_dropShadow_1_2195"/>
<feBlend mode="normal" in="SourceGraphic" in2="effect1_dropShadow_1_2195" result="shape"/>
</filter>
<linearGradient id="paint0_linear_1_2195" x1="2.84683" y1="26.9532" x2="42.3529" y2="27.101" gradientUnits="userSpaceOnUse">
<stop stop-color="#1DCCF8"/>
<stop offset="1" stop-color="#35F3C4"/>
</linearGradient>
<linearGradient id="paint1_linear_1_2195" x1="15.5663" y1="26.901" x2="54.7582" y2="27.0489" gradientUnits="userSpaceOnUse">
<stop stop-color="#1DCCF8"/>
<stop offset="1" stop-color="#35F3C4"/>
</linearGradient>
<linearGradient id="paint2_linear_1_2195" x1="28.8062" y1="13.9305" x2="54.7602" y2="13.9305" gradientUnits="userSpaceOnUse">
<stop stop-color="#1DCCF8"/>
<stop offset="1" stop-color="#35F3C4"/>
</linearGradient>
<linearGradient id="paint3_linear_1_2195" x1="5.52783" y1="32.857" x2="28.9598" y2="32.857" gradientUnits="userSpaceOnUse">
<stop stop-color="#1DCCF8"/>
<stop offset="1" stop-color="#35F3C4"/>
</linearGradient>
</defs>
</svg>
