<svg width="24" height="25" viewBox="0 0 24 25" fill="none" xmlns="http://www.w3.org/2000/svg">
<path d="M12.1408 24.249C18.5893 24.249 23.8168 19.0215 23.8168 12.573C23.8168 6.1245 18.5893 0.896973 12.1408 0.896973C5.69237 0.896973 0.464844 6.1245 0.464844 12.573C0.464844 19.0215 5.69237 24.249 12.1408 24.249Z" fill="#1ECFF5"/>
<path d="M11.5309 14.9595L11.9909 14.9695V16.2695H11.5309V14.9595ZM11.5709 14.8695V8.5095L11.9509 8.4595V14.8895L11.5709 14.8695ZM11.5309 7.0895H11.9909V8.4295L11.5309 8.4795V7.0895ZM13.7409 9.4695C13.6475 9.35617 13.5309 9.25617 13.3909 9.1695C13.2575 9.07617 13.1075 8.99617 12.9409 8.9295C12.7809 8.86283 12.6042 8.8095 12.4109 8.7695C12.2175 8.7295 12.0142 8.7095 11.8009 8.7095C11.1809 8.7095 10.7242 8.8295 10.4309 9.0695C10.1442 9.30284 10.0009 9.62284 10.0009 10.0295C10.0009 10.3095 10.0709 10.5295 10.2109 10.6895C10.3509 10.8495 10.5642 10.9795 10.8509 11.0795C11.1442 11.1795 11.5209 11.2828 11.9809 11.3895C12.4809 11.4962 12.9142 11.6228 13.2809 11.7695C13.6542 11.9162 13.9375 12.1162 14.1309 12.3695C14.3309 12.6162 14.4309 12.9528 14.4309 13.3795C14.4309 13.7062 14.3675 13.9895 14.2409 14.2295C14.1209 14.4695 13.9442 14.6695 13.7109 14.8295C13.4842 14.9895 13.2142 15.1095 12.9009 15.1895C12.5875 15.2628 12.2442 15.2995 11.8709 15.2995C11.5109 15.2995 11.1609 15.2628 10.8209 15.1895C10.4809 15.1095 10.1609 14.9962 9.86087 14.8495C9.56754 14.6962 9.28754 14.5028 9.02087 14.2695L9.37087 13.6995C9.49754 13.8328 9.64754 13.9595 9.82087 14.0795C10.0009 14.1928 10.1975 14.2962 10.4109 14.3895C10.6309 14.4828 10.8642 14.5562 11.1109 14.6095C11.3642 14.6562 11.6242 14.6795 11.8909 14.6795C12.4575 14.6795 12.8975 14.5762 13.2109 14.3695C13.5309 14.1628 13.6909 13.8562 13.6909 13.4495C13.6909 13.1562 13.6109 12.9228 13.4509 12.7495C13.2975 12.5695 13.0609 12.4228 12.7409 12.3095C12.4209 12.1962 12.0242 12.0862 11.5509 11.9795C11.0575 11.8662 10.6409 11.7395 10.3009 11.5995C9.96754 11.4595 9.7142 11.2762 9.54087 11.0495C9.36754 10.8162 9.28087 10.5095 9.28087 10.1295C9.28087 9.6895 9.38754 9.3195 9.60087 9.0195C9.82087 8.71283 10.1209 8.48283 10.5009 8.3295C10.8875 8.1695 11.3242 8.0895 11.8109 8.0895C12.1242 8.0895 12.4142 8.12283 12.6809 8.1895C12.9542 8.2495 13.2042 8.3395 13.4309 8.4595C13.6642 8.5795 13.8809 8.7295 14.0809 8.9095L13.7409 9.4695Z" fill="white"/>
</svg>
