<svg width="25" height="25" viewBox="0 0 25 25" fill="none" xmlns="http://www.w3.org/2000/svg">
<path d="M12.5979 0.897949C10.297 0.897949 8.04782 1.5802 6.13468 2.85842C4.22154 4.13665 2.73038 5.95346 1.84974 8.07912C0.969107 10.2048 0.73854 12.5438 1.1872 14.8005C1.63585 17.0572 2.74359 19.1302 4.37033 20.7574C5.99708 22.3845 8.06978 23.4928 10.3264 23.942C12.5829 24.3913 14.922 24.1613 17.0479 23.2812C19.1738 22.4011 20.991 20.9104 22.2697 18.9976C23.5485 17.0848 24.2313 14.8358 24.2319 12.5349C24.2325 11.0068 23.9321 9.49355 23.3477 8.08158C22.7633 6.66961 21.9064 5.38663 20.826 4.30594C19.7456 3.22526 18.4628 2.36804 17.051 1.78329C15.6392 1.19853 14.126 0.897687 12.5979 0.897949ZM12.5979 5.39795C13.4142 5.39795 14.2122 5.63998 14.891 6.09344C15.5697 6.54689 16.0988 7.19142 16.4114 7.94554C16.7239 8.69966 16.8058 9.52951 16.6468 10.3302C16.4877 11.1309 16.0949 11.8664 15.5179 12.4438C14.9409 13.0213 14.2056 13.4146 13.405 13.5743C12.6045 13.7339 11.7746 13.6526 11.0202 13.3406C10.2659 13.0286 9.62097 12.5 9.16702 11.8215C8.71307 11.1431 8.47047 10.3453 8.46987 9.52895C8.46987 8.98685 8.57665 8.45006 8.7841 7.94923C8.99155 7.4484 9.29561 6.99333 9.67894 6.61001C10.4531 5.83586 11.5031 5.40095 12.5979 5.40095V5.39795ZM12.5979 21.5359C11.2884 21.5351 9.99493 21.2482 8.80792 20.6953C7.62091 20.1424 6.56903 19.3368 5.72587 18.3349C6.16819 17.492 6.83222 16.7857 7.64636 16.2923C8.4605 15.7988 9.39388 15.537 10.3459 15.5349C10.4588 15.5358 10.571 15.5533 10.6789 15.5869C11.2975 15.7951 11.9452 15.9045 12.5979 15.9109C13.2506 15.9048 13.8983 15.7955 14.5169 15.5869C14.6247 15.5533 14.7369 15.5358 14.8499 15.5349C15.802 15.5368 16.7356 15.7986 17.55 16.292C18.3643 16.7854 19.0285 17.4918 19.4709 18.3349C18.6275 19.3368 17.5754 20.1422 16.3882 20.695C15.2011 21.2477 13.9074 21.5354 12.5979 21.5359Z" fill="#1FCFF7"/>
</svg>
