<svg width="22" height="23" viewBox="0 0 22 23" fill="none" xmlns="http://www.w3.org/2000/svg">
<path d="M17.887 16.164C17.4746 16.1527 17.0641 16.2229 16.6788 16.3704C16.2936 16.518 15.9413 16.7401 15.642 17.024L7.412 12.267C7.47827 12.0051 7.51681 11.737 7.527 11.467C7.51683 11.1971 7.47828 10.9289 7.412 10.667L15.527 5.96704C16.1056 6.50713 16.8526 6.83143 17.6423 6.88537C18.432 6.93931 19.2161 6.71961 19.8628 6.26322C20.5095 5.80684 20.9792 5.14163 21.193 4.37953C21.4068 3.61743 21.3515 2.80496 21.0365 2.07882C20.7216 1.35268 20.1661 0.757202 19.4635 0.392577C18.761 0.027952 17.9543 -0.0835616 17.1792 0.0768003C16.4041 0.237162 15.7079 0.659611 15.2078 1.27306C14.7076 1.88652 14.434 2.65353 14.433 3.44504C14.443 3.71502 14.4816 3.98318 14.548 4.24504L6.433 8.94504C5.79023 8.35253 4.9472 8.02497 4.073 8.02804C3.62347 8.02895 3.17857 8.1188 2.76392 8.29243C2.34927 8.46606 1.97309 8.72003 1.65704 9.0397C1.34099 9.35937 1.09133 9.73843 0.922442 10.155C0.753554 10.5716 0.668779 11.0175 0.673002 11.467C0.678051 12.1381 0.877842 12.7932 1.24811 13.3529C1.61838 13.9125 2.14319 14.3526 2.7588 14.6197C3.37441 14.8868 4.05433 14.9694 4.71598 14.8574C5.37762 14.7455 5.99253 14.4438 6.486 13.989L14.658 18.746C14.5871 18.9883 14.5485 19.2387 14.543 19.491C14.5402 20.1518 14.7336 20.7986 15.0987 21.3493C15.4638 21.9001 15.9842 22.3301 16.5939 22.5849C17.2036 22.8397 17.8752 22.9078 18.5236 22.7806C19.172 22.6534 19.7681 22.3366 20.2363 21.8703C20.7046 21.4041 21.0239 20.8093 21.1538 20.1614C21.2837 19.5135 21.2185 18.8417 20.9662 18.2309C20.714 17.6201 20.2862 17.098 19.7369 16.7306C19.1877 16.3632 18.5418 16.167 17.881 16.167L17.887 16.164Z" fill="#23D7EC"/>
</svg>
