<svg width="57" height="58" viewBox="0 0 57 58" fill="none" xmlns="http://www.w3.org/2000/svg">
<path d="M0 1.7821C0.141159 1.51496 0.360254 1.29709 0.628174 1.15741C0.896094 1.01773 1.20016 0.962888 1.5 1.00012C4.343 1.02812 7.18605 1.01215 10.0291 1.01215C11.6291 1.01215 11.779 1.14809 11.929 2.77209H12.563C17.185 2.77209 21.807 2.78611 26.429 2.76611C28.444 2.72879 30.4089 3.39578 31.9849 4.6521C33.5569 5.8851 35.1541 7.08811 36.7261 8.32111C37.0462 8.58882 37.4526 8.73101 37.8699 8.72113C42.3819 8.70413 46.894 8.71012 51.406 8.71112C51.8336 8.66883 52.2653 8.72178 52.6699 8.86615C53.0746 9.01052 53.4421 9.24271 53.7463 9.54608C54.0506 9.84945 54.2839 10.2165 54.4294 10.6207C54.575 11.025 54.629 11.4564 54.5879 11.8841C54.5879 17.2568 54.5879 22.6295 54.5879 28.0021C54.6275 28.4249 54.5739 28.8512 54.4307 29.251C54.2874 29.6507 54.0582 30.0141 53.759 30.3156C53.4599 30.617 53.0984 30.849 52.6997 30.9953C52.3011 31.1416 51.875 31.1985 51.4519 31.1621C47.5452 31.1661 43.6386 31.1661 39.7319 31.1621C38.9379 31.1621 38.461 30.7821 38.418 30.1371C38.373 29.4541 38.8959 28.9671 39.7029 28.9651C41.9409 28.9601 44.178 28.9651 46.416 28.9651H47.616C47.8417 27.787 48.4159 26.7036 49.2642 25.8553C50.1124 25.0071 51.1958 24.4329 52.374 24.2071V15.6801C51.2017 15.4524 50.1239 14.8801 49.2788 14.0364C48.4337 13.1927 47.8596 12.116 47.6299 10.9441C47.4959 10.9341 47.3561 10.9151 47.2151 10.9141C39.8604 10.9141 32.5052 10.9141 25.1499 10.9141C24.9217 10.8884 24.6907 10.922 24.4792 11.0117C24.2678 11.1014 24.083 11.2442 23.9429 11.4261C23.8468 11.5607 23.7807 11.7142 23.7488 11.8764C23.7168 12.0386 23.7197 12.2058 23.7576 12.3668C23.7954 12.5277 23.8673 12.6787 23.9683 12.8097C24.0692 12.9406 24.197 13.0485 24.343 13.1261C26.031 14.0841 27.734 15.0131 29.459 15.9691C30.3157 14.9004 31.4813 14.1223 32.7969 13.7411C33.6597 13.4981 34.5637 13.4369 35.4514 13.5613C36.3391 13.6858 37.1912 13.9933 37.9539 14.4642C38.7165 14.9352 39.373 15.5594 39.8818 16.2974C40.3907 17.0353 40.7408 17.8708 40.9099 18.7511C41.0716 19.6138 41.0554 20.5005 40.8623 21.3568C40.6692 22.213 40.3032 23.0208 39.7869 23.7307C39.2705 24.4405 38.6146 25.0373 37.8594 25.4846C37.1042 25.932 36.2656 26.2203 35.395 26.3321C34.2442 26.5036 33.0683 26.3505 31.9998 25.8899C30.9312 25.4293 30.0124 24.6795 29.3469 23.7251C29.2548 23.5993 29.1322 23.4989 28.9907 23.4333C28.8492 23.3677 28.6936 23.3391 28.5381 23.3501C27.4831 23.2791 26.4301 23.1401 25.3821 22.9821C22.4713 22.6063 19.6319 21.8036 16.9551 20.6001C16.8932 20.5819 16.8293 20.5709 16.7649 20.5671C16.7649 21.7821 16.7649 22.9821 16.7649 24.1821C19.8909 25.4031 20.5479 26.0611 21.5159 28.9661H24.906C26.447 28.9661 27.9871 28.9591 29.5281 28.9661C29.8064 28.9491 30.0809 29.0372 30.2974 29.213C30.5138 29.3887 30.6565 29.6392 30.697 29.9151C30.7312 30.1627 30.679 30.4144 30.5491 30.6279C30.4192 30.8414 30.2194 31.0036 29.9839 31.0871C29.8276 31.1375 29.6642 31.1619 29.5 31.1591C25.465 31.1591 21.43 31.1721 17.395 31.1591C17.0173 31.1621 16.6427 31.0896 16.2935 30.9458C15.9442 30.802 15.6272 30.5899 15.3611 30.3218C15.0949 30.0538 14.885 29.7353 14.7437 29.3851C14.6023 29.0348 14.5325 28.6598 14.5381 28.2821C14.5221 25.5681 14.5149 22.8541 14.5469 20.1411C14.5726 19.8871 14.522 19.6312 14.4014 19.4062C14.2808 19.1812 14.0957 18.9973 13.8699 18.8781C13.5877 18.6738 13.2666 18.5298 12.9263 18.4551C12.586 18.3805 12.2339 18.3767 11.8921 18.4441C11.8921 18.8191 11.9001 19.2151 11.8921 19.6101C11.9065 19.7713 11.8853 19.9337 11.8301 20.0858C11.7749 20.2379 11.6869 20.3761 11.5725 20.4905C11.4581 20.605 11.3199 20.693 11.1677 20.7482C11.0156 20.8034 10.8531 20.8245 10.6919 20.8101C7.53689 20.8181 4.38203 20.8101 1.22803 20.8181C0.971919 20.8176 0.721163 20.7446 0.504883 20.6074C0.288602 20.4703 0.115485 20.2746 0.00585938 20.0431L0 1.7821ZM11.9119 16.1951C12.3421 16.1747 12.7731 16.1784 13.2029 16.2061C13.5448 16.2213 13.8782 16.3191 14.1741 16.4911C18.2941 19.4661 23.0621 20.5221 27.9661 21.1701C28.2176 21.2069 28.4743 21.1817 28.7139 21.0965C28.9534 21.0113 29.1683 20.8688 29.3401 20.6815C29.5119 20.4941 29.6353 20.2675 29.6995 20.0215C29.7636 19.7755 29.7665 19.5175 29.708 19.2701C29.6488 19.0102 29.5302 18.7675 29.3613 18.5612C29.1925 18.3549 28.9779 18.1906 28.7349 18.0811C26.9689 17.1131 25.2057 16.1398 23.4451 15.1611C22.7371 14.8181 22.1693 14.2407 21.8384 13.527C21.5074 12.8133 21.4334 12.0072 21.6289 11.2451C21.8287 10.4845 22.286 9.81666 22.9229 9.35535C23.5597 8.89404 24.3371 8.66783 25.1221 8.71515C27.7221 8.71515 30.3249 8.71515 32.9309 8.71515H33.6379C32.5299 7.86115 31.5649 7.13214 30.6179 6.38214C29.4344 5.43508 27.9554 4.93453 26.4399 4.96814C21.8019 4.98614 17.1639 4.97412 12.5259 4.97412H11.9109L11.9119 16.1951ZM2.23999 3.23712V18.5711H9.65601V3.23712H2.23999ZM30.969 22.1811C31.4331 22.9467 32.1298 23.5441 32.9573 23.8859C33.7848 24.2277 34.7 24.2961 35.5691 24.0811C36.4816 23.8516 37.2936 23.3291 37.8806 22.5938C38.4677 21.8584 38.7974 20.9508 38.8191 20.0101C38.8255 19.0973 38.5411 18.2062 38.0073 17.4656C37.4736 16.7251 36.7179 16.1736 35.8499 15.8911C35.026 15.6261 34.14 15.6248 33.3154 15.8875C32.4908 16.1501 31.7689 16.6635 31.25 17.3561C31.7527 18.075 31.9983 18.9423 31.9473 19.8179C31.8963 20.6936 31.5517 21.5265 30.969 22.1821V22.1811ZM49.9539 10.9161C50.0944 11.5022 50.396 12.0373 50.8242 12.4613C51.2525 12.8853 51.7905 13.1814 52.3779 13.3161C52.3779 12.7301 52.3991 12.1481 52.3711 11.5691C52.3724 11.4808 52.3553 11.3932 52.321 11.3118C52.2868 11.2304 52.2361 11.157 52.1721 11.0961C52.1082 11.0353 52.0325 10.9883 51.9495 10.9582C51.8665 10.9281 51.778 10.9155 51.6899 10.9211C51.1249 10.9041 50.5589 10.9171 49.9539 10.9171V10.9161ZM16.7319 26.5641C16.7035 27.1464 16.7114 27.7298 16.7559 28.3111C16.7843 28.4442 16.8448 28.5683 16.9319 28.6729C17.019 28.7774 17.1301 28.8592 17.2559 28.9111C17.8846 28.9604 18.516 28.9701 19.146 28.9401C19.0025 28.3598 18.7011 27.8305 18.2749 27.4113C17.8487 26.992 17.3146 26.6991 16.7319 26.5651V26.5641ZM52.3779 26.5641C51.792 26.6923 51.2556 26.987 50.8333 27.4127C50.4109 27.8385 50.1206 28.3772 49.9971 28.9641C50.5651 28.9641 51.131 28.9751 51.697 28.9641C51.7851 28.9697 51.8732 28.9569 51.9561 28.9265C52.0389 28.896 52.1145 28.8487 52.178 28.7875C52.2415 28.7262 52.2916 28.6524 52.325 28.5707C52.3583 28.4891 52.3745 28.4013 52.3721 28.3131C52.3981 27.7291 52.3779 27.1481 52.3779 26.5591V26.5641Z" fill="#2F455C"/>
<path d="M45.2299 57.343C44.9802 57.2278 44.7707 57.0406 44.6281 56.8054C44.4856 56.5702 44.4164 56.2977 44.4299 56.023H43.7861C37.3331 56.023 30.879 56.003 24.425 56.03C22.2473 56.0798 20.083 55.6746 18.0708 54.8403C16.0585 54.006 14.2426 52.7611 12.739 51.185C10.874 49.291 8.96411 47.442 7.10811 45.54C6.63144 45.0787 6.28349 44.5009 6.09883 43.8637C5.91417 43.2266 5.89903 42.5523 6.05513 41.9076C6.21123 41.2628 6.53307 40.6701 6.98872 40.188C7.44437 39.7059 8.01813 39.3512 8.65303 39.159C9.33751 38.9313 10.0733 38.9073 10.7712 39.0899C11.4691 39.2726 12.0988 39.6541 12.5839 40.188C14.3409 41.931 16.0841 43.688 17.8371 45.434C18.5858 46.2005 19.4811 46.8082 20.4699 47.221C20.4586 46.6528 20.4891 46.0847 20.561 45.521C20.7242 44.6662 21.1811 43.8953 21.8525 43.3416C22.5239 42.788 23.3677 42.4864 24.238 42.489C26.053 42.469 27.8691 42.445 29.6821 42.501C30.0114 42.5373 30.3444 42.4829 30.645 42.3434C30.9455 42.204 31.202 41.9849 31.3869 41.71C32.4725 40.2188 33.9391 39.0469 35.633 38.317C37.0271 37.7037 38.5372 37.3993 40.06 37.4247C41.5828 37.45 43.0822 37.8046 44.455 38.464C44.712 37.464 45.5059 37.533 46.2949 37.536C49.1739 37.547 52.0519 37.536 54.9299 37.536C55.9829 37.536 56.3481 37.903 56.3481 38.963C56.3481 44.59 56.3401 50.217 56.3601 55.844C56.3957 56.1437 56.3401 56.4471 56.2006 56.7148C56.0611 56.9824 55.8442 57.2017 55.5781 57.344L45.2299 57.343ZM44.4599 53.822V53.075C44.4599 49.152 44.46 45.229 44.444 41.306C44.4231 41.1988 44.3797 41.0972 44.3168 41.008C44.2539 40.9187 44.173 40.8437 44.0791 40.788C42.5822 39.8914 40.8387 39.4948 39.1013 39.6557C37.3638 39.8167 35.7227 40.5267 34.416 41.683C33.6618 42.4066 32.96 43.1829 32.3159 44.006C32.1451 44.231 31.9222 44.411 31.6662 44.5305C31.4103 44.6501 31.129 44.7055 30.8469 44.692C28.6829 44.667 26.5199 44.676 24.3559 44.686C24.117 44.6741 23.8785 44.7152 23.6574 44.8064C23.4363 44.8976 23.2382 45.0366 23.0771 45.2135C22.916 45.3903 22.796 45.6006 22.7258 45.8293C22.6556 46.0579 22.637 46.2992 22.6711 46.536C22.74 46.9573 22.9684 47.3358 23.3093 47.5928C23.6501 47.8498 24.0769 47.9656 24.5009 47.916C28.2783 47.92 32.0556 47.92 35.833 47.916C36.0889 47.9051 36.3451 47.9304 36.5939 47.991C36.8192 48.0487 37.0174 48.1831 37.1542 48.3711C37.2911 48.5591 37.3582 48.7889 37.3439 49.021C37.3566 49.2535 37.2885 49.4831 37.1513 49.6712C37.0141 49.8592 36.8162 49.9941 36.591 50.053C36.3409 50.1099 36.0839 50.1298 35.8281 50.112C32.0141 50.112 28.1999 50.071 24.3869 50.127C22.7887 50.1845 21.1968 49.8961 19.7204 49.2813C18.244 48.6665 16.918 47.7399 15.833 46.565C14.272 44.938 12.6481 43.371 11.0571 41.774C10.8615 41.5409 10.6057 41.3658 10.3176 41.2677C10.0295 41.1697 9.72021 41.1525 9.42305 41.218C9.133 41.2752 8.86519 41.4138 8.65108 41.6176C8.43696 41.8215 8.28543 42.0821 8.21406 42.369C8.12804 42.6706 8.13083 42.9907 8.22237 43.2907C8.3139 43.5907 8.49017 43.8578 8.72993 44.06C10.6233 45.952 12.5159 47.845 14.4079 49.739C15.6832 51.0631 17.2186 52.1094 18.9174 52.812C20.6163 53.5146 22.4419 53.8584 24.28 53.822C30.789 53.809 37.2991 53.822 43.8081 53.822H44.4599ZM46.698 39.765V55.099H54.113V39.766L46.698 39.765Z" fill="#2F455C"/>
<path d="M46.018 18.8501C46.3124 18.8608 46.5907 18.9873 46.7924 19.2021C46.9941 19.4169 47.103 19.7026 47.0951 19.9971C47.0804 20.2818 46.9556 20.5497 46.7472 20.7443C46.5389 20.9388 46.263 21.0449 45.978 21.0401C45.8324 21.0369 45.6889 21.0048 45.5558 20.9457C45.4228 20.8866 45.3028 20.8016 45.2028 20.6957C45.1028 20.5899 45.0248 20.4652 44.9733 20.329C44.9219 20.1927 44.8979 20.0476 44.903 19.9021C44.9208 19.618 45.0458 19.3513 45.2529 19.156C45.4599 18.9607 45.7334 18.8513 46.018 18.8501Z" fill="#2F455C"/>
<path d="M34.5719 28.971C34.8662 28.9817 35.1443 29.1083 35.3456 29.3231C35.547 29.5379 35.6553 29.8237 35.6469 30.118C35.6322 30.4026 35.5076 30.6702 35.2995 30.8648C35.0913 31.0593 34.8158 31.1655 34.5309 31.161C34.3853 31.1579 34.2415 31.1259 34.1083 31.0669C33.9751 31.0078 33.8549 30.9229 33.7548 30.817C33.6547 30.7111 33.5768 30.5864 33.5253 30.4501C33.4738 30.3138 33.4497 30.1686 33.4548 30.023C33.4728 29.7387 33.5982 29.4718 33.8056 29.2765C34.013 29.0811 34.2871 28.9719 34.5719 28.971Z" fill="#2F455C"/>
</svg>
