<svg width="62" height="62" viewBox="0 0 62 62" fill="none" xmlns="http://www.w3.org/2000/svg">
<path d="M0.599121 30.114C0.799121 29.153 0.935097 28.173 1.2121 27.235C1.49182 26.3542 1.83299 25.4941 2.23309 24.661C2.28373 24.4995 2.36891 24.3508 2.48273 24.2255C2.59654 24.1001 2.73627 24.0011 2.89221 23.9352C3.04815 23.8692 3.21659 23.8381 3.3858 23.8438C3.55501 23.8494 3.72096 23.8918 3.87213 23.968C4.02043 24.0388 4.15218 24.1399 4.25885 24.2649C4.36552 24.3899 4.44469 24.5359 4.49127 24.6935C4.53786 24.8511 4.5508 25.0167 4.52924 25.1796C4.50767 25.3425 4.45207 25.499 4.36609 25.639C3.56128 27.2254 3.09769 28.9626 3.00513 30.739C2.9083 32.9431 3.41226 35.1321 4.46313 37.072C4.92281 35.8995 5.68174 34.868 6.66431 34.0802C7.64687 33.2924 8.81872 32.7758 10.0631 32.582C9.89811 32.301 9.75613 32.0751 9.63013 31.8411C8.64313 30.0031 8.49609 25.856 10.5171 23.647C11.1627 22.9461 11.9635 22.4064 12.8553 22.0708C13.7472 21.7352 14.7052 21.6132 15.6527 21.7146C16.6002 21.816 17.5107 22.138 18.3113 22.6547C19.112 23.1714 19.7804 23.8685 20.2631 24.6901C20.9033 25.8526 21.2328 27.1606 21.2198 28.4877C21.2069 29.8148 20.8518 31.1161 20.1891 32.266C20.1441 32.352 20.1031 32.4401 20.0351 32.5811C21.2764 32.781 22.4439 33.3021 23.4215 34.0928C24.3991 34.8834 25.1529 35.916 25.6081 37.088C26.35 35.7906 26.8186 34.3552 26.9851 32.87C27.417 29.7438 26.5957 26.5736 24.7003 24.0503C22.8048 21.527 19.9889 19.8552 16.8661 19.399C14.5345 19.0032 12.1376 19.3312 9.99811 20.339C9.74711 20.452 9.50309 20.585 9.24609 20.681C9.10783 20.7471 8.95781 20.785 8.80475 20.7925C8.65169 20.8 8.49869 20.7769 8.35461 20.7247C8.21054 20.6725 8.07828 20.5922 7.96558 20.4884C7.85287 20.3846 7.76196 20.2593 7.69812 20.12C7.62759 19.9825 7.58618 19.8319 7.57648 19.6776C7.56678 19.5234 7.58898 19.3688 7.64172 19.2235C7.69447 19.0782 7.7766 18.9454 7.883 18.8333C7.98939 18.7212 8.1178 18.6323 8.26013 18.572C9.26668 18.079 10.3134 17.6729 11.3891 17.358C14.2193 16.597 17.2152 16.725 19.9702 17.7249C22.7251 18.7247 25.1058 20.5479 26.7891 22.947C26.9041 23.105 27.0271 23.258 27.1651 23.438C27.3131 23.373 27.4571 23.321 27.5911 23.249C30.8751 21.496 34.1541 19.733 37.4451 17.994C37.8451 17.78 37.9561 17.6081 37.7861 17.1431C36.8027 14.4918 36.8059 11.5751 37.7951 8.92603C38.1091 8.04203 38.8361 7.69305 39.5381 8.07605C39.8139 8.22087 40.0213 8.46888 40.115 8.76599C40.2087 9.06311 40.181 9.38516 40.0381 9.66199C39.5998 10.9103 39.3945 12.2285 39.4321 13.551C39.5023 15.0711 39.9579 16.5484 40.7561 17.844C41.1024 16.9747 41.6552 16.2026 42.3665 15.5946C43.0779 14.9866 43.9265 14.5608 44.8391 14.354C44.4386 13.5569 44.2006 12.6881 44.1389 11.7981C44.0773 10.9081 44.1933 10.0148 44.4801 9.17004C44.8341 8.15815 45.5087 7.28942 46.4014 6.6958C47.294 6.10219 48.356 5.81606 49.4261 5.88098C50.5562 5.95154 51.6278 6.40812 52.4615 7.17432C53.2953 7.94051 53.8406 8.96981 54.0061 10.09C54.2834 11.5349 54.0761 13.0309 53.4161 14.3459C54.3362 14.5718 55.1926 15.0045 55.9203 15.611C56.6481 16.2174 57.228 16.9817 57.6161 17.8459C57.8931 17.1459 58.2301 16.472 58.4371 15.757C58.8269 14.4082 58.9184 12.9908 58.7053 11.6031C58.4921 10.2155 57.9795 8.89081 57.2029 7.72119C56.4264 6.55157 55.4045 5.56507 54.2084 4.83008C53.0122 4.09509 51.6704 3.62923 50.2761 3.46497C48.9242 3.29733 47.552 3.42321 46.2531 3.83398C45.9711 3.92098 45.6911 4.02 45.4031 4.078C45.256 4.1214 45.1017 4.13513 44.9492 4.11829C44.7967 4.10144 44.6491 4.05432 44.515 3.97986C44.3809 3.9054 44.2629 3.80508 44.168 3.68457C44.073 3.56406 44.0031 3.42578 43.9621 3.27795C43.9178 3.13548 43.902 2.98574 43.9157 2.83716C43.9294 2.68858 43.9724 2.54417 44.0421 2.41223C44.1117 2.28029 44.2069 2.16334 44.3218 2.06824C44.4368 1.97314 44.5694 1.90173 44.7121 1.85803C45.6251 1.55803 46.5711 1.35804 47.5021 1.11804C47.6491 1.08004 47.7961 1.03805 47.9431 0.998047H50.1921C50.7491 1.10905 51.3111 1.19803 51.8631 1.33203C53.8482 1.79712 55.6831 2.75747 57.1967 4.12341C58.7103 5.48936 59.8532 7.21635 60.5189 9.14343C61.1846 11.0705 61.3514 13.1349 61.0036 15.1438C60.6558 17.1527 59.8048 19.0408 58.5301 20.632C57.3754 22.064 55.9088 23.2133 54.2422 23.9919C52.5757 24.7706 50.7532 25.1581 48.9139 25.1249C47.0747 25.0917 45.2674 24.6387 43.6299 23.8004C41.9925 22.9621 40.5684 21.7607 39.4661 20.288C39.3501 20.131 39.2271 19.979 39.0771 19.788L28.2901 25.5551C29.0647 27.3701 29.464 29.3231 29.464 31.2965C29.464 33.2699 29.0647 35.2229 28.2901 37.038L39.0561 42.795C39.4701 42.295 39.8561 41.807 40.2741 41.342C41.8951 39.5854 44.0012 38.3496 46.3253 37.7913C48.6495 37.233 51.0871 37.3774 53.3291 38.2061C53.5323 38.2511 53.7203 38.3482 53.8746 38.4878C54.0289 38.6274 54.1443 38.8048 54.2094 39.0024C54.2744 39.2001 54.2869 39.4114 54.2457 39.6154C54.2044 39.8193 54.1109 40.0091 53.9741 40.166C53.7898 40.3438 53.5586 40.4654 53.3076 40.5166C53.0567 40.5678 52.7964 40.5464 52.5571 40.455C51.3807 40.15 50.1797 39.9492 48.9681 39.855C46.6714 39.8862 44.461 40.7343 42.7327 42.2471C41.0044 43.7599 39.8712 45.8386 39.5361 48.111C39.2828 49.9366 39.5403 51.7968 40.2801 53.485C40.3741 53.701 40.4901 53.908 40.6021 54.116C40.6271 54.162 40.6731 54.197 40.6521 54.175C41.1646 53.4235 41.7451 52.7204 42.3861 52.075C43.137 51.5321 43.9352 51.0578 44.7711 50.658C44.0123 49.0598 43.917 47.2262 44.5061 45.558C44.8558 44.6087 45.4874 43.789 46.3162 43.209C47.1451 42.629 48.1315 42.3163 49.1431 42.313C50.1441 42.3269 51.1181 42.6398 51.9399 43.2114C52.7617 43.7831 53.3939 44.5874 53.7551 45.521C54.3085 47.2097 54.2114 49.0441 53.4831 50.665C54.3106 51.0575 55.1012 51.5237 55.8451 52.058C56.498 52.7091 57.0914 53.4172 57.6181 54.174C58.192 53.1941 58.5659 52.1103 58.7181 50.985C58.9608 49.3796 58.8021 47.739 58.2561 46.21C58.1401 45.8784 58.1031 45.5244 58.1481 45.176C58.1878 44.9488 58.3039 44.7419 58.4772 44.5897C58.6506 44.4375 58.8707 44.349 59.1011 44.339C59.3475 44.2854 59.605 44.3239 59.825 44.4471C60.0449 44.5704 60.2122 44.7699 60.2951 45.0081C60.649 45.9042 60.9051 46.8359 61.0591 47.787C61.4537 50.194 61.0895 52.6641 60.0168 54.8547C58.9442 57.0453 57.2164 58.8477 55.0731 60.012C52.3867 61.54 49.2158 61.977 46.2162 61.2324C43.2167 60.4879 40.6182 58.6188 38.9581 56.012C37.956 54.4561 37.3294 52.6885 37.1281 50.8488C36.9268 49.0091 37.1562 47.1478 37.7981 45.412C37.9041 45.104 37.9761 44.896 37.5981 44.697C34.1861 42.8904 30.7798 41.0733 27.3791 39.246C27.3281 39.219 27.2671 39.211 27.2921 39.218C26.3914 40.2723 25.4361 41.2787 24.4301 42.233C22.8965 43.6099 21.0728 44.6241 19.0941 45.2007C17.1153 45.7773 15.0323 45.9014 12.9991 45.564C9.91422 45.1475 7.04962 43.7354 4.84058 41.5422C2.63153 39.3491 1.19884 36.4947 0.760132 33.413C0.708132 33.105 0.660084 32.7961 0.611084 32.4871L0.599121 30.114ZM15.0291 43.375C18.1536 43.3723 21.1547 42.1557 23.3991 39.9821C23.5455 39.8351 23.6336 39.64 23.6471 39.433C23.6475 38.5304 23.3725 37.6492 22.8588 36.9071C22.345 36.165 21.617 35.5974 20.7721 35.28C19.9051 34.968 19.0021 34.751 18.1071 34.524C17.8969 34.4925 17.682 34.5245 17.4901 34.616C16.7112 34.954 15.8709 35.1277 15.0218 35.1263C14.1727 35.125 13.333 34.9485 12.5551 34.608C12.3413 34.5221 12.1071 34.5002 11.8811 34.545C11.1721 34.705 10.4671 34.89 9.77112 35.101C8.8402 35.3479 8.01323 35.8875 7.41223 36.6401C6.81123 37.3927 6.468 38.3185 6.43311 39.281C6.4246 39.5429 6.51695 39.7982 6.6911 39.994C8.92906 42.1561 11.9174 43.3675 15.0291 43.374V43.375ZM49.0901 22.7841C51.2802 22.7942 53.4075 22.0528 55.1171 20.684C55.2968 20.5476 55.4211 20.3508 55.4671 20.13C55.5302 19.427 55.3583 18.7229 54.9783 18.1281C54.5982 17.5332 54.0316 17.0812 53.3671 16.843C52.8295 16.6538 52.2795 16.5013 51.7211 16.387C51.4615 16.3307 51.1914 16.3449 50.9391 16.428C49.9083 16.8525 48.7591 16.8912 47.7021 16.537C47.1392 16.3112 46.5124 16.3033 45.9441 16.515C45.7601 16.582 45.5641 16.615 45.3741 16.667C44.6211 16.8142 43.9455 17.2254 43.4688 17.8265C42.9921 18.4277 42.7458 19.1794 42.7741 19.946C42.7785 20.0819 42.81 20.2155 42.8669 20.339C42.9237 20.4625 43.0047 20.5734 43.1051 20.665C44.7969 22.0386 46.9109 22.7863 49.0901 22.782V22.7841ZM49.1971 59.23C51.3578 59.2119 53.4495 58.4669 55.1351 57.115C55.3009 56.9921 55.4186 56.8153 55.4681 56.615C55.5374 55.913 55.3728 55.2078 54.9999 54.609C54.627 54.0102 54.0667 53.5514 53.4061 53.304C52.8696 53.1116 52.3198 52.9582 51.7611 52.845C51.4825 52.7858 51.1934 52.8003 50.9221 52.887C49.9096 53.3029 48.7811 53.3406 47.7431 52.993C47.1408 52.7621 46.4749 52.7585 45.8701 52.983C45.7021 53.039 45.5281 53.075 45.3581 53.123C44.6062 53.2742 43.9328 53.6884 43.4588 54.2914C42.9848 54.8944 42.7414 55.6466 42.7721 56.413C42.7746 56.5401 42.8025 56.6655 42.854 56.7817C42.9055 56.898 42.9796 57.0027 43.0721 57.09C44.8053 58.4906 46.9708 59.2466 49.1991 59.229L49.1971 59.23ZM18.7901 28.42C18.7691 28.086 18.7551 27.751 18.7251 27.42C18.6579 26.5886 18.3097 25.8046 17.7377 25.1974C17.1658 24.5902 16.4041 24.1957 15.5781 24.079C14.6928 23.9261 13.7823 24.1118 13.0275 24.5992C12.2728 25.0867 11.729 25.8401 11.5041 26.71C11.317 27.6141 11.2721 28.542 11.3711 29.46C11.4307 30.0498 11.6323 30.6165 11.9586 31.1115C12.2848 31.6064 12.7261 32.0151 13.2448 32.3024C13.7634 32.5896 14.3438 32.7469 14.9365 32.761C15.5292 32.775 16.1165 32.6454 16.6481 32.3831C17.372 32.0258 17.9669 31.4525 18.3506 30.7423C18.7344 30.0322 18.888 29.2203 18.7901 28.4191V28.42ZM46.5271 11.252C46.5271 11.467 46.5181 11.664 46.5271 11.86C46.5419 12.5262 46.8134 13.161 47.285 13.6318C47.7566 14.1027 48.3918 14.3732 49.0581 14.387C49.7347 14.4057 50.3915 14.1577 50.8868 13.6963C51.382 13.2349 51.676 12.5973 51.7051 11.921C51.7386 11.4882 51.7356 11.0533 51.6961 10.621C51.6676 10.1254 51.4922 9.64956 51.1923 9.25403C50.8924 8.85849 50.4816 8.56122 50.0121 8.40002C49.5613 8.2159 49.066 8.17025 48.5892 8.26892C48.1124 8.36759 47.6757 8.60608 47.3351 8.95398C47.0306 9.24708 46.7989 9.60742 46.6586 10.0061C46.5183 10.4048 46.4733 10.8308 46.5271 11.25V11.252ZM51.6941 47.8101C51.7095 47.5356 51.7078 47.2603 51.6891 46.986C51.6174 46.3643 51.3245 45.7893 50.8638 45.3657C50.4032 44.9422 49.8056 44.6984 49.1801 44.679C48.5637 44.6602 47.9615 44.8659 47.4855 45.2579C47.0094 45.6499 46.6919 46.2015 46.5921 46.8101C46.49 47.4508 46.492 48.1039 46.5981 48.744C46.6646 49.1184 46.8137 49.4731 47.0347 49.7825C47.2557 50.0918 47.543 50.348 47.8755 50.5322C48.2081 50.7165 48.5776 50.8242 48.9571 50.8475C49.3366 50.8708 49.7165 50.8092 50.0691 50.667C50.6187 50.4385 51.0767 50.0337 51.3708 49.5162C51.665 48.9988 51.7788 48.3981 51.6941 47.809V47.8101Z" fill="#2F455C"/>
<path d="M57.9921 41.831C57.9812 42.1371 57.8548 42.4278 57.6383 42.6445C57.4218 42.8612 57.1312 42.9878 56.8251 42.999C56.5089 42.9889 56.2088 42.8567 55.9879 42.6302C55.7669 42.4037 55.6423 42.1004 55.6401 41.784C55.6614 41.479 55.7967 41.1931 56.019 40.9832C56.2413 40.7733 56.5344 40.6547 56.8401 40.651C57.1466 40.6632 57.4367 40.7923 57.6509 41.0118C57.8652 41.2312 57.9873 41.5244 57.9921 41.831Z" fill="#2F455C"/>
<path d="M6.83887 21.912C6.83238 22.2187 6.71071 22.5117 6.49799 22.7328C6.28528 22.9538 5.99716 23.0867 5.69093 23.105C5.38345 23.1054 5.0875 22.9879 4.8642 22.7765C4.64091 22.5651 4.50731 22.276 4.49091 21.969C4.48387 21.812 4.50877 21.6552 4.56416 21.5082C4.61954 21.3611 4.70427 21.2269 4.81312 21.1135C4.92197 21.0002 5.05269 20.9102 5.1974 20.8489C5.3421 20.7876 5.49777 20.7564 5.65491 20.7571C5.9623 20.7624 6.25601 20.8849 6.47608 21.0996C6.69615 21.3143 6.82592 21.6048 6.83887 21.912Z" fill="#2F455C"/>
<path d="M42.5911 5.37391C42.58 5.68218 42.4527 5.97482 42.2347 6.19312C42.0168 6.41143 41.7244 6.53925 41.4161 6.55091C41.107 6.5435 40.8127 6.4171 40.5945 6.19801C40.3764 5.97891 40.2512 5.68401 40.2451 5.37489C40.25 5.06607 40.3744 4.77121 40.5922 4.55225C40.8101 4.3333 41.1043 4.20737 41.4131 4.20094C41.7215 4.21086 42.0147 4.33745 42.2333 4.55518C42.452 4.77292 42.5799 5.06554 42.5911 5.37391Z" fill="#2F455C"/>
</svg>
