<svg width="40" height="40" viewBox="0 0 40 40" fill="none" xmlns="http://www.w3.org/2000/svg">
<path d="M0 0.482091C0.0868709 0.348932 0.20864 0.242141 0.35199 0.173375C0.49534 0.10461 0.654825 0.0764911 0.813049 0.0920766C8.86772 0.0987433 16.9224 0.100755 24.9771 0.0980886C25.6111 0.0980886 25.798 0.28607 25.803 0.92307C25.803 1.30407 25.803 1.68508 25.803 2.11008C26.203 2.06008 26.551 2.01807 26.903 1.97007C27.42 1.90007 27.68 2.09507 27.746 2.60807C27.82 3.17907 27.906 3.74908 27.963 4.32108C27.985 4.53608 28.043 4.62908 28.276 4.64908C28.887 4.70408 29.495 4.79409 30.105 4.86509C30.672 4.93109 30.871 5.17308 30.805 5.73408C30.382 9.22708 29.942 12.7181 29.55 16.2151C29.5304 16.79 29.5781 17.3652 29.692 17.9291C30.1434 21.4697 30.5993 25.0101 31.06 28.5501C31.3467 30.7708 31.6334 32.9914 31.92 35.2121C31.999 35.8181 31.842 36.0451 31.243 36.1241C29.974 36.2901 28.705 36.4531 27.435 36.6031C27.181 36.6331 27.053 36.7031 27.035 36.9871C27.009 37.4591 26.935 37.9291 26.87 38.3971C26.793 38.9351 26.57 39.1161 26.038 39.0531C23.192 38.7121 20.35 38.3361 17.5 38.0391C16.723 37.9982 15.9438 38.0442 15.177 38.1761C12.51 38.5041 9.84804 38.8641 7.18304 39.2061C6.64504 39.2751 6.43202 39.1061 6.34802 38.5611C6.26736 38.0277 6.20068 37.4944 6.14801 36.9611C6.15116 36.9141 6.14438 36.867 6.12805 36.8228C6.11172 36.7787 6.08624 36.7385 6.05328 36.7049C6.02033 36.6713 5.98065 36.645 5.93683 36.6278C5.89301 36.6106 5.84603 36.6029 5.79901 36.6051C4.49901 36.4611 3.20701 36.3051 1.91101 36.1451C1.37001 36.0801 1.185 35.8341 1.258 35.2821C1.289 35.0441 1.31204 34.8051 1.34204 34.5431C0.855041 34.4831 0.317014 34.6611 0.00201416 34.1431V7.55207C0.209014 7.31807 0.418992 7.09009 0.778992 7.23209C1.13899 7.37409 1.15804 7.67208 1.15704 7.99408C1.15704 16.2661 1.15704 24.5381 1.15704 32.8101V33.3371H24.619V1.26908H1.15704V3.49509C1.15704 3.91809 1.15004 4.34007 1.15704 4.76307C1.16404 5.09207 1.11504 5.39207 0.764038 5.51807C0.413038 5.64407 0.187 5.43107 0 5.16507V0.482091ZM25.8 5.51706V6.09409C25.8 15.2514 25.8 24.4084 25.8 33.5651C25.8 34.3781 25.653 34.5231 24.833 34.5231H2.52405L2.453 35.0471L25.768 37.8471L29.604 5.96808L25.8 5.51706ZM28.98 21.3611L28.913 21.3821L27.219 35.4691L30.729 35.0181L28.98 21.3611ZM11.945 37.4261V37.3551L7.27704 36.7931L7.43201 37.9741C7.4934 37.9812 7.55523 37.9839 7.617 37.9821C9.06367 37.7981 10.5073 37.6127 11.948 37.4261H11.945ZM26.645 3.20008C25.78 3.20608 25.78 3.20609 25.798 4.02909C25.806 4.40209 25.954 4.46208 26.808 4.42908L26.645 3.20008Z" fill="#2F455C"/>
<path d="M9.85319 22.598C9.82987 22.3046 9.83459 22.0096 9.86722 21.717C9.91702 21.4899 10.0333 21.2828 10.2012 21.1221C10.3132 21.0221 10.4952 21.013 10.4712 20.787C10.4472 20.561 10.5152 20.324 10.2402 20.155C9.47715 19.6738 8.86968 18.9819 8.49119 18.163C8.06278 17.2672 7.91937 16.2616 8.0803 15.2817C8.24123 14.3018 8.69878 13.3948 9.39121 12.683C10.0811 11.9695 10.9713 11.4823 11.9441 11.2859C12.917 11.0895 13.9266 11.1931 14.8392 11.5831C15.7448 11.9733 16.5104 12.6296 17.0345 13.4648C17.5587 14.3001 17.8166 15.2749 17.7742 16.2601C17.751 17.0378 17.5391 17.7982 17.1567 18.4759C16.7743 19.1535 16.233 19.7281 15.5792 20.15C15.4923 20.1999 15.4207 20.2727 15.3722 20.3604C15.3237 20.4481 15.3001 20.5474 15.3041 20.6475C15.308 20.7477 15.3392 20.8448 15.3944 20.9285C15.4496 21.0121 15.5267 21.0791 15.6172 21.1221C15.7003 21.1842 15.7697 21.2626 15.8213 21.3525C15.8729 21.4425 15.9055 21.542 15.9172 21.6451C15.9519 22.3612 15.9459 23.0786 15.8992 23.7941C15.8343 24.3676 15.5602 24.897 15.1294 25.2811C14.6986 25.6652 14.1413 25.877 13.5642 25.876C12.7893 26.0058 11.9939 25.9275 11.2592 25.649C10.8254 25.4489 10.4604 25.125 10.2101 24.7181C9.95979 24.3112 9.83527 23.8395 9.85221 23.3621C9.84421 23.1101 9.85319 22.854 9.85319 22.598ZM12.2962 17.259C11.8692 17.259 11.4622 17.273 11.0562 17.259C10.9822 17.2608 10.9085 17.2479 10.8395 17.2211C10.7705 17.1944 10.7074 17.1542 10.6539 17.103C10.6004 17.0518 10.5575 16.9906 10.5277 16.9228C10.4979 16.8551 10.4818 16.7821 10.4802 16.7081C10.4822 16.5595 10.5403 16.4171 10.6429 16.3095C10.7454 16.2019 10.8848 16.1371 11.0332 16.128C11.1221 16.1171 11.2117 16.1128 11.3012 16.115C12.3639 16.115 13.4265 16.115 14.4892 16.115C14.6299 16.1121 14.7704 16.1272 14.9072 16.16C15.0346 16.1869 15.1469 16.2614 15.2212 16.3682C15.2956 16.4751 15.3263 16.6063 15.3072 16.735C15.3097 16.8586 15.2662 16.9787 15.1853 17.0721C15.1045 17.1656 14.9918 17.2257 14.8692 17.241C14.6919 17.2647 14.513 17.2741 14.3342 17.269C14.0582 17.269 13.7812 17.269 13.4962 17.269V21.014H14.2042C14.0928 20.6392 14.1186 20.237 14.2772 19.8796C14.4357 19.5222 14.7166 19.233 15.0692 19.064C15.6753 18.6865 16.1456 18.126 16.4122 17.4636C16.6788 16.8012 16.7279 16.0711 16.5522 15.379C16.4318 14.6444 16.0862 13.9653 15.5631 13.4355C15.04 12.9058 14.3653 12.5517 13.6322 12.4221C13.0659 12.3129 12.4821 12.336 11.9262 12.4896C11.3703 12.6432 10.8574 12.9232 10.4275 13.3077C9.99766 13.6921 9.66243 14.1708 9.44797 14.7061C9.23351 15.2415 9.14565 15.8191 9.1912 16.394C9.24026 17.0159 9.44672 17.6151 9.79117 18.1352C10.1356 18.6553 10.6068 19.0792 11.1602 19.3671C11.3142 19.4319 11.443 19.5449 11.5274 19.6891C11.6118 19.8334 11.6471 20.001 11.6282 20.1671C11.6082 20.4441 11.6282 20.723 11.6282 21.019H12.3012L12.2962 17.259ZM11.0332 22.227C11.0116 22.7022 11.0149 23.1782 11.0432 23.6531C11.0626 23.9319 11.1838 24.1938 11.3839 24.3889C11.584 24.584 11.849 24.6987 12.1282 24.7111C12.6609 24.7534 13.1961 24.75 13.7282 24.701C13.9626 24.6906 14.1865 24.6006 14.363 24.4459C14.5395 24.2912 14.6581 24.0811 14.6992 23.85C14.7681 23.3118 14.8015 22.7697 14.7992 22.227H11.0332Z" fill="#2F455C"/>
<path d="M9.33796 9.10502C9.4845 9.20021 9.6165 9.31613 9.72993 9.44907C9.93493 9.75623 10.1207 10.0758 10.286 10.406C10.3315 10.4721 10.3628 10.547 10.3779 10.6258C10.3929 10.7047 10.3914 10.7858 10.3735 10.864C10.3555 10.9423 10.3215 11.0159 10.2735 11.0803C10.2256 11.1447 10.1648 11.1984 10.095 11.2381C10.0247 11.276 9.94741 11.2991 9.86787 11.3059C9.78832 11.3128 9.70818 11.3033 9.63245 11.278C9.55673 11.2527 9.48705 11.2122 9.42762 11.1588C9.36819 11.1055 9.32028 11.0406 9.28693 10.9681C9.07442 10.6355 8.87884 10.2924 8.70093 9.94004C8.50493 9.53404 8.79096 9.09202 9.33796 9.10502Z" fill="#2F455C"/>
<path d="M13.457 9.29502C13.457 9.52402 13.474 9.75405 13.457 9.98105C13.4532 10.1105 13.4 10.2336 13.3083 10.3251C13.2167 10.4166 13.0934 10.4695 12.964 10.4731C12.8978 10.4896 12.829 10.4918 12.7619 10.4795C12.6948 10.4672 12.6312 10.4407 12.5752 10.4018C12.5192 10.3628 12.4722 10.3124 12.4373 10.2538C12.4024 10.1952 12.3805 10.1298 12.373 10.062C12.3308 9.55726 12.3308 9.0498 12.373 8.54502C12.3799 8.47727 12.401 8.41176 12.435 8.35276C12.469 8.29375 12.515 8.24262 12.5702 8.20267C12.6253 8.16273 12.6883 8.1349 12.755 8.12101C12.8217 8.10711 12.8905 8.10746 12.957 8.12205C13.0936 8.12493 13.2235 8.1816 13.3187 8.2797C13.4138 8.3778 13.4664 8.50941 13.465 8.64603C13.477 8.86203 13.465 9.07802 13.465 9.29502H13.457Z" fill="#2F455C"/>
<path d="M7.65701 13.606C7.52425 13.5747 7.39413 13.5329 7.26797 13.481C6.91197 13.281 6.55298 13.09 6.21298 12.869C6.14678 12.8354 6.08832 12.7885 6.04129 12.7311C5.99426 12.6736 5.9597 12.6071 5.93985 12.5356C5.92 12.464 5.9153 12.3892 5.92599 12.3158C5.93669 12.2423 5.96256 12.1719 6.00198 12.109C6.03505 12.043 6.08115 11.9844 6.13748 11.9367C6.19381 11.889 6.2592 11.8531 6.32974 11.8313C6.40029 11.8096 6.47452 11.8023 6.54794 11.81C6.62137 11.8176 6.69247 11.8401 6.75699 11.876C7.14878 12.0585 7.52104 12.2803 7.86801 12.538C7.94773 12.6174 8.00819 12.7141 8.04477 12.8205C8.08134 12.927 8.09305 13.0404 8.07901 13.152C8.03801 13.336 7.78501 13.473 7.65701 13.606Z" fill="#2F455C"/>
<path d="M19.8638 12.5072C19.7832 12.6482 19.6798 12.7749 19.5578 12.8822C19.2397 13.0963 18.9088 13.2906 18.5668 13.4641C18.5003 13.5096 18.425 13.5406 18.3458 13.5552C18.2666 13.5698 18.1852 13.5675 18.1069 13.5487C18.0286 13.5298 17.9551 13.4948 17.8912 13.4458C17.8273 13.3968 17.7744 13.3349 17.7358 13.2641C17.6984 13.1965 17.6752 13.1219 17.6677 13.0449C17.6602 12.968 17.6685 12.8904 17.6921 12.8167C17.7157 12.7431 17.7541 12.6751 17.805 12.6169C17.8558 12.5587 17.918 12.5114 17.9878 12.4781C18.3216 12.2641 18.666 12.0672 19.0198 11.8881C19.4378 11.6821 19.8728 11.9522 19.8638 12.5072Z" fill="#2F455C"/>
<path d="M17.203 9.57108C17.1748 9.70516 17.1352 9.83657 17.085 9.96403C16.885 10.32 16.693 10.678 16.476 11.021C16.4041 11.1509 16.2837 11.2471 16.1412 11.2887C15.9986 11.3303 15.8455 11.3139 15.715 11.2431C15.6489 11.2099 15.5902 11.1638 15.5422 11.1076C15.4943 11.0514 15.458 10.9861 15.4357 10.9156C15.4133 10.8452 15.4052 10.771 15.412 10.6974C15.4187 10.6238 15.4402 10.5522 15.475 10.487C15.6564 10.0948 15.8776 9.7222 16.135 9.37504C16.214 9.29458 16.3102 9.23318 16.4164 9.19541C16.5226 9.15764 16.636 9.14454 16.748 9.15708C16.93 9.19508 17.065 9.44108 17.203 9.57108Z" fill="#2F455C"/>
<path d="M6.10399 16.629C5.87549 16.6414 5.64652 16.6414 5.41802 16.629C5.35037 16.6249 5.28424 16.6073 5.22344 16.5773C5.16263 16.5474 5.10833 16.5057 5.06377 16.4546C5.01921 16.4035 4.98528 16.3442 4.96386 16.2799C4.94243 16.2156 4.93399 16.1476 4.93901 16.08C4.93126 16.0156 4.93653 15.9503 4.95458 15.8879C4.97263 15.8256 5.00308 15.7676 5.04406 15.7173C5.08503 15.667 5.13573 15.6254 5.1931 15.5952C5.25048 15.5649 5.31333 15.5465 5.37798 15.541C5.87104 15.5063 6.36594 15.5063 6.859 15.541C6.92675 15.5463 6.99264 15.5658 7.05236 15.5983C7.11208 15.6307 7.1643 15.6754 7.20562 15.7293C7.24693 15.7833 7.27642 15.8453 7.29216 15.9114C7.30791 15.9776 7.30955 16.0463 7.29699 16.113C7.30058 16.243 7.25344 16.3693 7.16552 16.465C7.07759 16.5608 6.95577 16.6186 6.82598 16.626C6.58554 16.64 6.34454 16.641 6.10399 16.629Z" fill="#2F455C"/>
<path d="M19.6761 16.639C19.4591 16.639 19.24 16.653 19.024 16.639C18.9528 16.64 18.8822 16.6263 18.8165 16.5987C18.7509 16.5711 18.6916 16.5303 18.6424 16.4788C18.5932 16.4272 18.5552 16.3661 18.5307 16.2993C18.5062 16.2324 18.4958 16.1612 18.5001 16.0901C18.4903 16.0224 18.495 15.9533 18.5137 15.8875C18.5324 15.8217 18.5647 15.7605 18.6085 15.708C18.6524 15.6555 18.7068 15.6128 18.7682 15.5826C18.8296 15.5525 18.8967 15.5356 18.9651 15.5331C19.436 15.5035 19.9082 15.5035 20.3791 15.5331C20.4474 15.5352 20.5146 15.5518 20.5761 15.5815C20.6377 15.6113 20.6923 15.6536 20.7364 15.7059C20.7805 15.7581 20.8131 15.819 20.8322 15.8847C20.8513 15.9504 20.8563 16.0193 20.847 16.087C20.852 16.1581 20.8422 16.2295 20.8183 16.2966C20.7944 16.3637 20.7567 16.4251 20.7079 16.4769C20.659 16.5288 20.6 16.5699 20.5345 16.5978C20.4689 16.6257 20.3983 16.6398 20.3271 16.639C20.1121 16.653 19.8941 16.638 19.6761 16.639Z" fill="#2F455C"/>
<path d="M19.867 19.6901C19.8791 19.7929 19.8633 19.8971 19.8211 19.9917C19.779 20.0863 19.7121 20.1677 19.6275 20.2275C19.5429 20.2872 19.4437 20.3229 19.3405 20.331C19.2372 20.339 19.1337 20.319 19.0409 20.2731C18.6513 20.0814 18.2752 19.8635 17.9149 19.6211C17.8532 19.5853 17.7996 19.5372 17.7573 19.4798C17.715 19.4225 17.6849 19.357 17.669 19.2875C17.653 19.218 17.6515 19.146 17.6646 19.0759C17.6776 19.0058 17.705 18.9392 17.7449 18.8801C17.7725 18.8173 17.8126 18.7608 17.8629 18.7142C17.9132 18.6676 17.9726 18.6318 18.0373 18.6091C18.102 18.5864 18.1707 18.5773 18.2391 18.5823C18.3075 18.5872 18.3742 18.6063 18.4349 18.6381C18.8585 18.8458 19.2666 19.0837 19.656 19.3501C19.777 19.4291 19.824 19.6171 19.867 19.6901Z" fill="#2F455C"/>
<path d="M8.13197 19.2671C8.07098 19.3997 7.9843 19.5191 7.87697 19.6181C7.51671 19.8608 7.14125 20.0803 6.75294 20.2751C6.68742 20.31 6.61554 20.3314 6.54158 20.338C6.46761 20.3445 6.39311 20.3361 6.32246 20.3133C6.25181 20.2904 6.18648 20.2535 6.13038 20.2049C6.07429 20.1562 6.02854 20.0968 5.99592 20.0301C5.9592 19.9691 5.93523 19.9013 5.92543 19.8308C5.91562 19.7603 5.92023 19.6885 5.93892 19.6198C5.95761 19.5512 5.99001 19.487 6.03419 19.4312C6.07837 19.3754 6.13338 19.329 6.19593 19.2951C6.54681 19.0608 6.91221 18.8491 7.28993 18.6611C7.38543 18.6126 7.49242 18.5914 7.59919 18.5996C7.70597 18.6079 7.80842 18.6453 7.89534 18.7079C7.98226 18.7704 8.05032 18.8557 8.09205 18.9543C8.13378 19.0529 8.14759 19.1611 8.13197 19.2671Z" fill="#2F455C"/>
<path d="M34.5022 21.7321C34.5022 17.8914 34.5041 14.0504 34.5081 10.2091C34.5111 9.9425 34.5594 9.67838 34.6512 9.42806C35.1852 7.96306 35.7381 6.50507 36.2841 5.04507C36.3111 4.97307 36.3181 4.87907 36.3691 4.83407C36.5411 4.68407 36.7122 4.47704 36.9162 4.43404C37.1912 4.37104 37.3892 4.58607 37.4872 4.84707C38.0938 6.4624 38.6968 8.07873 39.2961 9.69607C39.339 9.84304 39.3562 9.99626 39.3472 10.1491C39.3472 17.8051 39.3472 25.4614 39.3472 33.1181C39.3751 33.3911 39.3419 33.6669 39.2498 33.9254C39.1577 34.1839 39.009 34.4186 38.8148 34.6124C38.6205 34.8062 38.3854 34.9542 38.1267 35.0457C37.8679 35.1371 37.5921 35.1697 37.3192 35.1411H36.5511C36.2753 35.1738 35.9956 35.1438 35.7329 35.0533C35.4703 34.9628 35.2314 34.8141 35.0343 34.6183C34.8372 34.4225 34.6869 34.1847 34.5945 33.9227C34.5022 33.6607 34.4703 33.3812 34.5012 33.1051C34.5012 29.3131 34.5015 25.5221 34.5022 21.7321ZM35.6902 10.507V30.8801H38.1702V10.507H35.6902ZM35.6572 32.0761C35.6572 32.4971 35.6492 32.876 35.6572 33.262C35.649 33.3555 35.6608 33.4497 35.6919 33.5383C35.723 33.6268 35.7726 33.7077 35.8374 33.7755C35.9023 33.8434 35.9808 33.8967 36.0678 33.9318C36.1549 33.9669 36.2484 33.983 36.3422 33.9791C36.7252 33.9991 37.1102 33.9971 37.4932 33.9791C37.5775 33.9852 37.6622 33.9744 37.7423 33.9475C37.8224 33.9205 37.8964 33.8778 37.9599 33.822C38.0234 33.7661 38.0751 33.6982 38.1121 33.6222C38.149 33.5461 38.1705 33.4635 38.1751 33.3791C38.2051 32.9501 38.1822 32.5181 38.1822 32.0731L35.6572 32.0761ZM37.9242 9.3121L36.9242 6.63607L35.9242 9.3121H37.9242Z" fill="#2F455C"/>
</svg>
