<svg width="67" height="67" viewBox="0 0 67 67" fill="none" xmlns="http://www.w3.org/2000/svg">
<path d="M18.2243 66.2908C17.8588 66.1182 17.559 65.8317 17.3701 65.4744C17.1811 65.117 17.1131 64.708 17.1762 64.3087C17.2322 63.2957 17.1892 62.2768 17.1892 61.2698C16.1 61.175 15.0168 61.0211 13.9443 60.8087C12.6769 60.4695 11.4301 60.0575 10.2102 59.5747C9.42918 59.2807 9.18435 58.7127 9.46335 58.1547C9.72935 57.6217 10.2742 57.5027 11.0022 57.8607C14.2069 59.3649 17.8512 59.6448 21.248 58.6475C24.6448 57.6502 27.5595 55.4447 29.4424 52.4468C30.6409 50.5067 31.3618 48.3099 31.5461 46.0369C31.7304 43.7639 31.3728 41.4795 30.5024 39.3717C29.6321 37.2639 28.2738 35.3927 26.5395 33.9119C24.8053 32.4311 22.7445 31.3831 20.5263 30.8538C10.9703 28.6988 3.59024 35.6327 2.89524 43.8287C2.68342 45.9089 2.95275 48.0098 3.68259 49.9692C4.41242 51.9287 5.58319 53.694 7.10422 55.1287C7.32022 55.3427 7.59214 55.6587 7.57614 55.9097C7.5341 56.2705 7.35825 56.6024 7.08322 56.8397C6.70522 57.1467 6.28318 56.9658 5.93918 56.6458C4.31201 55.1397 3.02134 53.307 2.15134 51.2677C1.21205 48.9666 0.803345 46.4834 0.956026 44.0027C1.10871 41.522 1.81879 39.1075 3.03317 36.939C4.24756 34.7704 5.9351 32.9035 7.97043 31.4771C10.0058 30.0506 12.3365 29.1013 14.7893 28.6997C18.2871 28.188 21.8565 28.8245 24.9619 30.5136C28.0673 32.2027 30.5411 34.8534 32.0122 38.0678C32.0818 38.2819 32.2244 38.4647 32.415 38.5846C32.6056 38.7045 32.832 38.7538 33.0551 38.7238C43.4271 38.7058 53.7981 38.7238 64.1701 38.6968C64.5902 38.6336 65.0193 38.7179 65.384 38.9357C65.7487 39.1534 66.0265 39.491 66.1701 39.8908V65.1408L65.0232 66.2887L18.2243 66.2908ZM56.1972 44.4998H33.5263C33.569 47.1991 32.951 49.8678 31.7263 52.2737C30.5039 54.6476 28.7279 56.6923 26.5483 58.2348L27.1924 60.5198H56.2173C56.2224 59.4331 56.6585 58.3929 57.4301 57.6277C58.2234 56.8753 59.278 56.4605 60.3713 56.4707V48.5578C57.5033 48.0037 56.5262 47.0547 56.1972 44.5017V44.4998ZM64.2063 40.6677H32.9922C33.0876 41.0042 33.1547 41.348 33.1924 41.6957C33.2104 42.4147 33.5541 42.5587 34.2331 42.5557C41.5421 42.5287 48.8511 42.5378 56.1601 42.5408C56.4254 42.4969 56.6974 42.5156 56.9541 42.5956C57.2108 42.6756 57.4452 42.8144 57.6386 43.0012C57.832 43.188 57.979 43.4175 58.0678 43.6713C58.1567 43.925 58.185 44.1962 58.1504 44.4628C58.1382 44.751 58.1876 45.0383 58.2956 45.3058C58.4037 45.5733 58.5677 45.8146 58.7766 46.0134C58.9855 46.2123 59.2346 46.3643 59.5071 46.459C59.7795 46.5537 60.0689 46.5891 60.3562 46.5628C60.6169 46.5307 60.8815 46.5573 61.1306 46.6408C61.3796 46.7242 61.6067 46.8623 61.7954 47.0449C61.9841 47.2276 62.1297 47.4502 62.2212 47.6964C62.3127 47.9426 62.3478 48.2062 62.3242 48.4678C62.3342 51.1451 62.3342 53.8221 62.3242 56.4988C62.3534 56.76 62.3229 57.0244 62.2348 57.272C62.1468 57.5196 62.0035 57.7438 61.8159 57.9279C61.6283 58.1119 61.4013 58.2509 61.1521 58.3342C60.9028 58.4175 60.6377 58.443 60.3772 58.4087C60.0843 58.3842 59.7897 58.4226 59.5129 58.5215C59.2361 58.6204 58.9837 58.7774 58.7727 58.9819C58.5616 59.1865 58.3968 59.4338 58.2893 59.7073C58.1818 59.9808 58.1338 60.2743 58.1491 60.5678C58.176 60.8291 58.1433 61.093 58.0532 61.3397C57.9631 61.5865 57.8179 61.8095 57.6289 61.992C57.4399 62.1744 57.2119 62.3116 56.9621 62.393C56.7124 62.4743 56.4474 62.4978 56.1872 62.4617C46.4986 62.4617 36.81 62.4617 27.1213 62.4617C26.861 62.493 26.597 62.466 26.3484 62.3827C26.0998 62.2994 25.8729 62.1617 25.6841 61.9799C25.4952 61.798 25.349 61.5763 25.2563 61.3311C25.1637 61.0858 25.1267 60.8231 25.1482 60.5618C25.1034 60.1865 25.0289 59.8153 24.9253 59.4518L19.1433 61.2398V64.3257H64.2053L64.2063 40.6677Z" fill="#2F455C"/>
<path d="M37.9333 30.3208C39.3214 29.4722 40.9409 29.0808 42.5634 29.2018C43.5724 29.3018 44.5634 29.5548 45.5634 29.7328C49.0322 30.2813 52.5783 29.4571 55.4498 27.4352C58.3213 25.4133 60.2924 22.3525 60.9453 18.9018C61.4155 16.3593 61.1512 13.7354 60.1833 11.3378C59.8833 10.6088 60.0723 10.0618 60.6583 9.84977C61.2013 9.64977 61.6774 9.93373 61.9584 10.6427C62.8313 12.8136 63.2 15.1543 63.0366 17.4884C62.8733 19.8225 62.1821 22.0891 61.0153 24.1172C59.8484 26.1453 58.2363 27.882 56.3005 29.1963C54.3648 30.5107 52.1558 31.3684 49.8403 31.7047C47.7906 31.9775 45.7072 31.8416 43.7103 31.3048C42.1546 30.8821 40.4953 31.0841 39.0864 31.8678C38.4504 32.2078 37.8084 32.5378 37.1654 32.8678C36.9634 32.9899 36.7283 33.0458 36.4929 33.0279C36.2576 33.0099 36.0336 32.919 35.8524 32.7677C35.6672 32.6214 35.5313 32.4217 35.4634 32.1956C35.3954 31.9695 35.3986 31.7281 35.4724 31.5038C35.6334 30.8228 35.8294 30.1488 35.9584 29.4608C36.231 28.0448 35.9408 26.5783 35.1494 25.3728C33.8481 23.4255 32.9513 21.2365 32.5123 18.9358C32.0536 16.5201 32.2169 14.0273 32.9866 11.6919C33.7563 9.35659 35.1072 7.25545 36.9124 5.58585C38.37 4.08548 40.1228 2.90365 42.0603 2.11502C43.9978 1.3264 46.0777 0.948027 48.1688 1.00394C50.2599 1.05985 52.3167 1.54881 54.2092 2.43985C56.1018 3.33089 57.7891 4.6047 59.1644 6.18082C59.2735 6.26585 59.3635 6.37276 59.4287 6.49466C59.4939 6.61657 59.5329 6.75082 59.5432 6.88871C59.5535 7.02659 59.5347 7.1651 59.4883 7.29532C59.4418 7.42555 59.3685 7.54457 59.2733 7.64481C58.8603 8.05781 58.2733 8.00574 57.7733 7.47574C56.1398 5.70124 54.0926 4.35843 51.8143 3.56681C48.929 2.66934 45.8267 2.762 43.0001 3.83011C40.1736 4.89822 37.7851 6.88051 36.2144 9.46183C33.2774 14.2288 33.6014 19.0258 36.4144 23.7328C37.2335 24.925 37.7531 26.2971 37.9293 27.7328C37.9793 28.5768 37.9333 29.4228 37.9333 30.3208Z" fill="#2F455C"/>
<path d="M4.81527 44.8658C4.77227 38.7168 9.00226 32.5338 17.3363 32.3988C20.6272 32.4162 23.7768 33.7382 26.0943 36.0748C28.4118 38.4114 29.7079 41.5718 29.6983 44.8628C29.7092 48.154 28.4142 51.3151 26.0975 53.6528C23.7808 55.9905 20.6313 57.3139 17.3402 57.3327C8.97817 57.1987 4.77527 50.9968 4.81527 44.8658ZM27.7064 44.8547C27.7362 43.4572 27.4825 42.0683 26.9608 40.7716C26.439 39.4748 25.6599 38.2973 24.6705 37.3099C23.6811 36.3226 22.5018 35.5459 21.2039 35.0268C19.9061 34.5078 18.5166 34.257 17.1192 34.2898C14.3353 34.3186 11.6746 35.4416 9.71175 37.416C7.74894 39.3904 6.64169 42.0577 6.62923 44.8418C6.63332 47.6249 7.73009 50.2952 9.68343 52.2777C11.6368 54.2602 14.2905 55.3964 17.0733 55.4417C18.476 55.4794 19.8716 55.2316 21.1756 54.7135C22.4796 54.1953 23.6649 53.4176 24.6593 52.4276C25.6536 51.4375 26.4365 50.2557 26.9603 48.9539C27.4841 47.6522 27.7379 46.2575 27.7064 44.8547Z" fill="#2F455C"/>
<path d="M54.1944 20.9807C54.2125 21.7059 54.0075 22.4192 53.6071 23.0241C53.2066 23.629 52.63 24.0962 51.9553 24.3627C51.371 24.5678 50.7372 24.5861 50.142 24.4149C49.5468 24.2438 49.0196 23.8919 48.6333 23.4077C48.2483 22.9513 47.9777 22.4097 47.8438 21.8278C47.7099 21.2459 47.7165 20.6405 47.8633 20.0617C47.9869 19.266 48.4091 18.5475 49.044 18.0522C49.6788 17.5568 50.4785 17.3221 51.2803 17.3958C52.1317 17.5088 52.9078 17.9429 53.4495 18.6094C53.9912 19.2759 54.2577 20.1242 54.1944 20.9807ZM49.6753 20.8808C49.6843 21.9118 50.2323 22.6038 50.9833 22.5998C51.7343 22.5958 52.2834 21.8867 52.2764 20.9347C52.2732 20.7237 52.2394 20.5142 52.1763 20.3128C52.1133 20.0203 51.9535 19.7575 51.7227 19.5672C51.4918 19.3768 51.2035 19.2698 50.9043 19.2637C50.6097 19.3129 50.3378 19.453 50.1267 19.6645C49.9157 19.8759 49.776 20.148 49.7273 20.4428C49.7022 20.5888 49.6848 20.7359 49.6753 20.8837V20.8808Z" fill="#2F455C"/>
<path d="M40.8214 12.7068C40.7495 11.8589 40.9933 11.0145 41.506 10.3354C42.0188 9.65639 42.7643 9.19069 43.5994 9.02781C44.1025 8.98347 44.6092 9.0523 45.0823 9.22922C45.5554 9.40615 45.9828 9.68666 46.3334 10.0503C46.684 10.4139 46.9488 10.8513 47.1083 11.3305C47.2678 11.8098 47.3181 12.3186 47.2554 12.8198C47.2124 13.6316 46.9044 14.4068 46.3785 15.0267C46.0267 15.485 45.5461 15.8279 44.9982 16.0112C44.4503 16.1945 43.8601 16.2101 43.3034 16.0558C42.7127 15.908 42.1768 15.594 41.7592 15.1509C41.3416 14.7077 41.0599 14.1542 40.9474 13.5558C40.8867 13.2759 40.8446 12.9922 40.8214 12.7068ZM42.7215 12.6008C42.6905 12.9958 42.8125 13.3874 43.0623 13.6949C43.3121 14.0024 43.6705 14.2022 44.0634 14.2528C44.453 14.181 44.8016 13.9661 45.0406 13.6501C45.2795 13.3342 45.3914 12.9401 45.3544 12.5458C45.3304 11.5878 44.7645 10.9038 44.0085 10.9198C43.615 10.9725 43.2585 11.179 43.0171 11.4941C42.7757 11.8092 42.669 12.2072 42.7204 12.6008H42.7215Z" fill="#2F455C"/>
<path d="M45.1261 23.6998C44.9575 23.7139 44.7881 23.6836 44.6348 23.6119C44.4815 23.5402 44.3497 23.4297 44.2524 23.2912C44.1551 23.1528 44.0957 22.9912 44.0802 22.8227C44.0648 22.6542 44.0937 22.4846 44.1641 22.3308C44.4581 21.5578 44.8031 20.8047 45.1231 20.0417C46.4517 16.8724 47.7801 13.7031 49.1081 10.5338C49.185 10.3137 49.2928 10.1056 49.4281 9.91574C49.5509 9.73794 49.7359 9.61267 49.9466 9.56454C50.1572 9.51641 50.3782 9.54891 50.5661 9.65573C50.7643 9.74009 50.9257 9.89281 51.0209 10.086C51.1161 10.2792 51.1389 10.5001 51.0851 10.7087C51.0418 10.8729 50.9816 11.0322 50.9052 11.1838C49.2812 15.0571 47.6582 18.9308 46.0362 22.8048C45.8362 23.2838 45.5981 23.6818 45.1261 23.6998Z" fill="#2F455C"/>
<path d="M35.8161 52.3727C35.8001 51.558 35.9485 50.7484 36.2528 49.9924C36.557 49.2365 37.0106 48.5497 37.5865 47.9732C38.1624 47.3966 38.8487 46.9422 39.6043 46.6371C40.3599 46.332 41.1693 46.1826 41.9841 46.1976C42.8045 46.1839 43.6191 46.3362 44.3791 46.6454C45.1391 46.9546 45.8288 47.4142 46.4067 47.9967C46.9845 48.5792 47.4386 49.2726 47.7416 50.0351C48.0447 50.7975 48.1903 51.6135 48.17 52.4337C48.1387 54.0654 47.4655 55.6188 46.2962 56.7572C45.1269 57.8956 43.5559 58.5271 41.924 58.5147C40.3041 58.4956 38.7565 57.8413 37.6142 56.6926C36.4719 55.544 35.8262 53.9927 35.8161 52.3727ZM37.7281 52.2868C37.7128 52.8517 37.812 53.4139 38.0197 53.9395C38.2275 54.4651 38.5395 54.9432 38.937 55.345C39.3344 55.7468 39.8091 56.0638 40.3325 56.2772C40.8558 56.4906 41.4169 56.5959 41.982 56.5867C42.5468 56.594 43.1074 56.4879 43.6304 56.2747C44.1535 56.0614 44.6286 55.7454 45.0273 55.3452C45.426 54.9451 45.7403 54.469 45.9517 53.9452C46.1631 53.4214 46.2673 52.8605 46.258 52.2957C46.2389 51.1788 45.786 50.1131 44.9949 49.3244C44.2039 48.5356 43.137 48.0857 42.0201 48.0697C40.8929 48.0638 39.8091 48.5039 39.0051 49.2938C38.2011 50.0838 37.7421 51.1597 37.7281 52.2868Z" fill="#2F455C"/>
<path d="M16.1615 51.2728C15.3615 50.9248 14.6287 50.6528 13.9437 50.2918C13.8175 50.2442 13.7032 50.1691 13.6095 50.0721C13.5157 49.9751 13.4448 49.8585 13.4015 49.7308C13.3582 49.603 13.3436 49.4673 13.359 49.3333C13.3744 49.1993 13.4194 49.0703 13.4906 48.9558C13.5597 48.8362 13.6533 48.7328 13.7655 48.6523C13.8776 48.5718 14.0056 48.516 14.141 48.4887C14.2763 48.4615 14.4161 48.4633 14.5506 48.4942C14.6852 48.5251 14.8115 48.5843 14.9215 48.6678C15.2915 48.8618 15.6745 49.0288 16.1805 49.2678C16.1805 47.8138 16.1966 46.4898 16.1586 45.1678C16.1586 45.0238 15.8536 44.8618 15.6586 44.7548C15.1776 44.5526 14.7513 44.2394 14.4147 43.8409C14.078 43.4424 13.8405 42.9697 13.7215 42.4617C13.5923 41.713 13.7167 40.9425 14.0748 40.2723C14.4329 39.6021 15.0043 39.0706 15.6986 38.7618C15.8078 38.7105 15.9056 38.6375 15.9857 38.5472C16.0658 38.4569 16.1267 38.3513 16.1647 38.2368C16.2947 37.6088 16.5966 37.2488 17.1256 37.2368C17.6546 37.2248 18.0107 37.5867 18.0917 38.2117C18.1047 38.3117 18.1147 38.4118 18.1207 38.4698C18.6257 38.6998 19.1046 38.8758 19.5406 39.1258C19.6646 39.1767 19.7763 39.2534 19.8683 39.3509C19.9602 39.4484 20.0301 39.5645 20.0736 39.6912C20.117 39.818 20.133 39.9526 20.1202 40.086C20.1075 40.2194 20.0663 40.3486 19.9996 40.4648C19.9344 40.5808 19.8459 40.682 19.7396 40.762C19.6333 40.842 19.5114 40.8991 19.3819 40.9296C19.2524 40.9602 19.118 40.9635 18.9872 40.9394C18.8563 40.9153 18.7319 40.8644 18.6217 40.7897C18.4737 40.7177 18.3216 40.6518 18.0946 40.5468C18.0946 41.5648 18.0845 42.5118 18.1075 43.4588C18.1238 43.5341 18.1578 43.6043 18.2066 43.6638C18.2555 43.7233 18.3179 43.7703 18.3885 43.8009C19.1786 43.9733 19.8799 44.4254 20.3631 45.0738C20.8464 45.7222 21.0792 46.5234 21.0187 47.3298C21.0151 48.168 20.7355 48.9818 20.223 49.6452C19.7106 50.3086 18.9939 50.7847 18.1837 50.9998C18.1657 51.0058 18.1526 51.0238 18.1366 51.0368C18.0226 52.0898 17.7626 52.4648 17.1456 52.4708C16.5286 52.4768 16.2405 52.0928 16.1615 51.2728ZM18.1295 48.9548C18.4665 48.7647 18.7402 48.4797 18.9166 48.1353C19.093 47.7909 19.1644 47.4023 19.1217 47.0178C19.0969 46.7362 18.9896 46.4683 18.8131 46.2475C18.6366 46.0267 18.3987 45.863 18.1295 45.7768V48.9548ZM16.1405 42.7468V40.7928C15.3955 41.4948 15.3935 42.2258 16.1405 42.7428V42.7468Z" fill="#2F455C"/>
</svg>
