<svg width="60" height="60" viewBox="0 0 60 60" fill="none" xmlns="http://www.w3.org/2000/svg">
<g filter="url(#filter0_d_0_1)">
<path d="M30 40C41.0457 40 50 31.0457 50 20C50 8.9543 41.0457 0 30 0C18.9543 0 10 8.9543 10 20C10 31.0457 18.9543 40 30 40Z" fill="url(#paint0_linear_0_1)"/>
</g>
<path d="M40.741 13.9219C39.9923 14.2538 39.1982 14.4716 38.385 14.5679C39.2396 14.0546 39.8791 13.2488 40.185 12.2999C39.3789 12.7786 38.4974 13.1168 37.578 13.2999C36.9592 12.6449 36.1422 12.2116 35.2528 12.0669C34.3635 11.9221 33.4512 12.0739 32.6567 12.4989C31.8621 12.9239 31.2294 13.5984 30.8561 14.4185C30.4828 15.2386 30.3896 16.1587 30.591 17.0369C28.9597 16.9552 27.3639 16.5312 25.9071 15.7927C24.4503 15.0541 23.1651 14.0174 22.135 12.7499C21.6111 13.6532 21.4508 14.722 21.6867 15.7392C21.9226 16.7564 22.537 17.6455 23.405 18.2259C22.7535 18.2044 22.1166 18.0279 21.547 17.7109V17.7589C21.5467 18.7073 21.8746 19.6265 22.475 20.3605C23.0754 21.0946 23.9114 21.5982 24.841 21.7859C24.4885 21.8812 24.1251 21.9296 23.76 21.9299C23.5008 21.9301 23.2422 21.9046 22.988 21.8539C23.2491 22.6695 23.7592 23.3829 24.4464 23.8939C25.1337 24.4048 25.9637 24.6878 26.82 24.7029C25.3657 25.8442 23.5696 26.4627 21.721 26.4589C21.3935 26.4577 21.0663 26.438 20.741 26.3999C22.6165 27.6072 24.8004 28.2481 27.031 28.2459C28.5669 28.2567 30.0896 27.9621 31.5107 27.3793C32.9318 26.7965 34.2229 25.9371 35.309 24.851C36.3951 23.7649 37.2545 22.4738 37.8374 21.0527C38.4202 19.6316 38.7147 18.1089 38.704 16.5729L38.69 16.0419C39.4963 15.4652 40.1912 14.7469 40.741 13.9219Z" fill="white"/>
<defs>
<filter id="filter0_d_0_1" x="0" y="0" width="60" height="60" filterUnits="userSpaceOnUse" color-interpolation-filters="sRGB">
<feFlood flood-opacity="0" result="BackgroundImageFix"/>
<feColorMatrix in="SourceAlpha" type="matrix" values="0 0 0 0 0 0 0 0 0 0 0 0 0 0 0 0 0 0 127 0" result="hardAlpha"/>
<feOffset dy="10"/>
<feGaussianBlur stdDeviation="5"/>
<feColorMatrix type="matrix" values="0 0 0 0 0.294118 0 0 0 0 0.294118 0 0 0 0 0.294118 0 0 0 0.149 0"/>
<feBlend mode="normal" in2="BackgroundImageFix" result="effect1_dropShadow_0_1"/>
<feBlend mode="normal" in="SourceGraphic" in2="effect1_dropShadow_0_1" result="shape"/>
</filter>
<linearGradient id="paint0_linear_0_1" x1="49.12" y1="20" x2="10" y2="20" gradientUnits="userSpaceOnUse">
<stop stop-color="#34F2C6"/>
<stop offset="1" stop-color="#1ECEF7"/>
</linearGradient>
</defs>
</svg>
