<svg width="18" height="16" viewBox="0 0 18 16" fill="none" xmlns="http://www.w3.org/2000/svg">
<path d="M17.95 2.28873C17.2799 2.58602 16.569 2.78119 15.841 2.86773C16.6075 2.40865 17.1814 1.68696 17.456 0.836725C16.7341 1.2641 15.9449 1.56573 15.122 1.72873C14.5685 1.13935 13.836 0.748925 13.0381 0.617914C12.2403 0.486904 11.4214 0.622619 10.7085 1.00404C9.99553 1.38546 9.42823 1.9913 9.09442 2.72775C8.76061 3.4642 8.67893 4.29016 8.86202 5.07773C7.40152 5.00449 5.97274 4.62495 4.66842 3.96374C3.36411 3.30254 2.21341 2.37446 1.29102 1.23973C0.822787 2.04814 0.679736 3.00444 0.890903 3.91448C1.10207 4.82453 1.65163 5.62011 2.42802 6.13973C1.8446 6.12043 1.27418 5.9624 0.764016 5.67872V5.72672C0.764847 6.57441 1.05854 7.39578 1.59538 8.0518C2.13223 8.70782 2.87925 9.1582 3.71002 9.32672C3.39442 9.41206 3.06895 9.45544 2.74202 9.45573C2.50967 9.45592 2.27788 9.43314 2.05002 9.38773C2.2845 10.1176 2.7413 10.7559 3.35651 11.2133C3.97171 11.6707 4.71453 11.9244 5.48102 11.9387C4.17953 12.959 2.57275 13.512 0.919016 13.5087C0.62568 13.5092 0.332548 13.4932 0.0410156 13.4607C1.72003 14.5417 3.67512 15.1156 5.67202 15.1137C7.04726 15.1234 8.41073 14.8597 9.6832 14.338C10.9557 13.8162 12.1118 13.0468 13.0843 12.0745C14.0569 11.1021 14.8265 9.94612 15.3485 8.67375C15.8705 7.40139 16.1345 6.03797 16.125 4.66273L16.113 4.18673C16.8351 3.67042 17.4576 3.02733 17.95 2.28873Z" fill="#102F35"/>
</svg>
